<svg width="41" height="40" viewBox="0 0 41 40" fill="none" xmlns="http://www.w3.org/2000/svg">
<path fill-rule="evenodd" clip-rule="evenodd" d="M29.1271 0.100739C28.8125 0.24355 25.2082 3.87867 25.1043 4.15788C25.0555 4.28943 25.0225 5.15545 25.0225 6.30843V8.23873L20.6715 12.5917L16.3206 16.9445L16.0391 16.8464C14.8957 16.4477 13.5582 16.7704 12.6644 17.6605C11.3542 18.9653 11.3401 21.0345 12.6327 22.3291C13.9672 23.6659 16.0271 23.6645 17.3619 22.3259C17.5848 22.1024 17.8689 21.7019 18.0062 21.4177C18.2164 20.9826 18.2562 20.8022 18.2826 20.1663C18.305 19.6253 18.2799 19.3277 18.1903 19.0714L18.0674 18.7194L22.4242 14.3592L26.7811 9.999H28.7189C30.2073 9.999 30.7151 9.97366 30.9083 9.88959C31.23 9.74967 34.8392 6.12205 34.9482 5.82923C35.1483 5.29107 34.9077 4.62879 34.4045 4.33315C34.1568 4.18753 33.9782 4.17001 32.5142 4.14717L30.8975 4.12206L30.8724 2.50476C30.8484 0.965664 30.8383 0.873219 30.6634 0.59182C30.34 0.0714883 29.6661 -0.14398 29.1271 0.100739ZM13.4121 5.07936C8.35038 5.60532 3.74416 8.8447 1.50738 13.4516C-0.507269 17.6009 -0.49906 22.5178 1.52935 26.598C3.06896 29.6949 5.44185 32.0441 8.54224 33.5408C10.7796 34.6209 13.1786 35.1108 15.6794 34.9984C16.2815 34.9712 16.8502 34.9279 16.9433 34.9021L17.1126 34.855L16.8936 34.3345C16.7732 34.0482 16.5775 33.5124 16.4587 33.1438L16.2428 32.4737L15.4132 32.5079C11.1165 32.6849 6.88779 30.475 4.5181 26.8142C3.62016 25.4269 2.99132 23.8527 2.69031 22.2389C2.48625 21.1445 2.48625 18.8753 2.69031 17.7809C4.17292 9.83054 12.6733 5.30757 20.0061 8.56737L20.8144 8.92666L21.7066 8.03679C22.1973 7.54735 22.5988 7.12384 22.5988 7.09569C22.5988 7.06753 22.1678 6.83149 21.641 6.57113C19.0587 5.29498 16.2453 4.78497 13.4121 5.07936ZM13.4121 10.9737C10.8508 11.4431 8.6037 12.9697 7.21358 15.185C5.6395 17.6935 5.40932 20.9355 6.60859 23.7039C7.17472 25.0106 8.34076 26.4622 9.58108 27.4042C10.2653 27.9238 11.7918 28.6508 12.7084 28.8935C13.3736 29.0697 13.6653 29.1021 14.6631 29.111L15.8358 29.1214L15.8542 28.6912C15.8753 28.1975 16.0296 26.8314 16.0787 26.7034C16.1018 26.643 15.8454 26.6259 15.2172 26.6459C13.3547 26.705 11.7867 26.1201 10.4656 24.8734C8.90205 23.3979 8.16759 21.4454 8.37861 19.3255C8.66593 16.4387 10.8296 14.0524 13.6832 13.4749C14.1876 13.3728 14.5814 13.3505 15.3358 13.3811L16.3262 13.4213L17.2733 12.4715C17.7943 11.9492 18.2204 11.4973 18.2204 11.4675C18.2204 11.3836 17.2465 11.1022 16.5133 10.9743C15.7202 10.8359 14.1656 10.8356 13.4121 10.9737ZM26.9822 13.3178L26.0906 14.2122L26.3675 14.8234C26.5199 15.1595 26.6922 15.5694 26.7506 15.7341C26.8481 16.0096 26.8756 16.0302 27.0928 15.9899C27.2226 15.9658 27.7944 15.9226 28.3634 15.8938L29.3979 15.8414L29.3502 15.638C29.2006 14.9996 28.0542 12.4235 27.9198 12.4235C27.8944 12.4235 27.4724 12.826 26.9822 13.3178ZM27.4462 18.4778C22.7006 19.322 19.1184 23.0103 18.4489 27.7415C18.331 28.5747 18.3953 30.565 18.5656 31.3503C19.015 33.4232 19.9643 35.1973 21.4311 36.7054C23.0066 38.3253 24.805 39.3223 27.0385 39.8143C28.1704 40.0636 30.2189 40.0616 31.3461 39.8101C33.5774 39.3122 35.2702 38.3926 36.8328 36.8296C38.3953 35.2665 39.3146 33.5731 39.8123 31.341C40.0638 30.2135 40.0657 28.1643 39.8166 27.0321C39.4767 25.4883 38.8422 24.0551 37.9497 22.815C37.3923 22.0407 36.0393 20.7247 35.2802 20.2187C34.1223 19.4469 32.7704 18.8699 31.3945 18.5602C30.6364 18.3895 28.2251 18.3392 27.4462 18.4778ZM33.609 25.2267C34.1904 25.6574 34.345 26.378 33.9734 26.9258C33.7918 27.1936 29.0031 32.4042 28.4201 32.9685C28.089 33.289 27.6307 33.4185 27.2194 33.3077C26.8138 33.1984 23.6142 30.4744 23.4633 30.1099C23.3249 29.7758 23.3934 29.1591 23.6012 28.8673C23.9352 28.3981 24.7412 28.2277 25.2179 28.5255C25.3469 28.6061 25.8879 29.0474 26.4201 29.5061C26.9523 29.9648 27.4136 30.3299 27.4452 30.3173C27.4767 30.3048 28.5278 29.1859 29.7808 27.8309C31.0337 26.4759 32.1909 25.2866 32.3522 25.188C32.7097 24.9695 33.2858 24.9873 33.609 25.2267Z" fill="#00BEF2"/>
</svg>
