<svg width="30" height="36" viewBox="0 0 30 36" fill="none" xmlns="http://www.w3.org/2000/svg">
<path fill-rule="evenodd" clip-rule="evenodd" d="M0.655061 0.0439956C0.655061 0.0439956 0.5 4.81449 0.5 18.2339C0.5 31.4352 0.509883 32.4094 0.648336 32.8565C0.978237 33.9221 1.94451 34.942 2.94972 35.2858C3.93414 35.6225 5.25912 35.4312 6.14641 34.824C6.33232 34.6968 8.38764 32.8577 10.7136 30.7373C13.0397 28.6169 14.9822 26.8819 15.0302 26.8819C15.0783 26.8819 17.0956 28.6834 19.5131 30.8852C22.6626 33.7536 24.0365 34.951 24.3595 35.1091C26.5391 36.1755 29.0866 34.803 29.5087 32.3349C29.5763 31.9394 29.5956 27.8084 29.576 17.8931C29.5502 4.8156 29.3954 0 29.3954 0L0.655061 0.0439956Z" fill="#00BEF2"/>
</svg>
