<svg width="40" height="40" viewBox="0 0 40 40" fill="none" xmlns="http://www.w3.org/2000/svg">
<path fill-rule="evenodd" clip-rule="evenodd" d="M26.9834 1.87162C25.2075 2.67785 23.51 4.74735 22.8978 6.85252C22.2184 9.18907 22.8625 12.0798 24.4743 13.928C24.7205 14.2103 24.9837 14.5355 25.0592 14.6506C25.185 14.8427 25.1999 15.6643 25.2375 24.4949C25.2375 24.4949 25.1061 33.2185 25.2784 34.1297C25.4508 35.041 25.9858 36.3896 26.6393 37.0492C27.5788 37.9973 28.5604 38.3482 30.4834 38.3482C32.4063 38.3482 34.4922 37.582 35.1229 35.6871C35.7537 33.7922 35.7262 34.7422 35.7279 24.3525C35.729 16.6386 35.7484 15.0224 35.8425 14.8033C35.9048 14.6583 36.1665 14.2998 36.4242 14.0068C38.3843 11.7778 38.9029 8.4167 37.6971 5.75735C36.9799 4.17555 35.4586 2.5603 34.0831 1.91998C33.5652 1.67891 33.4111 1.66448 33.2351 1.84047C33.122 1.95358 33.1063 2.39424 33.1063 5.4417C33.1063 7.70235 33.0758 8.99465 33.0189 9.14489C32.8693 9.53973 32.6038 9.75014 31.6802 10.2055C31.0868 10.4983 30.6851 10.6461 30.4834 10.6461C30.2816 10.6461 29.8799 10.4983 29.2865 10.2055C28.363 9.75014 28.0975 9.53973 27.9479 9.14489C27.8909 8.99465 27.8604 7.70235 27.8604 5.4417C27.8604 2.39424 27.8447 1.95358 27.7316 1.84047C27.5647 1.67358 27.4049 1.68022 26.9834 1.87162ZM10.9752 7.00309C10.0601 7.19965 9.13541 7.71604 8.42852 8.4253C8.08738 8.76768 7.69623 9.25063 7.55934 9.49858C7.42246 9.74653 6.66885 11.4566 5.88459 13.2987L4.45877 16.6481L3.96697 16.9825C2.98557 17.6499 2.04917 18.4016 1.89402 19.676C1.73886 20.9504 1.64771 22.3265 1.64771 22.3265C1.64771 22.3265 1.64771 24.3033 1.74016 24.9552C1.83262 25.6072 2.68984 27.2724 3.65861 28.0199L4.21287 28.4477L4.25385 31.1247C4.25385 31.1247 4.24542 32.3988 4.29484 33.8019C4.34426 35.2049 5.4918 35.6871 6.18008 35.6871C6.86837 35.6871 8.84402 35.6871 8.84402 35.6871C8.84402 35.6871 10.5979 35.6871 11.508 35.6871C12.418 35.6871 13.4194 34.8771 13.3932 33.8019C13.367 32.7267 13.4194 31.4863 13.4194 31.4863L13.4456 29.1707H18.0301H22.6145V26.5503V23.9299L19.0958 23.9069C15.6885 23.8846 15.6608 23.7821 15.3509 23.7148C15.041 23.6475 14.7866 23.1557 14.7866 22.6133C14.7866 22.0709 14.8361 21.744 15.2459 21.4754C15.6557 21.2068 15.6885 21.3421 19.0958 21.3198L22.6145 21.2968V18.6764V16.056H15.7702C12.0059 16.056 8.92598 16.0402 8.92598 16.021C8.92598 15.866 11.0085 11.399 11.1548 11.2401C11.5507 10.8105 11.5559 10.8101 16.0158 10.8101H20.1601L20.0963 10.2568C20.0145 9.54686 20.0145 8.13883 20.0963 7.42891L20.1601 6.87563L15.834 6.88211C12.4608 6.88719 11.3906 6.91383 10.9752 7.00309ZM10.1907 19.6478C10.9302 19.9939 11.4088 20.4646 11.7756 21.2068C12.0648 21.792 12.0817 21.8695 12.0817 22.6133C12.0817 23.3572 12.0149 23.5112 11.7756 24.0199C11.4021 24.8138 10.9323 25.2306 10.1702 25.5916C9.67508 25.8262 9.5482 25.851 8.84402 25.851C8.13984 25.851 8.01295 25.8262 7.51779 25.5916C6.75574 25.2306 6.28115 24.766 5.91246 24.0199C5.62352 23.4353 5.60927 23.1781 5.60631 22.6176C5.60352 22.0882 5.63082 21.7829 5.86574 21.2871C6.19508 20.5919 6.66402 20.0829 7.27565 19.7569C7.92131 19.4128 8.27459 19.335 9.02836 19.3709C9.52033 19.3943 9.78238 19.4567 10.1907 19.6478ZM31.1584 31.2661C31.5701 31.4065 32.0424 31.817 32.2644 32.2278C32.363 32.4103 32.4063 32.6778 32.4063 33.1051C32.4063 33.8016 32.2942 34.0783 31.8285 34.5305C31.2861 35.0574 30.4275 35.2104 29.7457 34.9018C28.9623 34.5472 28.5632 33.9408 28.5632 33.1051C28.5632 31.7299 29.8478 30.8196 31.1584 31.2661Z" fill="#00BEF2"/>
</svg>
