<svg width="40" height="40" viewBox="0 0 40 40" fill="none" xmlns="http://www.w3.org/2000/svg">
<path fill-rule="evenodd" clip-rule="evenodd" d="M19.148 7.54352C19.0226 7.63125 18.9737 7.74547 18.9723 7.95367C18.9687 8.48836 19.8687 15.3253 19.9237 15.1815C20.0349 14.8909 20.857 8.02539 20.8076 7.80039C20.7432 7.50719 20.5264 7.42188 19.8459 7.42188C19.4978 7.42188 19.2632 7.46273 19.148 7.54352ZM23.3362 9.82422C23.2394 9.93883 22.8765 10.7875 21.2813 14.6289C21.2144 14.7901 21.1752 14.9219 21.1942 14.9219C21.2422 14.9219 24.3967 10.7814 24.5081 10.572C24.6459 10.3134 24.5446 10.1703 24.0448 9.91805C23.5099 9.64805 23.4875 9.64508 23.3362 9.82422ZM15.6693 10.3889C15.3858 10.5687 15.3024 10.6678 15.3024 10.8248C15.3024 10.9688 15.7854 11.6634 16.9584 13.207C17.8692 14.4054 18.6258 15.3745 18.6397 15.3606C18.6848 15.3155 16.6162 10.4339 16.4923 10.293C16.3194 10.0966 16.0877 10.1235 15.6693 10.3889ZM26.1499 11.6852C25.9501 11.7468 25.6122 11.9289 25.3991 12.09C24.9415 12.4359 19.8372 18.3401 19.8351 18.5259C19.834 18.6213 20.8675 20.8202 20.958 20.9153C20.9669 20.9245 21.1454 20.8455 21.3547 20.7395C21.7559 20.5363 22.3176 20.4852 22.6715 20.6198C23.2126 20.8255 23.7351 21.5555 23.7377 22.1094C23.7413 22.8666 23.219 23.5844 22.5404 23.7553L22.2007 23.8408L22.2638 24.1665C22.2985 24.3456 22.3283 24.8501 22.3302 25.2874L22.3337 26.0827L22.7438 26.1996C22.9694 26.264 25.8083 27.0252 29.0523 27.8913C32.2965 28.7573 34.9622 29.4775 34.9763 29.4916C34.9904 29.5057 34.8949 29.8904 34.7642 30.3464C34.513 31.2226 34.5221 31.4743 34.8104 31.6278C35.0473 31.754 37.3717 32.3438 37.6321 32.3438C37.8005 32.3438 37.9122 32.2888 37.9898 32.168C38.1732 31.8825 39.927 25.1754 39.9663 24.6094C39.9951 24.1945 39.8568 23.3373 39.2101 19.9234C38.7749 17.6253 38.3523 15.5951 38.2712 15.4116C38.0783 14.9754 37.4281 14.2934 37.005 14.0832C36.8205 13.9916 34.6082 13.387 32.0887 12.7396C27.204 11.4844 26.9493 11.4392 26.1499 11.6852ZM31.6941 14.9956C33.7271 15.5551 35.5415 16.0795 35.726 16.1612C36.0983 16.3258 36.4075 16.6877 36.5462 17.121C36.6621 17.4831 37.6373 22.6841 37.5976 22.728C37.5731 22.7548 34.8928 22.0423 22.7048 18.7685C22.6296 18.7483 22.5689 18.7095 22.57 18.6823C22.571 18.6551 23.4236 17.6507 24.4645 16.4504C26.6204 13.9643 26.7437 13.8631 27.529 13.9355C27.7868 13.9591 29.6611 14.4363 31.6941 14.9956ZM5.37038 15.043C4.91382 15.185 4.32327 15.5828 4.04257 15.9375C3.83194 16.2037 0.460613 23.1865 0.173035 23.9523C0.0414726 24.3028 0.0270195 24.67 0.00592572 28.2031C-0.00673053 30.3301 0.00155072 32.145 0.0244413 32.2362C0.0999101 32.5373 0.412879 32.5898 1.97757 32.5635C3.31952 32.5411 3.44944 32.5266 3.551 32.3874C3.63178 32.2768 3.66178 31.986 3.66178 31.3132V30.3906H10.7646H17.8675L17.8935 31.3352C17.9298 32.6497 17.8437 32.5944 19.8062 32.5631C21.1292 32.542 21.3298 32.522 21.4522 32.3995C21.5821 32.2691 21.5914 31.9989 21.5906 28.376L21.5898 24.4922L21.3888 23.9453C21.2783 23.6445 20.4173 21.7812 19.4756 19.8047C17.9115 16.5218 17.728 16.1752 17.3546 15.7971C17.1251 15.5647 16.7483 15.2907 16.4952 15.1721L16.0446 14.9609L10.8883 14.9458C6.58913 14.933 5.67194 14.9492 5.37038 15.043ZM15.4196 17.3047C15.5915 17.3906 15.8486 17.6191 15.9909 17.8125C16.1913 18.0847 18.5055 22.8726 18.5055 23.015C18.5055 23.0325 15.0251 23.0469 10.7712 23.0469C6.51725 23.0469 3.03678 23.0214 3.03678 22.9903C3.03678 22.8956 5.31288 18.1847 5.50921 17.873C5.60999 17.713 5.78085 17.5242 5.88882 17.4534C6.40671 17.1141 6.466 17.1103 10.8883 17.1298C14.9307 17.1477 15.1201 17.155 15.4196 17.3047ZM36.9047 24.5207C38.133 25.0787 38.2134 26.7892 37.0435 27.4748C36.2292 27.952 35.265 27.6588 34.8101 26.7957C34.6101 26.4162 34.5896 26.3142 34.631 25.9051C34.7054 25.1691 35.0977 24.628 35.6863 24.4497C36.0404 24.3423 36.5815 24.3739 36.9047 24.5207ZM4.18507 25.105C5.40686 25.7368 5.39803 27.4339 4.1696 28.0669C3.18022 28.5766 1.93413 27.8934 1.80764 26.772C1.72553 26.0431 2.18069 25.2782 2.84147 25.0346C3.20952 24.8989 3.85163 24.9326 4.18507 25.105ZM18.6867 25.0463C19.128 25.1966 19.6498 25.7498 19.7241 26.1461C19.9335 27.2623 19.1996 28.2207 18.1258 28.2334C16.6535 28.2506 15.9122 26.4276 16.9733 25.3991C17.4413 24.9455 18.0332 24.8237 18.6867 25.0463Z" fill="#00BEF2"/>
</svg>
