<svg width="41" height="40" viewBox="0 0 41 40" fill="none" xmlns="http://www.w3.org/2000/svg">
<path fill-rule="evenodd" clip-rule="evenodd" d="M15.3721 5.48015C13.4821 5.58236 11.7861 5.79263 11.2059 5.99652C10.209 6.34688 9.51144 7.04891 8.50595 8.7136C7.92869 9.66927 6.9609 11.6987 6.48639 12.9485C6.2832 13.4839 6.08046 14.0095 6.03604 14.1165C5.95648 14.3083 5.92391 14.3116 3.83435 14.3378C3.83435 14.3378 3.16817 14.3378 2.4602 14.3378C2.06419 14.3378 1.79407 14.3485 1.47692 14.5856C0.922904 14.9999 0.883292 15.5096 1.14019 16.3248C1.39135 17.1213 2.0325 17.6958 2.89427 17.8964C3.04028 17.9305 3.30621 17.9967 3.48533 18.0436L3.81081 18.1289L3.54993 18.7041C3.03612 19.8374 3.01772 20.0469 3.04577 24.4371C3.04577 24.4371 3.05612 27.2567 3.04577 27.6991C3.03542 28.1416 3.30772 28.8832 3.30772 28.8832C3.55002 29.3424 4.11223 29.9176 4.48427 30.0871C4.69179 30.1817 4.6932 30.1924 4.72657 31.9636C4.76347 33.9222 4.80745 34.1143 5.28719 34.4109C5.5463 34.571 5.73214 34.5856 7.50648 34.5853C10.303 34.5848 10.2836 34.6027 10.2836 32.0221V30.4263H21.0359H31.7881V32.1533V33.8802C31.7881 33.8802 31.7881 34.5682 32.3936 34.5414C32.9992 34.5146 34.3871 34.5682 34.3871 34.5682C36.6066 34.598 36.7744 34.5647 37.1013 34.0282C37.2575 33.7722 37.2742 33.5743 37.2744 31.9745L37.2748 30.204L37.5536 30.0807C37.975 29.8941 38.4814 29.6298 38.7434 29.0708C38.7434 29.0708 38.9727 28.7288 39.0005 28.2582C39.0282 27.7876 39.0282 24.6741 39.0282 24.6741C39.0595 20.634 39.0126 20.0551 38.5631 18.9357C38.3952 18.5173 38.268 18.1648 38.2806 18.1522C38.2931 18.1396 38.6276 18.0354 39.0239 17.9206C39.4203 17.8058 39.9051 17.6056 40.1013 17.4758C40.5687 17.1665 40.9124 16.4942 40.97 15.7764C41.0215 15.1347 40.8629 14.7549 40.4342 14.4936C40.1749 14.3355 39.9781 14.3208 38.1098 14.3205L36.0687 14.3202L35.509 12.8821C35.2013 12.0912 34.6441 10.8467 34.2709 10.1166C32.8946 7.42405 32.0392 6.42059 30.7246 5.95679C30.1998 5.77166 28.5029 5.58228 26.3898 5.47298C24.3962 5.36997 17.3249 5.37449 15.3721 5.48015ZM25.1067 7.28803C28.4113 7.37201 29.1533 7.44803 29.8068 7.7698C30.4859 8.10405 30.7544 8.41688 31.6427 9.90927C32.7924 11.8408 34.015 14.4406 33.8449 14.5926C33.7091 14.714 27.5656 15.1532 23.9562 15.2994C21.3075 15.4069 18.679 15.3643 15.1509 15.1568C12.6507 15.0098 8.43754 14.6843 8.26099 14.6246C8.09657 14.569 8.17214 14.3024 8.68922 13.1144C9.48108 11.2948 11.0051 8.72776 11.6269 8.1659C12.4129 7.45573 12.9556 7.37573 17.85 7.2475C20.4269 7.17997 20.9768 7.18307 25.1067 7.28803ZM8.66825 20.6443C9.78869 20.9182 10.5313 21.2849 11.0838 21.8376C11.8325 22.5862 12.2584 23.6934 12.0185 24.2675C11.8142 24.7566 11.5134 24.8037 10.0108 24.5815C6.93453 24.1265 6.03958 23.896 5.57975 23.4398C5.13896 23.0025 5.01329 22.5136 5.14179 21.7355C5.27701 20.917 5.39851 20.6926 5.81285 20.4969C6.28002 20.2762 7.39834 20.3339 8.66825 20.6443ZM36.2129 20.4929C36.6351 20.7038 36.8395 21.1574 36.8921 21.9998C36.929 22.5926 36.9074 22.7356 36.7286 23.0809C36.47 23.5801 36.0663 23.813 35.0399 24.0547C33.8413 24.3369 30.8934 24.7673 30.5697 24.7074C30.4097 24.6778 30.1981 24.5497 30.0958 24.4206C29.5535 23.7359 30.518 21.8755 31.765 21.2011C32.9995 20.5336 35.498 20.1357 36.2129 20.4929ZM28.4779 21.2962C29.0573 21.9365 27.8635 23.6806 26.5291 24.3168C25.6308 24.7452 25.2266 24.7732 20.3686 24.7447C20.3686 24.7447 17.2832 24.7447 16.531 24.7447C15.7788 24.7447 15.381 24.4086 15.381 24.4086C14.1185 23.6494 13.3853 21.8744 13.9204 21.2832C14.0599 21.129 14.1862 21.1343 20.9916 21.1343C20.9916 21.1343 27.9027 21.1343 28.1323 21.1343C28.362 21.1343 28.4779 21.2962 28.4779 21.2962Z" fill="#00BEF2"/>
</svg>
