<svg width="14" height="11" viewBox="0 0 14 11" fill="none" xmlns="http://www.w3.org/2000/svg">
<path fill-rule="evenodd" clip-rule="evenodd" d="M13.0156 0.43532C12.8862 0.49657 12.2771 1.09436 8.64064 4.72944L4.41603 8.95243L2.76174 7.30136C1.85187 6.3933 1.06437 5.62784 1.01174 5.60034C0.876933 5.52993 0.543448 5.53006 0.401425 5.60061C0.253523 5.67405 0.138323 5.79841 0.0603117 5.96882C-0.021118 6.14666 -0.0132976 6.35841 0.0817219 6.54875C0.166898 6.71941 3.92896 10.4815 4.09961 10.5666C4.16619 10.5999 4.29083 10.6334 4.3766 10.6412C4.50635 10.653 4.55951 10.6431 4.69303 10.5824C4.83847 10.5163 5.27613 10.0869 9.35735 6.00568C13.4386 1.92446 13.868 1.4868 13.9341 1.34136C13.9948 1.2077 14.0046 1.15473 13.9929 1.02452C13.9599 0.661316 13.6944 0.401059 13.3309 0.375656C13.1947 0.366141 13.1398 0.376531 13.0156 0.43532Z" fill="white"/>
</svg>
