<svg width="40" height="40" viewBox="0 0 40 40" fill="none" xmlns="http://www.w3.org/2000/svg">
<path fill-rule="evenodd" clip-rule="evenodd" d="M5.37244 0.158233C5.0426 0.332373 4.76611 0.793311 4.76611 1.16901C4.76611 1.55667 5.04244 2.00675 5.38908 2.18362C5.68541 2.3348 5.84322 2.34089 9.45361 2.34089C13.064 2.34089 13.2218 2.3348 13.5181 2.18362C13.8648 2.00675 14.1411 1.55667 14.1411 1.16901C14.1411 0.781358 13.8648 0.331279 13.5181 0.154405C13.2214 0.00307637 13.0678 -0.00270488 9.43721 0.000576371C5.83549 0.00385762 5.65135 0.0110451 5.37244 0.158233ZM35.9193 0.158233C35.4703 0.395342 35.313 0.778311 35.313 1.63464V2.34089H34.6067C34.0531 2.34089 33.8339 2.37487 33.5922 2.49815C33.2456 2.67503 32.9692 3.12511 32.9692 3.51276C32.9692 3.90042 33.2456 4.3505 33.5922 4.52737C33.8339 4.65065 34.0531 4.68464 34.6067 4.68464H35.313V5.39089C35.313 6.26112 35.4696 6.63315 35.936 6.87112C36.3264 7.07034 36.6433 7.07034 37.0338 6.87112C37.5002 6.63315 37.6567 6.26112 37.6567 5.39089V4.68464H38.363C38.9166 4.68464 39.1358 4.65065 39.3775 4.52737C39.7242 4.3505 40.0005 3.90042 40.0005 3.51276C40.0005 3.12511 39.7242 2.67503 39.3775 2.49815C39.1358 2.37487 38.9166 2.34089 38.363 2.34089H37.6567V1.63464C37.6567 0.764404 37.5002 0.392373 37.0338 0.154405C36.6488 -0.0419236 36.2963 -0.0407518 35.9193 0.158233ZM20.2056 1.91112C18.9796 2.16448 17.736 2.71769 16.7974 3.42722C16.5181 3.63831 15.3195 4.78979 14.1338 5.98612C12.0133 8.12565 11.9721 8.17331 11.6147 8.90339C11.1499 9.85308 11.0148 10.3788 10.9623 11.4425L10.9199 12.3018L14.0735 9.16612C17.396 5.86245 17.8047 5.51722 18.7335 5.23034C19.4092 5.02167 20.4333 5.02097 21.1056 5.2287C21.6727 5.40394 22.4188 5.82901 22.7992 6.19362C23.1431 6.52323 23.6535 7.30636 23.7656 7.67612C23.8334 7.89995 23.8854 7.95964 23.9787 7.92034C25.3372 7.34706 26.7907 7.44433 27.9358 8.18503C29.2862 9.05862 30.0222 10.6731 29.7801 12.2305C29.7294 12.5566 29.6243 12.9692 29.5467 13.1474L29.4053 13.4714L29.9959 13.7622C31.0512 14.2817 31.7049 15.0167 32.095 16.122C32.3706 16.9029 32.3734 17.9319 32.1021 18.7172L31.9099 19.2733L32.4592 19.529C32.8553 19.7135 33.1631 19.9395 33.5637 20.3401C34.4278 21.2043 34.7706 22.0268 34.7723 23.2393C34.7734 24.1021 34.5818 24.7782 34.1509 25.4325C33.9759 25.6981 32.8427 26.8948 31.4935 28.2389C30.1996 29.5276 29.1411 30.6087 29.1411 30.6412C29.1411 30.7503 30.7804 30.7024 31.3523 30.5765C31.6615 30.5084 32.2485 30.2937 32.6567 30.0993L33.3989 29.746L35.9007 27.2349C38.0419 25.0856 38.4573 24.6307 38.7829 24.0785C39.5487 22.7798 39.9338 21.3993 39.943 19.919C39.9545 18.078 39.4385 16.4246 38.3853 14.9276C37.9471 14.3047 27.9782 4.27339 27.0708 3.54222C26.3116 2.93042 25.1399 2.33753 24.1411 2.0598C23.5016 1.8819 23.2153 1.84972 22.0708 1.82675C21.1338 1.808 20.5845 1.83284 20.2056 1.91112ZM0.606816 4.84573C0.276973 5.01987 0.000488281 5.48081 0.000488281 5.85651C0.000488281 6.24417 0.276816 6.69425 0.623457 6.87112C0.919941 7.02237 1.07752 7.02839 4.72705 7.02839C8.37658 7.02839 8.53416 7.02237 8.83064 6.87112C9.17729 6.69425 9.45361 6.24417 9.45361 5.85651C9.45361 5.46886 9.17729 5.01878 8.83064 4.8419C8.53385 4.6905 8.38033 4.6848 4.71064 4.68808C1.07002 4.69136 0.885801 4.69847 0.606816 4.84573ZM19.2192 7.54214C19.0428 7.61761 16.8064 9.79745 12.9106 13.6912C8.78689 17.8129 6.87479 19.6739 6.87338 19.5673C6.87221 19.4814 6.77057 17.7319 6.64752 15.6795C6.42838 12.0232 6.41963 11.9392 6.21768 11.5263C5.64619 10.3582 4.2708 9.86745 3.11127 10.4178C2.59721 10.6617 2.23822 11.0378 1.98721 11.5951C1.84611 11.9083 1.78377 12.2864 1.68393 13.4346C1.51955 15.3253 1.17666 18.1828 0.740488 21.2964C0.252363 24.7804 0.0829102 26.3175 0.026582 27.7706C-0.124668 31.6706 0.87041 34.221 3.53557 36.7645C5.13025 38.2863 7.06127 39.2911 9.32486 39.777C9.98189 39.918 10.372 39.9471 11.6021 39.9471C13.2003 39.9471 13.9424 39.8389 15.279 39.411C16.2091 39.1132 17.8403 38.2721 18.6333 37.6817C19.1194 37.3197 21.297 35.2027 25.6874 30.8237C32.5948 23.9343 32.4447 24.1027 32.4447 23.2439C32.4447 22.2648 31.6709 21.4815 30.7036 21.4815C30.0013 21.4815 29.946 21.525 27.2661 24.1859C25.8696 25.5725 24.6281 26.7442 24.5071 26.7896C23.9099 27.0138 23.2598 26.7377 23.0194 26.1578C22.715 25.4233 22.5938 25.5814 26.367 21.794C29.7121 18.4364 29.7542 18.39 29.886 17.933C29.998 17.5444 30.0048 17.4054 29.9285 17.0642C29.8178 16.5699 29.4022 16.0529 28.9502 15.8476C28.5611 15.6709 27.9081 15.6587 27.5175 15.8209C27.3199 15.9029 26.1656 17.0005 23.9067 19.2544C22.0806 21.0766 20.4874 22.6043 20.3665 22.6495C19.7681 22.8727 19.1191 22.5968 18.8788 22.0171C18.5706 21.2735 18.3697 21.5239 23.0053 16.8721C25.296 14.5733 27.2275 12.5788 27.2976 12.4399C27.8903 11.2647 27.0204 9.87269 25.7036 9.88925C25.4285 9.89269 25.1614 9.95339 24.9614 10.0578C24.7743 10.1555 23.0186 11.8565 20.5864 14.2965C18.2702 16.6202 16.4159 18.4191 16.2725 18.4814C15.6651 18.7459 14.9878 18.4789 14.7381 17.8765C14.4342 17.1432 14.3141 17.2999 18.0852 13.5127C21.4235 10.16 21.471 10.1078 21.6037 9.65159C21.7168 9.2623 21.7237 9.1248 21.6472 8.783C21.54 8.30409 21.1454 7.80065 20.6983 7.57261C20.3335 7.38644 19.6175 7.37175 19.2192 7.54214ZM28.8099 33.127C28.3609 33.3641 28.2036 33.7471 28.2036 34.6034V35.3096H27.4974C26.9438 35.3096 26.7246 35.3436 26.4828 35.4669C26.1362 35.6438 25.8599 36.0939 25.8599 36.4815C25.8599 36.8692 26.1362 37.3192 26.4828 37.4961C26.7246 37.6194 26.9438 37.6534 27.4974 37.6534H28.2036V38.3596C28.2036 38.9132 28.2376 39.1325 28.3609 39.3742C28.5378 39.7208 28.9878 39.9971 29.3755 39.9971C29.7631 39.9971 30.2132 39.7208 30.3901 39.3742C30.5134 39.1325 30.5474 38.9132 30.5474 38.3596V37.6534H31.2536C31.8072 37.6534 32.0264 37.6194 32.2681 37.4961C32.6148 37.3192 32.8911 36.8692 32.8911 36.4815C32.8911 36.0939 32.6148 35.6438 32.2681 35.4669C32.0264 35.3436 31.8072 35.3096 31.2536 35.3096H30.5474V34.6034C30.5474 33.7332 30.3908 33.3611 29.9244 33.1232C29.5395 32.9268 29.1869 32.928 28.8099 33.127Z" fill="#00BEF2"/>
</svg>
