<svg width="40" height="40" viewBox="0 0 40 40" fill="none" xmlns="http://www.w3.org/2000/svg">
<path fill-rule="evenodd" clip-rule="evenodd" d="M19.0266 1.75695C18.4016 1.9247 18.0047 2.11036 17.554 2.44595C17.3381 2.6067 14.164 5.65845 10.5005 9.22753C2.90503 16.6274 3.38399 16.0751 3.38991 17.4279C3.39279 18.0792 3.42343 18.2431 3.62287 18.6728C3.90303 19.2764 4.37343 19.7814 4.90663 20.0505C5.24239 20.2201 5.45751 20.2579 6.24663 20.2865L7.18663 20.3205V22.9191V25.5177L8.40663 26.1154C9.90039 26.8472 10.4507 27.0068 11.2666 26.9444C12.0019 26.8883 12.5281 26.7032 13.8466 26.0369L14.8666 25.5216V23.3464C14.8666 21.6872 14.8949 21.0581 14.986 20.694C15.3473 19.2489 16.4101 18.1383 17.79 17.7639C18.4574 17.5828 21.5158 17.5828 22.1833 17.7639C23.5631 18.1383 24.6259 19.2489 24.9873 20.694C25.0783 21.0582 25.1066 21.6875 25.1066 23.349V25.5268L26.2066 26.0734C27.8102 26.8702 27.9677 26.9187 28.9466 26.9168C29.9149 26.9149 30.0837 26.862 31.7266 26.0459L32.7866 25.5194V22.9199V20.3205L33.7266 20.2904C34.6293 20.2616 34.6873 20.2486 35.1866 19.9626C36.457 19.235 36.9813 17.5218 36.3469 16.171C36.1541 15.7604 35.3598 14.9573 29.4872 9.23395C25.8343 5.67403 22.6311 2.6042 22.3689 2.41228C22.1069 2.22028 21.6706 1.9837 21.3995 1.88653C20.7608 1.65753 19.6279 1.59561 19.0266 1.75695ZM1.54263 27.0806C0.771349 27.4502 0.554629 28.5104 1.11455 29.1746C1.40471 29.5189 1.65831 29.6065 2.54663 29.6697C3.52575 29.7393 4.25247 29.9773 5.74663 30.7178C8.43423 32.0497 9.11863 32.2507 10.9866 32.2569C12.8723 32.2633 13.6113 32.0575 16.0666 30.8422C18.1887 29.7919 18.9889 29.5738 20.3866 29.6648C21.457 29.7344 22.1329 29.9571 23.8266 30.7981C26.3502 32.0512 27.0826 32.2604 28.9466 32.2604C30.8109 32.2604 31.5439 32.0509 34.0666 30.7978C35.7414 29.9659 36.3921 29.7526 37.5723 29.649C38.4505 29.572 38.6505 29.4829 38.9817 29.0209C39.2129 28.6982 39.2129 27.9077 38.9817 27.585C38.6088 27.0649 38.4581 27.01 37.4396 27.0247C36.0032 27.0454 34.8616 27.3931 32.9246 28.3999C31.1687 29.3128 30.1277 29.637 28.9578 29.6356C27.7521 29.6342 26.9903 29.4009 25.0266 28.4314C22.5763 27.2218 21.8321 27.0122 19.9866 27.0122C18.1229 27.0122 17.3845 27.2229 14.8641 28.4734C13.181 29.3084 12.5 29.535 11.4514 29.6089C10.0567 29.7073 9.21607 29.4757 7.02663 28.3899C4.94631 27.3582 4.07383 27.0842 2.62663 27.0079C2.00055 26.9749 1.72447 26.9934 1.54263 27.0806ZM1.54263 33.7473C0.771349 34.1169 0.554629 35.177 1.11455 35.8413C1.40471 36.1855 1.65831 36.2732 2.54663 36.3364C3.52575 36.4059 4.25247 36.6439 5.74663 37.3844C8.43423 38.7164 9.11863 38.9174 10.9866 38.9236C12.8723 38.9299 13.6113 38.7242 16.0666 37.5089C18.1887 36.4585 18.9889 36.2404 20.3866 36.3314C21.457 36.4011 22.1329 36.6238 23.8266 37.4648C26.3502 38.7179 27.0826 38.927 28.9466 38.927C30.8109 38.927 31.5439 38.7176 34.0666 37.4644C35.7414 36.6325 36.3921 36.4193 37.5723 36.3157C38.4505 36.2387 38.6505 36.1495 38.9817 35.6875C39.2129 35.3649 39.2129 34.5744 38.9817 34.2517C38.6088 33.7315 38.4581 33.6767 37.4396 33.6914C36.0032 33.712 34.8616 34.0598 32.9246 35.0666C31.1687 35.9794 30.1277 36.3037 28.9578 36.3023C27.7521 36.3009 26.9903 36.0675 25.0266 35.0981C22.5763 33.8884 21.8321 33.6789 19.9866 33.6789C18.1229 33.6789 17.3845 33.8895 14.8641 35.14C13.181 35.9751 12.5 36.2017 11.4514 36.2756C10.0567 36.3739 9.21607 36.1424 7.02663 35.0565C4.94631 34.0249 4.07383 33.7509 2.62663 33.6746C2.00055 33.6416 1.72447 33.6601 1.54263 33.7473Z" fill="#00BEF2"/>
</svg>
