<svg width="22" height="22" viewBox="0 0 22 22" fill="none" xmlns="http://www.w3.org/2000/svg">
<path fill-rule="evenodd" clip-rule="evenodd" d="M14.0977 3.21798C13.9416 3.29026 13.8017 3.43895 13.7423 3.59556C13.7116 3.67657 13.6973 4.98358 13.6973 7.71529V11.7164H13.2377H12.7781L12.7158 11.5373C11.8409 9.02113 10.5829 5.52638 10.4872 5.34642C10.2061 4.81724 9.6826 4.38541 9.0733 4.18025L8.74524 4.06978L7.01727 4.05592L5.2893 4.04201L5.09998 4.13878C4.99588 4.19201 4.86784 4.29998 4.8155 4.37875L4.72033 4.52196V6.97745V9.43294L3.48757 9.45076C2.1508 9.47011 2.05825 9.48381 1.55709 9.73677C1.01068 10.0125 0.526423 10.5733 0.328213 11.1598C0.234102 11.4382 0.2325 11.478 0.220025 13.8C0.207887 16.0645 0.210753 16.1685 0.292431 16.4341C0.496416 17.0975 1.08983 17.5325 1.79088 17.5325H2.04919L2.12526 17.7863C2.40388 18.7165 3.39907 19.398 4.38317 19.3324C5.31029 19.2706 6.13381 18.6356 6.3882 17.7863L6.46427 17.5325H7.40155H8.33887L8.40377 17.7537C8.61682 18.48 9.29098 19.1048 10.0561 19.2851C10.814 19.4638 11.7258 19.1722 12.2223 18.5922C12.4137 18.3687 12.6339 17.9751 12.7079 17.7244L12.7584 17.5536L17.06 17.5325C21.3225 17.5116 21.2203 17.5325 21.4781 17.4245C21.7358 17.3165 21.7549 17.1351 21.7756 16.9367C21.8007 16.6959 21.6569 16.4085 21.4521 16.2902C21.3082 16.207 21.2287 16.2046 18.1757 16.1933L15.0468 16.1818L15.0359 9.88508C15.0249 3.59973 15.0248 3.58823 14.938 3.47208C14.8902 3.40806 14.8016 3.31866 14.741 3.27344C14.6013 3.16917 14.2657 3.14022 14.0977 3.21798ZM16.6231 5.02135C16.5749 5.04474 16.5038 5.11748 16.465 5.18302C16.4021 5.2896 16.3947 5.5032 16.3947 7.20681C16.3947 9.28176 16.395 9.28526 16.6354 9.3948C16.7754 9.4586 21.4085 9.4586 21.5486 9.3948C21.7889 9.28526 21.7893 9.28176 21.7893 7.20681C21.7893 5.13185 21.7889 5.12835 21.5486 5.01882C21.4871 4.99083 21.1221 4.97309 20.6072 4.97309H19.7663V5.37516C19.7663 5.69193 19.7487 5.8117 19.6833 5.93987C19.4423 6.4124 18.7417 6.4124 18.5006 5.93987C18.4353 5.8117 18.4177 5.69193 18.4177 5.37516V4.97309L17.5642 4.97596C17.0825 4.97756 16.6726 4.99732 16.6231 5.02135ZM8.81722 5.53375C9.24281 5.74275 9.22266 5.69871 10.3313 8.8383C10.8845 10.405 11.3372 11.6935 11.3372 11.7016C11.3372 11.7097 10.3829 11.7164 9.21651 11.7164C6.87144 11.7164 6.8255 11.7119 6.48358 11.4511C6.38125 11.3731 6.25393 11.2178 6.1867 11.0892L6.06899 10.8639V8.12638V5.3889L7.32282 5.40226L8.57665 5.41562L8.81722 5.53375ZM16.6231 10.416C16.5749 10.4394 16.5038 10.5121 16.465 10.5777C16.4021 10.6842 16.3947 10.8978 16.3947 12.6014C16.3947 14.6764 16.395 14.6799 16.6354 14.7894C16.7754 14.8532 21.4085 14.8532 21.5486 14.7894C21.7889 14.6799 21.7893 14.6764 21.7893 12.6014C21.7893 10.5265 21.7889 10.523 21.5486 10.4135C21.4871 10.3855 21.1221 10.3677 20.6072 10.3677H19.7663V10.7698C19.7663 11.2452 19.6892 11.4422 19.444 11.5938C19.1183 11.7951 18.6732 11.6727 18.5006 11.3345C18.4353 11.2063 18.4177 11.0866 18.4177 10.7698V10.3677L17.5642 10.3706C17.0825 10.3722 16.6726 10.392 16.6231 10.416ZM4.69252 16.3207C5.18022 16.5904 5.29043 17.2643 4.91643 17.6902C4.38283 18.298 3.37167 17.919 3.37167 17.1114C3.37167 16.4022 4.07664 15.9803 4.69252 16.3207ZM10.78 16.2333C11.059 16.3036 11.3494 16.5997 11.4175 16.8835C11.5169 17.2978 11.3318 17.6965 10.9524 17.8855C10.5831 18.0696 10.2125 18.011 9.92447 17.723C9.63645 17.435 9.57782 17.0644 9.76191 16.695C9.88013 16.4578 10.0943 16.2823 10.3356 16.2251C10.5341 16.178 10.5624 16.1785 10.78 16.2333Z" fill="#00BEF2"/>
</svg>
