<svg width="40" height="40" viewBox="0 0 40 40" fill="none" xmlns="http://www.w3.org/2000/svg">
<path fill-rule="evenodd" clip-rule="evenodd" d="M20.745 0.0871328C20.4875 0.234809 11.2206 7.34944 11.1148 7.48063C10.9415 7.69558 10.9951 8.149 11.2186 8.35918C11.3968 8.52671 11.505 8.55171 12.1562 8.5757L12.8924 8.60273V14.6371V20.6714L13.094 20.8609L13.2956 21.0503H21.0185H28.7413L28.9429 20.8609L29.1445 20.6714V14.6371V8.60273L29.8807 8.5757C30.5319 8.55171 30.6401 8.52671 30.8183 8.35918C31.0636 8.12861 31.0968 7.64862 30.8824 7.43515C30.8069 7.35991 29.9279 6.67255 28.929 5.90753L27.113 4.51663V3.22537V1.9341L26.8846 1.70571C26.6301 1.45114 26.4307 1.42208 26.1029 1.59163C25.8101 1.74306 25.7847 1.83104 25.7847 2.69483C25.7847 3.09957 25.7653 3.43071 25.7414 3.43071C25.7176 3.43071 24.7419 2.69772 23.5732 1.80182C22.4044 0.905837 21.3714 0.132295 21.2775 0.0828353C21.066 -0.0288203 20.9454 -0.0278046 20.745 0.0871328ZM22.8937 16.87V19.6829H21.0185H19.1432V16.87V14.0571H21.0185H22.8937V16.87ZM27.3084 25.3143C26.6318 25.542 24.8496 26.4577 24.8479 26.5784C24.8475 26.6106 24.9142 26.637 24.9963 26.637C25.0784 26.637 25.4666 26.7419 25.859 26.8701L26.5726 27.1033L28.132 26.3228C28.9898 25.8935 29.6915 25.5102 29.6915 25.4709C29.6915 25.4316 29.573 25.3263 29.4283 25.2369C29.0195 24.9842 28.1997 25.0142 27.3084 25.3143ZM32.4262 25.7693C32.0934 25.8774 28.1083 27.8156 27.9843 27.9296C27.9693 27.9435 28.116 28.1207 28.3105 28.3237C28.5049 28.5266 28.76 28.8718 28.8772 29.0907C28.9944 29.3097 29.0981 29.4991 29.1077 29.5116C29.1172 29.5241 30.418 28.8226 31.9984 27.9525L34.8717 26.3707L34.5534 26.0882C34.0141 25.6096 33.2637 25.4971 32.4262 25.7693ZM0 33.3966V40L2.98868 39.9795L5.97737 39.9591L5.99737 33.3761L6.01729 26.7932H3.00869H0V33.3966ZM11.9311 27.1181C10.7309 27.2283 9.51104 27.7217 7.99389 28.7107L7.34474 29.1338V33.4003V37.6668L7.59868 37.5148C8.54287 36.9497 9.46987 36.482 9.64591 36.482C9.75983 36.482 10.3443 36.6057 10.9446 36.7569C17.2201 38.3373 22.6341 38.9463 24.9643 38.3342C25.2746 38.2527 26.8262 37.2012 32.5044 33.2246C36.4365 30.4708 39.7411 28.1468 39.8479 28.0603C40.0379 27.9063 40.0392 27.8974 39.9136 27.6339C39.7303 27.2495 39.3349 27.084 38.5007 27.0426C37.6701 27.0011 36.4075 27.1475 35.9814 27.3344C35.8095 27.4098 34.2976 28.2283 32.6216 29.1532C30.9456 30.0782 29.4225 30.9121 29.2369 31.0062C28.829 31.2132 17.4137 33.4687 17.1319 33.3979C16.717 33.2938 16.5139 32.806 16.7228 32.4156C16.8759 32.1295 16.2716 32.2657 24.5345 30.6552C26.1891 30.3327 27.605 30.05 27.6812 30.027C27.8105 29.988 27.8083 29.9649 27.649 29.6814C27.2938 29.0494 26.4779 28.4853 25.4331 28.1494L24.808 27.9485L20.8966 27.9573L16.985 27.966L16.4038 27.7663C15.4937 27.4536 14.3182 27.1884 13.6346 27.1414C13.2908 27.1178 12.9217 27.0887 12.8142 27.0767C12.7068 27.0647 12.3094 27.0833 11.9311 27.1181Z" fill="#00BEF2"/>
</svg>
