<svg width="40" height="40" viewBox="0 0 40 40" fill="none" xmlns="http://www.w3.org/2000/svg">
<path fill-rule="evenodd" clip-rule="evenodd" d="M11.8744 2.96329C3.45804 6.17048 3.7321 6.0472 3.46421 6.74861C3.35663 7.03017 3.34585 7.93064 3.37023 14.6052C3.40015 22.8224 3.38499 22.5204 3.86999 24.5658C5.24257 30.3545 9.40031 35.2004 15.7073 38.362C17.3779 39.1994 19.4716 39.9955 20.0037 39.9955C20.5369 39.9955 22.6035 39.1973 24.4041 38.2959C28.2648 36.3631 31.5133 33.5704 33.6051 30.3861C34.6906 28.7335 35.6507 26.5027 36.11 24.5658C36.5938 22.5253 36.5791 22.82 36.6098 14.6062C36.6351 7.83111 36.6252 7.03517 36.5125 6.74001C36.2467 6.04415 36.4581 6.13908 28.0592 2.94408C22.0785 0.668998 20.2316 -0.00350193 19.9733 1.3696e-05C19.7287 0.00337307 17.5436 0.802904 11.8744 2.96329ZM26.4424 5.8954C30.0049 7.24978 33.0164 8.39665 33.1345 8.444L33.3494 8.53009V14.3295C33.3494 17.6046 33.3144 20.5676 33.2689 21.1365C33.0874 23.4084 32.6666 25.0123 31.7542 26.9095C30.8862 28.7146 30.0646 29.8539 28.5111 31.4067C26.3649 33.552 23.6543 35.251 20.5823 36.3767C19.9546 36.6067 19.9368 36.6038 18.5736 36.0479C14.5656 34.4137 11.1199 31.6787 9.10468 28.532C8.26929 27.2277 7.51015 25.4587 7.15117 23.9799C6.68413 22.056 6.68523 22.0752 6.65101 15.0271L6.6196 8.53533L7.5821 8.16853C11.1994 6.78994 19.9522 3.44572 19.958 3.44001C19.962 3.43611 22.88 4.54111 26.4424 5.8954ZM19.5603 10.0649C15.5856 11.7935 8.95929 14.741 8.8082 14.8476C8.1921 15.2824 8.2089 16.4138 8.83757 16.8258C8.93835 16.8918 11.4196 18.0011 14.3514 19.291C18.4373 21.0885 19.7552 21.6361 19.9951 21.6361C20.2346 21.6361 21.5225 21.1026 25.4811 19.3636C28.3262 18.1138 30.7934 17.0151 30.9635 16.9222C31.1337 16.8293 31.3535 16.6338 31.4518 16.4878C31.7789 16.0022 31.6363 15.177 31.1677 14.8433C31.0525 14.7613 28.5871 13.6498 25.689 12.3733C20.3921 10.0402 19.9768 9.88369 19.5603 10.0649ZM11.6306 21.4692C11.6306 22.6959 11.9291 23.5027 12.6144 24.1292C13.4601 24.902 16.136 26.0842 17.8806 26.4556C18.8182 26.6552 21.1618 26.6552 22.0994 26.4556C24.0357 26.0434 26.7626 24.7983 27.5432 23.9701C27.8677 23.6257 28.1752 23.0019 28.272 22.4915C28.3464 22.0994 28.3819 20.8549 28.3187 20.8549C28.3019 20.8549 26.7286 21.5424 24.8226 22.3826C22.9166 23.2228 21.1652 23.9611 20.9306 24.0232C20.4367 24.1539 19.6335 24.1672 19.1373 24.0527C18.9475 24.0091 17.1974 23.2717 15.2482 22.4141C13.299 21.5565 11.6876 20.8549 11.6673 20.8549C11.6472 20.8549 11.6306 21.1313 11.6306 21.4692Z" fill="#00BEF2"/>
</svg>
