<svg width="8" height="10" viewBox="0 0 8 10" fill="none" xmlns="http://www.w3.org/2000/svg">
<path fill-rule="evenodd" clip-rule="evenodd" d="M3.7496 0.00471446C3.30229 0.0558668 3.04598 0.111199 2.75819 0.218699C1.99161 0.505046 1.35178 1.03081 0.91614 1.73237C0.505632 2.39341 0.316042 3.25046 0.410632 4.01743C0.562507 5.24887 1.44096 6.9493 2.89757 8.83138C3.24206 9.27651 3.68491 9.80954 3.78641 9.90124C3.92061 10.0225 4.08639 10.0225 4.22059 9.90124C4.3221 9.80954 4.76495 9.27651 5.10944 8.83138C6.42042 7.13747 7.26071 5.59854 7.52661 4.4046C7.59503 4.09733 7.61682 3.89694 7.61653 3.57798C7.61567 2.63954 7.23958 1.74321 6.56296 1.06696C6.00362 0.507937 5.34448 0.169324 4.56991 0.0430738C4.38649 0.0131715 3.88194 -0.0104223 3.7496 0.00471446ZM4.23159 1.81108C4.9605 1.90995 5.56409 2.43339 5.76175 3.13802C5.81385 3.3238 5.83356 3.69731 5.8019 3.89964C5.71149 4.47766 5.33161 4.98602 4.79452 5.24774C4.47776 5.40208 4.15479 5.46022 3.82284 5.42262C3.56538 5.39346 3.43473 5.35604 3.21249 5.24774C2.6754 4.98602 2.29551 4.47766 2.2051 3.89964C2.17344 3.69731 2.19315 3.3238 2.24526 3.13802C2.4895 2.26731 3.3512 1.69167 4.23159 1.81108Z" fill="#464A4B"/>
</svg>
