<svg width="41" height="40" viewBox="0 0 41 40" fill="none" xmlns="http://www.w3.org/2000/svg">
<path fill-rule="evenodd" clip-rule="evenodd" d="M10.2246 2.1532C9.89935 2.28707 9.59922 2.57519 9.45545 2.89172C9.31524 3.20064 9.29791 3.47532 9.29622 5.41587L9.29436 7.59329L5.8015 9.92174C3.37715 11.5378 2.30829 12.0196 2.15524 12.5098C2.15524 12.5098 1.88901 13.372 2.13258 13.8236C2.47207 14.4532 3.30104 14.7016 3.86831 14.4083C4.01562 14.3321 6.52404 12.6855 9.4426 10.7494C17.581 5.35016 17.9306 5.12403 18.0788 5.16411C18.1543 5.18458 21.291 7.24276 25.0491 9.73781C28.8073 12.2329 32.0007 14.3356 32.1456 14.4106C32.7083 14.7016 33.5707 14.4093 33.8768 13.8236C34.0614 13.4708 34.0484 12.8397 33.8497 12.4977C33.691 12.2246 33.1875 11.8835 22.1939 4.60157L18.4761 2.13899C18.4761 2.13899 18.1913 1.94152 17.9853 1.94512C17.785 1.94861 17.5127 2.14466 17.5127 2.14466L14.8187 3.93891C13.337 4.92572 12.0993 5.73307 12.0683 5.73307C12.0373 5.73307 11.9998 5.10779 11.985 4.34365C11.9559 2.83388 11.9227 2.72157 11.3885 2.32267C11.1653 2.15608 10.4653 2.05417 10.2246 2.1532ZM17.2013 8.09299C16.9688 8.23269 14.1337 10.1087 10.9011 12.262C5.99355 15.531 4.99922 16.2259 4.87524 16.473C4.73613 16.7502 4.7281 17.2996 4.74839 25.1411L4.77004 33.5132L4.97309 33.7979C5.0848 33.9545 5.33216 34.1535 5.52277 34.2401C5.84928 34.3883 6.18797 34.3975 11.3451 34.3993C14.3568 34.4003 16.8208 34.3776 16.8208 34.3488C16.8208 34.32 16.6893 34.08 16.5286 33.8154C15.8846 32.7554 15.3969 31.4044 15.1634 30.0346C14.9766 28.9392 15.038 26.8863 15.2871 25.8941C16.0021 23.046 17.5563 20.81 19.9097 19.2443C20.8681 18.6066 21.5455 18.2833 22.6736 17.925C23.8301 17.5576 24.5841 17.4501 25.954 17.4573C27.7416 17.4666 29.2211 17.8091 30.7174 18.56L31.2949 18.8497L31.2671 17.7206C31.2445 16.7962 31.2111 16.5484 31.0829 16.3533C30.9877 16.2082 28.5063 14.5076 24.7404 12.0068C18.6724 7.97705 18.5455 7.89815 18.0893 7.86889C17.6922 7.84335 17.5623 7.87616 17.2013 8.09299ZM24.6398 20.2318C21.4971 20.7203 18.9937 22.9346 18.0375 26.0713C17.8238 26.7723 17.8054 26.946 17.8042 28.2701C17.8027 29.9732 17.9289 30.5557 18.592 31.9064C19.708 34.1793 21.762 35.7665 24.2971 36.3146C25.2808 36.5274 26.8375 36.4885 27.8567 36.2258C28.6876 36.0116 29.8686 35.5061 30.3665 35.1515L30.6193 34.9715L33.0041 37.3469C35.7887 40.1204 35.9463 40.2224 36.8288 39.8215C37.5081 39.513 37.7843 38.5754 37.3841 37.9365C37.2878 37.7827 36.1645 36.6144 34.8879 35.3403L32.5668 33.0236L32.8124 32.6244C33.2362 31.9358 33.6436 30.9708 33.8368 30.1983C34.1014 29.1404 34.1007 27.3971 33.8352 26.3354C32.8067 22.221 28.8289 19.5807 24.6398 20.2318ZM26.9285 22.9401C28.8809 23.3137 30.4796 24.7206 31.1109 26.621C31.3725 27.4084 31.4295 28.6119 31.2445 29.4434C30.7948 31.4643 29.2085 33.1069 27.2225 33.6078C26.9152 33.6854 26.3371 33.7465 25.9117 33.7465C24.9979 33.7465 24.273 33.5766 23.417 33.1619C22.5402 32.7371 21.4705 31.6632 21.0292 30.7648C20.5752 29.8404 20.4318 29.1326 20.481 28.0587C20.5472 26.6139 21.011 25.515 21.9793 24.508C23.2717 23.164 25.0894 22.5882 26.9285 22.9401Z" fill="#00BEF2"/>
</svg>
