<svg width="40" height="40" viewBox="0 0 40 40" fill="none" xmlns="http://www.w3.org/2000/svg">
<path fill-rule="evenodd" clip-rule="evenodd" d="M7.29037 6.58533C3.29526 10.2176 0.0149804 13.2443 0.000843292 13.3111C-0.0239943 13.4287 1.26233 14.9919 1.38386 14.9919C1.41682 14.9919 1.89819 14.578 2.45352 14.0721C3.26144 13.3362 12.7118 4.75362 14.0253 3.56305C14.4777 3.15296 14.7868 3.15288 15.2393 3.56282C17.6819 5.77476 26.0285 13.3621 26.2413 13.5638L26.5251 13.8329L26.9833 13.5221C27.2354 13.3511 27.6964 13.0837 28.0079 12.9278C28.3194 12.7719 28.5742 12.633 28.5742 12.6192C28.5742 12.5587 14.7347 0.0170723 14.6493 2.72853e-05C14.597 -0.0103717 11.2855 2.95303 7.29037 6.58533ZM22.1388 2.9965C22.1127 3.06453 22.0922 3.4955 22.0931 3.95431L22.0948 4.78841L22.7061 5.33573C23.0422 5.63675 23.8498 6.36953 24.5007 6.96407L25.6843 8.0451V5.45895V2.87281H23.9352C22.4124 2.87281 22.18 2.88884 22.1388 2.9965ZM9.07079 9.97024L3.58746 14.9529L3.58418 21.3643C3.58105 27.5847 3.5855 27.7831 3.73312 28.0256C4.06086 28.5636 4.00837 28.5551 7.14751 28.5807L9.97986 28.6039L10.002 24.3585L10.0241 20.1133L10.2584 19.6894C10.5214 19.2136 11.0252 18.8018 11.5081 18.6679C11.7187 18.6095 12.7876 18.5888 14.7885 18.6045C17.5402 18.626 17.7787 18.6387 18.0614 18.7791C18.4753 18.9847 18.8749 19.4002 19.0747 19.8326C19.2363 20.1822 19.2411 20.2993 19.2626 24.3973L19.2847 28.6031L19.8851 28.5803L20.4854 28.5576L21.8782 26.9547C22.6444 26.0731 23.3551 25.2457 23.4576 25.1161L23.6441 24.8803L23.4174 24.2389C23.0366 23.162 22.9167 22.425 22.9178 21.1688C22.9188 19.9424 23.0449 19.1504 23.3971 18.1586C23.7103 17.2768 24.3474 16.1265 24.9144 15.4191L25.4415 14.7613L20.0871 9.89213C17.1422 7.21412 14.6926 5.015 14.6435 5.00531C14.5943 4.99553 12.0867 7.22976 9.07079 9.97024ZM30.2417 13.5834C26.4959 14.5664 24.0141 18.0702 24.3653 21.8798C24.4452 22.7467 24.6172 23.4559 24.923 24.179C25.2056 24.8474 25.2554 25.0923 25.149 25.2913C25.104 25.3755 23.0922 27.7281 20.6784 30.5194C18.2645 33.3107 16.1733 35.7528 16.0312 35.9463C15.2961 36.9474 15.4136 38.3363 16.3091 39.2327C17.1919 40.1165 18.5977 40.2549 19.5651 39.5535C19.7381 39.428 21.9498 36.9276 24.4799 33.9969C27.5193 30.4764 29.1443 28.6523 29.2689 28.621C29.3727 28.5949 29.7772 28.6579 30.1679 28.7611C30.7904 28.9253 31.0425 28.9478 32.2061 28.9426C33.7552 28.9356 34.2878 28.8232 35.5038 28.2465C37.1668 27.4579 38.5305 26.0691 39.2914 24.3892C39.6168 23.6707 39.8961 22.5196 39.9528 21.6629L40.0005 20.9451L39.7607 20.7051C39.5025 20.4466 39.1104 20.3843 38.8801 20.5653C38.8134 20.6177 38.0593 21.4698 37.2043 22.4589C36.3493 23.448 35.5955 24.3001 35.5291 24.3524C35.3913 24.4612 32.9127 24.4873 30.9195 24.4009C29.8445 24.3543 29.7051 24.332 29.526 24.1778C29.3395 24.0172 29.2984 23.8339 28.8796 21.2977C28.6337 19.8081 28.4519 18.5145 28.4758 18.4231C28.4997 18.3317 29.2387 17.4256 30.1181 16.4094C30.9974 15.3933 31.7829 14.4564 31.8636 14.3273C32.3521 13.546 31.6359 13.2175 30.2417 13.5834ZM11.7315 20.1101C11.3969 20.3448 11.3879 20.4701 11.4094 24.6091L11.43 28.5576H14.6323H17.8346L17.8577 24.6873C17.8732 22.0743 17.8532 20.7219 17.7961 20.5242C17.6455 20.0032 17.6011 19.996 14.5754 19.996C12.3511 19.996 11.8666 20.0154 11.7315 20.1101ZM20.1813 35.1218C20.3212 35.2618 20.3731 35.3986 20.3731 35.6275C20.3731 35.9016 20.3071 36.0183 19.8522 36.5498C18.8524 37.7177 18.7325 37.8228 18.4006 37.8228C17.8257 37.8228 17.5181 37.2098 17.8502 36.7261C18.0793 36.3923 19.2821 35.0206 19.3807 34.9805C19.639 34.8755 19.9987 34.9389 20.1813 35.1218Z" fill="#00BEF2"/>
</svg>
