<svg width="22" height="22" viewBox="0 0 22 22" fill="none" xmlns="http://www.w3.org/2000/svg">
<path fill-rule="evenodd" clip-rule="evenodd" d="M2.01914 1.04898C1.67119 1.13898 1.02616 1.41466 1.01234 2.11387C0.998521 2.81309 1.00128 11.1718 1.00128 11.1718C0.992639 18.222 1.03034 20.119 1.03803 20.4056C1.04571 20.6922 1.26072 20.8892 1.56418 20.9492C1.86763 21.0092 2.13302 20.9976 3.13653 20.9976H4.54794L4.55888 18.5855C4.55888 18.5855 4.584 16.8528 4.56979 16.1733C4.55558 15.4938 5.10288 15.1494 5.5862 15.1494C6.06953 15.1494 7.03263 15.1494 7.03263 15.1494C7.03263 15.1494 7.59414 15.1494 8.47907 15.1494C9.36399 15.1494 9.48127 15.6907 9.51472 16.349C9.54816 17.0072 9.55412 17.4515 9.55412 18.7779V20.9976H11.3136H13.0731L13.0631 12.2253C13.0631 12.2253 13.0587 3.93548 13.0529 3.45287C13.0472 2.97025 12.5395 2.67763 12.2725 2.54605C12.0315 2.42731 12.0679 2.43358 8.16633 1.83776C6.66125 1.60793 4.79934 1.32347 4.02878 1.20568C2.57211 0.982972 2.36708 0.958972 2.01914 1.04898ZM5.8645 4.48165C6.06114 4.57565 6.16595 4.74771 6.18385 5.0059C6.1964 5.18667 6.18303 5.24885 6.1075 5.36078C5.92736 5.62779 5.8274 5.65673 5.03476 5.67115C4.6056 5.67898 4.26486 5.66721 4.16916 5.64126C3.95935 5.58435 3.74681 5.34754 3.71033 5.13008C3.67523 4.92068 3.80791 4.6339 3.99895 4.50638C4.12585 4.42167 4.16741 4.41773 4.93128 4.41773C5.58792 4.41773 5.75465 4.42915 5.8645 4.48165ZM10.0627 4.50634C10.2498 4.63461 10.3419 4.77851 10.3641 4.97735C10.3897 5.20553 10.2737 5.44021 10.0733 5.56568C9.9307 5.65504 9.8974 5.65827 9.1241 5.65827C8.35081 5.65827 8.3175 5.65504 8.17489 5.56568C7.97454 5.44021 7.85855 5.20553 7.88408 4.97735C7.90632 4.77851 7.99838 4.63461 8.18548 4.50634C8.30921 4.42151 8.34909 4.41773 9.1241 4.41773C9.89912 4.41773 9.93899 4.42151 10.0627 4.50634ZM5.8645 7.00211C6.06114 7.09611 6.16595 7.26818 6.18385 7.52636C6.1964 7.70713 6.18303 7.76931 6.1075 7.88124C5.92736 8.14825 5.8274 8.1772 5.03476 8.19161C4.6056 8.19945 4.26486 8.18767 4.16916 8.16172C3.95935 8.10481 3.74681 7.86801 3.71033 7.65054C3.67523 7.44114 3.80791 7.15436 3.99895 7.02684C4.12585 6.94213 4.16741 6.93819 4.93128 6.93819C5.58792 6.93819 5.75465 6.94961 5.8645 7.00211ZM10.0627 7.0268C10.2498 7.15507 10.3419 7.29897 10.3641 7.49781C10.3897 7.72599 10.2737 7.96067 10.0733 8.08614C9.9307 8.1755 9.8974 8.17873 9.1241 8.17873C8.35081 8.17873 8.3175 8.1755 8.17489 8.08614C7.97454 7.96067 7.85855 7.72599 7.88408 7.49781C7.90632 7.29897 7.99838 7.15507 8.18548 7.0268C8.30921 6.94197 8.34909 6.93819 9.1241 6.93819C9.89912 6.93819 9.93899 6.94197 10.0627 7.0268ZM13.9325 14.8552V21L16.9133 20.989C16.9133 20.989 19.333 21.0077 19.8942 20.9779C20.4553 20.9482 20.9635 20.6726 20.9888 19.8752C21.014 19.0779 20.9888 15.4447 20.9888 15.4447V11.0142L20.8871 10.7958C20.7062 10.4074 20.3878 10.1163 20.0091 9.99303C19.8227 9.93242 14.0806 8.71059 13.9814 8.71047C13.9425 8.71039 13.9325 9.96558 13.9325 14.8552ZM5.8645 9.52257C6.06114 9.61658 6.16595 9.78864 6.18385 10.0468C6.1964 10.2276 6.18303 10.2898 6.1075 10.4017C5.92736 10.6687 5.8274 10.6977 5.03476 10.7121C4.6056 10.7199 4.26486 10.7081 4.16916 10.6822C3.95935 10.6253 3.74681 10.3885 3.71033 10.171C3.67523 9.9616 3.80791 9.67482 3.99895 9.5473C4.12585 9.46259 4.16741 9.45865 4.93128 9.45865C5.58792 9.45865 5.75465 9.47007 5.8645 9.52257ZM10.0627 9.54726C10.2498 9.67553 10.3419 9.81943 10.3641 10.0183C10.3897 10.2465 10.2737 10.4811 10.0733 10.6066C9.9307 10.696 9.8974 10.6992 9.1241 10.6992C8.35081 10.6992 8.3175 10.696 8.17489 10.6066C7.97454 10.4811 7.85855 10.2465 7.88408 10.0183C7.90632 9.81943 7.99838 9.67553 8.18548 9.54726C8.30921 9.46243 8.34909 9.45865 9.1241 9.45865C9.89912 9.45865 9.93899 9.46243 10.0627 9.54726ZM5.8645 12.043C6.06114 12.137 6.16595 12.3091 6.18385 12.5673C6.1964 12.748 6.20668 12.7882 6.10823 12.9536C6.00977 13.1191 5.8274 13.2181 5.03476 13.2325C4.6056 13.2404 4.26486 13.2286 4.16916 13.2026C3.95935 13.1457 3.74681 12.9089 3.71033 12.6915C3.67523 12.4821 3.80791 12.1953 3.99895 12.0678C4.12585 11.9831 4.16741 11.9791 4.93128 11.9791C5.58792 11.9791 5.75465 11.9905 5.8645 12.043ZM10.0627 12.0677C10.2498 12.196 10.3419 12.3399 10.3641 12.5387C10.3897 12.7669 10.2737 13.0016 10.0733 13.1271C9.9307 13.2164 9.8974 13.2197 9.1241 13.2197C8.35081 13.2197 8.3175 13.2164 8.17489 13.1271C7.97454 13.0016 7.85855 12.7669 7.88408 12.5387C7.90632 12.3399 7.99838 12.196 8.18548 12.0677C8.30921 11.9829 8.34909 11.9791 9.1241 11.9791C9.89912 11.9791 9.93899 11.9829 10.0627 12.0677ZM18.2178 12.2769C18.4229 12.4313 18.4868 12.5571 18.4868 12.8061C18.4868 13.0551 18.4712 13.193 18.2661 13.3475C18.1673 13.4219 18.0456 13.4176 17.3406 13.4292C16.4701 13.4436 16.3412 13.4206 16.1664 13.22C15.9619 12.9854 15.9552 12.6422 16.1506 12.4083C16.3324 12.1907 16.4094 12.1758 17.3015 12.1863C18.0489 12.195 18.1181 12.2019 18.2178 12.2769ZM18.2178 14.7974C18.4229 14.9518 18.4868 15.0776 18.4868 15.3266C18.4868 15.5756 18.4229 15.7014 18.2178 15.8558C18.119 15.9303 18.0456 15.9381 17.3406 15.9497C16.4701 15.9641 16.3412 15.9411 16.1664 15.7405C15.9619 15.5059 15.9552 15.1627 16.1506 14.9287C16.3324 14.7111 16.4094 14.6963 17.3015 14.7067C18.0489 14.7155 18.1181 14.7223 18.2178 14.7974ZM18.2178 17.3178C18.4229 17.4723 18.4868 17.598 18.4868 17.8471C18.4868 18.096 18.4229 18.2219 18.2178 18.3763C18.119 18.4507 18.0456 18.4585 17.3406 18.4702C16.4701 18.4845 16.3412 18.4615 16.1664 18.2609C15.9619 18.0263 15.9552 17.6832 16.1506 17.4492C16.3324 17.2316 16.4094 17.2167 17.3015 17.2272C18.0489 17.2359 18.1181 17.2428 18.2178 17.3178Z" fill="#00BEF2"/>
</svg>
