<svg width="22" height="22" viewBox="0 0 22 22" fill="none" xmlns="http://www.w3.org/2000/svg">
<path fill-rule="evenodd" clip-rule="evenodd" d="M5.65653 2.05976C5.03032 2.20346 4.57172 2.24135 4.22349 2.88431C3.87527 3.52726 4.03241 3.58754 4.05379 10.9986C4.05379 18.939 4.05313 18.5476 4.32965 19.0385C4.48622 19.3165 4.89883 19.635 5.19995 19.7794C5.66098 20.0005 5.62523 19.9988 9.75239 19.9994L13.5626 20L13.5742 17.632C13.5855 15.3118 13.5876 15.2618 13.6733 15.1531C13.7215 15.0921 13.8136 15.0049 13.8781 14.9593C13.993 14.8781 14.0458 14.8762 16.4977 14.8655L19 14.8545L18.9994 9.32C18.9987 3.31248 19.0068 3.5312 18.7669 3.0831C18.6143 2.79816 18.2757 2.38951 17.982 2.24135C17.4699 1.98305 17.6751 1.9982 11.505 2.00121C6.87543 2.0035 5.85738 2.01367 5.65653 2.05976ZM15.9687 4.67205C16.1915 4.82949 16.261 4.95792 16.261 5.21205C16.261 5.46617 16.1915 5.59461 15.9687 5.75205C15.8524 5.83427 15.8176 5.83499 11.6187 5.84684C8.72747 5.85504 7.33676 5.84532 7.23068 5.81622C6.79924 5.69792 6.63253 5.13955 6.92906 4.80606C7.14856 4.55921 6.90897 4.57082 11.5762 4.58042C15.8207 4.5891 15.8523 4.58979 15.9687 4.67205ZM15.9687 7.24386C16.1915 7.40131 16.261 7.52974 16.261 7.78387C16.261 8.03799 16.1915 8.16642 15.9687 8.32387C15.8524 8.40608 15.8176 8.40681 11.6187 8.41866C8.72747 8.42686 7.33676 8.41714 7.23068 8.38804C6.79924 8.26974 6.63253 7.71137 6.92906 7.37788C7.14856 7.13103 6.90897 7.14264 11.5762 7.15224C15.8207 7.16092 15.8523 7.16161 15.9687 7.24386ZM15.9687 9.81568C16.1915 9.97312 16.261 10.1016 16.261 10.3557C16.261 10.6098 16.1915 10.7382 15.9687 10.8957C15.8524 10.9779 15.8176 10.9786 11.6187 10.9905C8.72747 10.9987 7.33676 10.989 7.23068 10.9599C6.79924 10.8416 6.63253 10.2832 6.92906 9.9497C7.14856 9.70284 6.90897 9.71446 11.5762 9.72406C15.8207 9.73274 15.8523 9.73342 15.9687 9.81568ZM14.9234 18.0455V19.9488L15.1464 19.9113C15.4687 19.857 16.0641 19.6625 16.3974 19.5026C17.6766 18.8891 18.6539 17.6562 18.9097 16.3332L18.9466 16.1423H16.935H14.9234V18.0455Z" fill="#00BEF2"/>
</svg>
