<svg width="10" height="10" viewBox="0 0 10 10" fill="none" xmlns="http://www.w3.org/2000/svg">
<path d="M9.73776 7.33898L8.3393 5.94345C7.83985 5.44505 6.99078 5.64443 6.791 6.29234C6.64116 6.74092 6.14171 6.99012 5.6922 6.89042C4.6933 6.64122 3.34478 5.34537 3.09505 4.29873C2.94522 3.85014 3.24489 3.35174 3.6944 3.20224C4.34368 3.00288 4.54346 2.15559 4.04401 1.65719L2.64555 0.261662C2.24599 -0.0872205 1.64665 -0.0872205 1.29703 0.261662L0.348071 1.20863C-0.600887 2.20543 0.447962 4.84697 2.79538 7.18946C5.14281 9.53196 7.7899 10.6285 8.7888 9.63164L9.73776 8.68467C10.0874 8.28595 10.0874 7.68787 9.73776 7.33898Z" fill="#464A4B"/>
</svg>
