<svg width="40" height="40" viewBox="0 0 40 40" fill="none" xmlns="http://www.w3.org/2000/svg">
<path fill-rule="evenodd" clip-rule="evenodd" d="M25.2975 1.51852C22.8621 2.35087 20.7643 3.08626 20.6357 3.15274C20.507 3.21923 20.32 3.38844 20.2199 3.52876L20.0379 3.78383V8.00259C20.0379 12.6932 20.0385 12.7001 20.5928 14.3659C21.1741 16.1133 22.1495 17.6124 23.7489 19.2169C25.2612 20.7341 26.8683 21.9023 28.7461 22.8492C29.7769 23.3691 30.0535 23.4088 30.699 23.1295C31.7239 22.6862 33.5615 21.5476 34.7254 20.6348C35.5857 19.9601 37.2525 18.2307 37.8274 17.4165C38.8049 16.0316 39.481 14.5013 39.8121 12.9245C39.9464 12.285 39.9598 11.8391 39.9598 8.00259V3.78383L39.7778 3.52876C39.6778 3.38844 39.4852 3.21641 39.3498 3.14641C38.8693 2.8979 30.2187 -0.00514939 29.9742 6.86041e-06C29.8374 0.00289749 27.7328 0.686179 25.2975 1.51852ZM34.591 6.72719C35.0965 6.85446 35.6403 7.40173 35.7689 7.91259C35.8761 8.33829 35.8261 8.75087 35.6244 9.10469C35.5483 9.23821 34.4096 10.7172 33.0938 12.3913C30.4542 15.7498 30.4046 15.7984 29.6143 15.8046C29.3559 15.8066 29.0672 15.7538 28.9051 15.6747C28.7547 15.6013 27.911 14.926 27.0301 14.1739C25.3247 12.7178 24.9989 12.3263 24.9989 11.7332C24.9989 10.5071 26.2334 9.65384 27.3036 10.1402C27.4754 10.2184 27.9906 10.6043 28.4483 10.9979C28.9061 11.3915 29.3103 11.712 29.3468 11.71C29.3832 11.7081 30.2215 10.6695 31.2098 9.40219C32.9753 7.13813 33.2678 6.83134 33.7768 6.70993C34.1337 6.62485 34.1893 6.62602 34.591 6.72719ZM10.1551 13.4769C9.51089 13.6455 8.52824 14.1591 8.05949 14.5723C7.26621 15.2715 7.02277 15.7285 5.15722 20.0217L3.40144 24.062L2.98808 24.2953C2.02003 24.8416 0.856284 26.2192 0.437925 27.3139C0.0299558 28.3816 -0.00121601 28.7634 3.39936e-05 32.6774C0.000971494 35.6179 0.0229246 36.3763 0.119175 36.7844C0.579175 38.7359 2.5005 40.1364 4.48746 39.9684C6.79011 39.7738 8.34808 37.952 8.35667 35.444L8.35824 34.9948H18.3498H28.3414L28.375 35.8737C28.3995 36.5159 28.4543 36.878 28.5786 37.2183C29.2057 38.9359 30.9482 40.0908 32.7332 39.9719C34.4169 39.8597 35.8243 38.8074 36.4278 37.2095C36.5964 36.7632 36.601 36.6602 36.6227 32.7766C36.6439 29.0062 36.6368 28.7679 36.4871 28.1673C36.2786 27.3309 35.7332 26.2443 35.2186 25.6402C34.5544 24.8604 34.5366 24.8539 33.9846 25.1893C33.1828 25.6763 31.6059 26.3928 31.0447 26.5252C30.2444 26.7138 29.1085 26.643 28.3948 26.36C27.0752 25.8369 25.5446 24.9721 24.0856 23.9253L23.2894 23.3541H15.3551C10.3004 23.3541 7.42074 23.3267 7.42074 23.2786C7.42074 23.2371 7.98292 21.9118 8.66996 20.3334C9.67644 18.0216 9.97605 17.4056 10.2116 17.1645C10.7132 16.6507 10.8402 16.6354 14.5917 16.6354C17.2141 16.6354 17.8973 16.615 17.8634 16.5377C17.4899 15.6859 17.1572 14.6407 16.9187 13.569L16.8709 13.3541L13.7278 13.3593C11.2571 13.3634 10.4929 13.3885 10.1551 13.4769ZM10.9042 28.6068C11.0723 28.7242 11.2977 28.9502 11.4051 29.1089C11.5714 29.3544 11.6004 29.4865 11.6004 29.9957C11.6004 30.5209 11.5743 30.6314 11.3868 30.8998C11.2694 31.0681 11.0435 31.2936 10.885 31.401C10.5979 31.5955 10.5873 31.5964 8.52042 31.6209C6.23581 31.648 6.02332 31.6193 5.57121 31.2224C4.6705 30.4316 4.87105 29.0719 5.97542 28.4819C6.17699 28.3742 6.51691 28.3592 8.40417 28.3749L10.5985 28.3932L10.9042 28.6068ZM30.9042 28.6068C31.0723 28.7242 31.2977 28.9502 31.4051 29.1089C31.5714 29.3544 31.6004 29.4865 31.6004 29.9957C31.6004 30.5209 31.5743 30.6314 31.3868 30.8998C31.2694 31.0681 31.0436 31.2936 30.885 31.401C30.5979 31.5955 30.5873 31.5964 28.5204 31.6209C26.2358 31.648 26.0233 31.6193 25.5712 31.2224C24.6705 30.4316 24.8711 29.0719 25.9754 28.4819C26.177 28.3742 26.5169 28.3592 28.4042 28.3749L30.5985 28.3932L30.9042 28.6068Z" fill="#00BEF2"/>
</svg>
