<svg width="40" height="40" viewBox="0 0 40 40" fill="none" xmlns="http://www.w3.org/2000/svg">
<path fill-rule="evenodd" clip-rule="evenodd" d="M7.93177 0.13946C7.72765 0.234876 6.80132 1.10878 5.26224 2.65793C2.84793 5.08802 2.7372 5.2258 2.73556 5.80274C2.73376 6.39962 2.79019 6.46534 6.55774 10.2524C8.69861 12.4044 10.3268 13.9795 10.5106 14.0765C10.9018 14.2829 11.5026 14.294 11.8781 14.102C12.0285 14.0251 12.4772 13.6408 12.8751 13.2481L13.5986 12.5342L14.8674 13.803L16.1363 15.0718L13.8976 17.3187C12.6663 18.5544 11.6027 19.6779 11.534 19.8155C11.3768 20.1306 11.373 20.7939 11.5265 21.1175C11.5911 21.2534 12.2416 21.9616 12.9722 22.6912L14.3005 24.0178L13.2002 25.1202L12.0999 26.2224L11.4615 25.7931C8.27944 23.6534 4.14851 23.8351 1.14585 26.2469C0.364158 26.8747 0.0908832 27.2495 0.0280542 27.78C-0.0618912 28.5393 -0.0336807 28.5775 2.50917 31.132L4.84385 33.4775L2.57286 35.7426C1.32386 36.9884 0.233968 38.1383 0.150977 38.2977C0.0679084 38.4572 0 38.6959 0 38.8283C0 39.216 0.276401 39.6662 0.623132 39.8432C1.01042 40.0407 1.33191 40.0426 1.70279 39.8495C1.86221 39.7665 3.01227 38.6764 4.25846 37.427L6.52413 35.1554L8.82997 37.4579C11.1777 39.8023 11.4233 40.0009 11.9733 40C12.5011 39.9991 12.8359 39.8403 13.2915 39.3748C16.0972 36.5074 16.4845 31.9254 14.2073 28.5389L13.7781 27.9006L14.8803 26.8002L15.9826 25.6999L17.2711 26.9948C17.9797 27.7069 18.6901 28.3575 18.8495 28.4404C19.2064 28.6261 19.8404 28.6383 20.185 28.4664C20.3225 28.3977 21.4461 27.3342 22.6818 26.1029L24.9286 23.8642L26.1974 25.133L27.4663 26.4019L26.7523 27.1254C25.7933 28.0973 25.6209 28.4681 25.7947 29.1861C25.8824 29.5487 26.0739 29.7555 29.5661 33.2594C31.5895 35.2897 33.3625 37.0065 33.506 37.0745C33.8909 37.2572 34.2295 37.2918 34.6213 37.1883C34.9308 37.1067 35.2375 36.8306 37.3425 34.7388C38.8912 33.1998 39.7657 32.2727 39.861 32.0687C40.0471 31.6705 40.0469 31.2162 39.8608 30.8184C39.7625 30.6085 38.4986 29.2948 36.0138 26.82C32.8655 23.6842 32.2665 23.1216 32.0006 23.0499C31.2483 22.8471 30.923 22.9872 29.9457 23.9349L29.141 24.7152L27.8753 23.4494L26.6095 22.1836L28.4841 20.3077L30.3588 18.4318L25.9638 14.0367L21.5687 9.64164L19.6927 11.5164L17.8169 13.391L16.5511 12.1252L15.2853 10.8595L16.0655 10.0548C17.0133 9.07751 17.1534 8.75219 16.9505 7.99988C16.8789 7.73395 16.3162 7.13497 13.1805 3.98664C10.7056 1.50185 9.392 0.237924 9.1821 0.139695C8.78426 -0.0464477 8.32992 -0.046604 7.93177 0.13946ZM27.1778 8.64458L25.5515 10.2661L27.6444 12.3574L29.7373 14.4488L31.3574 12.8221C32.2484 11.9274 32.9774 11.1453 32.9774 11.0841C32.9774 10.9384 29.0615 7.02306 28.9159 7.02306C28.8544 7.02306 28.0723 7.75279 27.1778 8.64458Z" fill="#00BEF2"/>
</svg>
