<svg width="41" height="40" viewBox="0 0 41 40" fill="none" xmlns="http://www.w3.org/2000/svg">
<path fill-rule="evenodd" clip-rule="evenodd" d="M6.91427 0.111529C3.03415 0.812564 0.190215 4.04536 0.00899499 7.96097C-0.173163 11.8964 2.42794 15.3911 6.30212 16.4162C7.16819 16.6452 8.86734 16.6996 9.78009 16.5275C10.9026 16.3157 11.9725 15.8825 12.8438 15.2871L13.2347 15.0199L15.6973 17.4655C18.3567 20.1063 18.3404 20.0942 19.0357 19.9637C19.4205 19.8915 19.8881 19.4239 19.9603 19.0391C20.0908 18.3438 20.1029 18.3601 17.4621 15.7007L15.0165 13.2381L15.2837 12.8472C15.8791 11.9759 16.3123 10.906 16.5241 9.78349C16.6962 8.87075 16.6418 7.1716 16.4128 6.30553C16.017 4.80988 15.3139 3.58457 14.2163 2.47786C13.1859 1.43894 12.2053 0.828747 10.8502 0.383281C9.68878 0.00137455 8.1223 -0.106748 6.91427 0.111529ZM9.95115 2.72514C11.8921 3.32666 13.3478 4.79143 13.9503 6.74919C14.0632 7.11625 14.094 7.46485 14.0917 8.35187C14.0891 9.37024 14.0674 9.54903 13.8787 10.1109C13.5728 11.0217 13.1647 11.6643 12.4138 12.4176C11.6655 13.1682 11.0281 13.5729 10.1075 13.8821C9.54563 14.0709 9.36683 14.0925 8.34847 14.0951C7.46145 14.0974 7.11284 14.0666 6.74579 13.9537C4.33818 13.2128 2.67046 11.1458 2.51034 8.70415C2.32029 5.80612 4.31097 3.2011 7.17562 2.59912C7.90034 2.44683 9.25105 2.5082 9.95115 2.72514ZM22.9547 16.9613C23.4715 18.1728 23.4301 19.5819 22.8424 20.7802C22.3131 21.8595 21.1449 22.828 19.9581 23.1715C19.334 23.3522 18.1607 23.3525 17.5345 23.1723C16.5726 22.8953 16.1575 22.5861 14.3683 20.8138L12.6874 19.1488L12.0389 19.3785C10.8185 19.8107 9.94763 19.9478 8.38756 19.9531C6.58365 19.9592 5.4606 19.7528 3.95072 19.1376C3.6391 19.0105 3.37532 18.9065 3.36453 18.9063C3.35374 18.9062 3.34499 22.6974 3.34499 27.3312C3.34499 35.3851 3.3514 35.7682 3.48993 36.0286C3.56968 36.1784 3.77193 36.3796 3.93946 36.4757C4.21856 36.6356 4.346 36.6503 5.4613 36.6516L6.67856 36.6528L6.6845 35.8124C6.69599 34.192 7.21448 32.9394 8.34636 31.798C9.26708 30.8696 10.1552 30.3745 11.3355 30.1316C13.3291 29.7213 15.3073 30.3624 16.737 31.8823C17.7841 32.9953 18.2885 34.264 18.2995 35.8124L18.3054 36.6528H21.2115C24.0965 36.6528 24.1194 36.6516 24.376 36.4769C24.5182 36.3801 24.7081 36.2017 24.798 36.0803C24.9615 35.8597 24.9616 35.8543 24.9821 26.7841C25.0026 17.7266 25.0023 17.7079 24.8397 17.3721C24.5984 16.8735 24.2562 16.6951 23.4612 16.6533L22.8088 16.6191L22.9547 16.9613ZM27.3777 22.7294C27.1803 22.819 26.9853 22.9908 26.8696 23.1772L26.6815 23.4796L26.6665 29.4603C26.6516 35.411 26.6522 35.4377 26.7933 34.7738C27.3066 32.3581 29.0309 30.611 31.3806 30.1256C33.3394 29.721 35.3304 30.3723 36.751 31.8823C37.798 32.9953 38.3024 34.264 38.3134 35.8124L38.3193 36.6528H38.7237C39.1705 36.6528 39.5214 36.4676 39.8085 36.0804C39.9664 35.8673 39.9728 35.7604 39.996 32.9532C40.0219 29.8217 39.9787 29.2359 39.6432 28.1722C38.9842 26.0823 37.5568 24.4076 35.594 23.4213C34.8876 23.0663 33.9477 22.7717 33.1811 22.6651C32.8465 22.6186 31.4759 22.5813 30.1353 22.5822C27.9282 22.5838 27.6676 22.5977 27.3777 22.7294ZM11.8968 31.7254C10.2115 31.9809 8.88564 33.1917 8.45636 34.8673C8.28897 35.5207 8.34104 36.6024 8.57042 37.2361C9.19124 38.9513 10.9399 40.1106 12.7265 39.9916C14.8666 39.849 16.5038 38.2122 16.6172 36.1017C16.661 35.2858 16.5531 34.7304 16.2135 34.0244C15.4409 32.4185 13.6427 31.4608 11.8968 31.7254ZM31.9107 31.7254C30.2254 31.9809 28.8996 33.1917 28.4703 34.8673C28.3029 35.5207 28.355 36.6024 28.5843 37.2361C29.2052 38.9513 30.9538 40.1106 32.7404 39.9916C34.8805 39.849 36.5178 38.2122 36.6311 36.1017C36.675 35.2858 36.567 34.7304 36.2274 34.0244C35.4548 32.4185 33.6566 31.4608 31.9107 31.7254Z" fill="#00BEF2"/>
</svg>
