<svg width="41" height="41" viewBox="0 0 41 41" fill="none" xmlns="http://www.w3.org/2000/svg">
<path fill-rule="evenodd" clip-rule="evenodd" d="M2.20847 0.0586178C1.3965 0.251284 0.59602 0.924952 0.218924 1.7329L0 2.20186V17.4823V32.7627L0.218767 33.2317C0.505948 33.8472 1.10815 34.4518 1.71191 34.7307L2.18924 34.9512L10.4632 34.9725C17.1421 34.9897 18.726 34.9746 18.6791 34.8943C18.6471 34.8396 18.5182 34.6432 18.3926 34.4578C18.0933 34.0162 17.4524 32.6628 17.2381 32.0202C15.8835 27.9577 16.889 23.4452 19.8444 20.3241C21.8476 18.2085 24.437 16.9623 27.3826 16.6961C28.8509 16.5634 30.5884 16.7694 32.0176 17.2457C32.6604 17.4599 34.0143 18.1006 34.456 18.3997C34.6415 18.5254 34.838 18.6542 34.8927 18.6862C34.973 18.733 34.9881 17.1497 34.9709 10.4731L34.9496 2.20186L34.7053 1.69382C34.3936 1.04579 33.912 0.563927 33.2686 0.256286L32.7604 0.0133627L17.6312 0.0011696C9.00121 -0.00578671 2.37587 0.0189121 2.20847 0.0586178ZM24.9627 8.33178C24.942 14.1083 24.9395 14.1911 24.7805 14.4039C24.3959 14.9188 23.7849 15.1094 23.2583 14.8788C23.109 14.8135 21.7602 13.614 20.2609 12.2132C18.7615 10.8124 17.5098 9.66622 17.4791 9.66622C17.4484 9.66622 16.1947 10.8092 14.693 12.2061C13.1913 13.603 11.8433 14.8029 11.6974 14.8724C11.1861 15.1164 10.5574 14.9238 10.1692 14.4039C10.0101 14.1911 10.0076 14.1083 9.98691 8.33178L9.96596 4.47543H17.4748H24.9837L24.9627 8.33178Z" fill="#00BEF2"/>
<path fill-rule="evenodd" clip-rule="evenodd" d="M26.9143 20.1115C23.0341 20.8126 20.1902 24.0454 20.009 27.961C19.8268 31.8964 22.4279 35.3911 26.3021 36.4162C27.1682 36.6452 28.8673 36.6996 29.7801 36.5275C30.9026 36.3157 31.9725 35.8825 32.8438 35.2871L33.2347 35.0199L35.6973 37.4655C38.3567 40.1063 38.3404 40.0942 39.0357 39.9637C39.4205 39.8915 39.8881 39.4239 39.9603 39.0391C40.0908 38.3438 40.1029 38.3601 37.4621 35.7007L35.0165 33.2381L35.2837 32.8472C35.8791 31.9759 36.3123 30.906 36.5241 29.7835C36.6962 28.8707 36.6418 27.1716 36.4128 26.3055C36.017 24.8099 35.3139 23.5846 34.2163 22.4779C33.1859 21.4389 32.2053 20.8287 30.8502 20.3833C29.6888 20.0014 28.1223 19.8933 26.9143 20.1115ZM29.9511 22.7251C31.8921 23.3267 33.3478 24.7914 33.9503 26.7492C34.0632 27.1162 34.094 27.4648 34.0917 28.3519C34.0891 29.3702 34.0674 29.549 33.8787 30.1109C33.5728 31.0217 33.1647 31.6643 32.4138 32.4176C31.6655 33.1682 31.0281 33.5729 30.1075 33.8821C29.5456 34.0708 29.3668 34.0925 28.3485 34.0951C27.4614 34.0974 27.1128 34.0666 26.7458 33.9537C24.3382 33.2128 22.6705 31.1458 22.5103 28.7041C22.3203 25.8061 24.311 23.2011 27.1756 22.5991C27.9003 22.4468 29.251 22.5082 29.9511 22.7251Z" fill="#00BEF2"/>
</svg>
