<svg width="56" height="56" viewBox="0 0 56 56" fill="none" xmlns="http://www.w3.org/2000/svg">
<path fill-rule="evenodd" clip-rule="evenodd" d="M26.6232 2.80768C24.7174 3.58608 23.6098 3.81792 21.4862 3.88322C20.0342 3.9278 19.3662 3.898 18.4745 3.74882C16.2843 3.38258 16.079 3.58877 15.6344 6.60034C14.8717 11.7675 15.4092 17.0455 17.1057 21.0483C19.021 25.5675 22.4653 28.8437 26.8088 30.2776C27.8998 30.6378 28.091 30.6382 29.1897 30.2835C35.3246 28.303 39.4585 22.6926 40.492 14.9443C40.7083 13.3234 40.7378 9.73679 40.5487 8.05634C40.3183 6.00831 40.0159 4.45666 39.7867 4.14676C39.3628 3.57365 39.0689 3.51608 37.6325 3.72552C34.5678 4.17207 31.8879 3.85645 29.1467 2.72592C28.6377 2.51604 28.1085 2.34781 27.9707 2.35207C27.8328 2.35632 27.2264 2.5614 26.6232 2.80768ZM32.9877 12.7638C33.3751 13.1278 33.5346 13.6797 33.3842 14.1356C33.2403 14.5715 27.4242 20.4179 27.0103 20.5427C26.3283 20.7483 26.0007 20.5421 24.2855 18.8268C22.9296 17.4709 22.6295 17.1119 22.5659 16.7692C22.3977 15.862 23.2547 14.9956 24.1536 15.1643C24.4553 15.2209 24.8128 15.4901 25.6102 16.2615L26.6668 17.2837L29.0414 14.9224C30.3474 13.6236 31.4916 12.5316 31.584 12.4956C31.9327 12.3598 32.7173 12.5098 32.9877 12.7638ZM19.1604 33.0421C18.4601 33.1795 17.6211 33.4652 16.968 33.7887C16.04 34.2483 3.58401 41.4577 3.58401 41.5352C3.58401 41.5908 8.35947 49.9361 8.43921 50.0199C8.44952 50.0307 13.2959 50.785 19.2089 51.6961C29.5882 53.2955 30.0181 53.3525 31.64 53.3459C33.0827 53.34 33.4755 53.2975 34.4206 53.046C35.026 52.8848 35.8072 52.6229 36.1566 52.4641C36.5061 52.3054 40.0638 50.4765 44.0626 48.3999C48.8516 45.913 51.4648 44.4945 51.719 44.2441C52.9725 43.0092 52.5548 40.8266 50.9356 40.1503C50.1236 39.8111 49.6781 39.8986 44.6236 41.39L39.7992 42.8134L39.4199 43.5509C38.8897 44.5816 37.9579 45.4857 36.9164 45.9803C35.4852 46.6601 35.1382 46.672 30.464 46.2035C25.0418 45.66 25.1168 45.6731 24.668 45.1886C24.3815 44.8793 24.304 44.6987 24.304 44.3404C24.304 43.4231 24.8515 42.8883 25.7904 42.8883C26.0596 42.8883 27.9899 43.0647 30.08 43.2803C34.428 43.7289 34.9395 43.7459 35.56 43.4633C36.137 43.2006 36.7628 42.5031 37.0158 41.8406C37.4014 40.8308 37.0083 39.4646 36.1456 38.8162C35.5881 38.3975 23.4927 33.2627 22.6354 33.0809C21.8262 32.9095 19.9439 32.8884 19.1604 33.0421Z" fill="#00BEF2"/>
</svg>
