<svg width="40" height="40" viewBox="0 0 40 40" fill="none" xmlns="http://www.w3.org/2000/svg">
<path fill-rule="evenodd" clip-rule="evenodd" d="M6.77143 0.0819531C6.1865 0.180078 5.59923 0.507969 5.18193 0.969453C4.91482 1.26484 4.18969 2.50391 2.67653 5.25063C1.50534 7.37656 0.547029 9.14477 0.547029 9.17992C0.547029 9.24445 14.4612 9.16273 14.5261 9.09773C14.5455 9.07844 14.7291 7.17297 14.9341 4.86336C15.1393 2.55375 15.3225 0.514688 15.3414 0.332031L15.3757 0L11.2631 0.00921875C9.00112 0.0142188 6.97993 0.0469531 6.77143 0.0819531ZM17.8925 0.0567188C17.8907 0.09 18.0753 2.14742 18.3027 4.62891L18.7162 9.14062H25.7635H32.8108L31.2074 6.26953C30.3256 4.69047 29.3346 2.91063 29.0053 2.31438C28.3188 1.07172 27.8739 0.558438 27.2162 0.250312L26.7653 0.0390625L22.3305 0.0176562C19.8913 0.00585938 17.8942 0.0234375 17.8925 0.0567188ZM4.70835 11.6992L0 11.72L0.00812728 19.3952C0.0126598 23.6165 0.0399331 28.0723 0.0687693 29.2969C0.118783 31.4222 0.12949 31.5395 0.30321 31.875C0.550155 32.352 1.05194 32.8605 1.52387 33.112L1.9146 33.3203L11.2783 33.3411C20.1974 33.3609 20.6402 33.3553 20.6004 33.2239C20.0749 31.4845 20.0447 31.1371 20.0447 26.8359C20.0447 22.9996 20.0478 22.9197 20.221 22.3691C20.559 21.2945 21.4637 20.2152 22.4418 19.7197C22.8048 19.5358 29.9236 16.9898 30.6336 16.79C31.1245 16.6518 32.3798 16.6723 32.8608 16.8263C33.0757 16.8952 33.2779 16.9518 33.3101 16.9523C33.3819 16.9533 33.3872 13.7305 33.3174 12.5195L33.2667 11.6406L21.3417 11.6595C14.783 11.6699 7.29799 11.6878 4.70835 11.6992ZM31.1025 20.1302C26.256 21.8209 23.9456 22.6716 23.7799 22.8263C23.3609 23.2175 23.3659 23.1691 23.3659 26.8609C23.3659 29.6073 23.3901 30.4305 23.4869 30.9855C24.0114 33.9924 26.0372 36.7302 29.3051 38.8488C30.263 39.4698 31.3501 40 31.6655 40C32.4483 40 34.9789 38.3751 36.5216 36.8819C38.2576 35.2015 39.2992 33.4594 39.7954 31.4062C39.942 30.7995 39.9588 30.4352 39.99 27.1875C40.0128 24.8127 39.9966 23.5409 39.9413 23.3561C39.7721 22.7911 39.6657 22.7407 35.6504 21.3255C33.582 20.5965 31.7917 20.0016 31.6719 20.0038C31.5521 20.0058 31.2959 20.0627 31.1025 20.1302ZM36.0258 26.5506C36.5488 26.9347 36.7296 27.6514 36.436 28.1769C36.2401 28.5274 31.8464 33.0597 31.5475 33.2194C31.2017 33.4042 30.7941 33.3912 30.418 33.1836C29.9806 32.942 27.6245 30.186 27.4998 29.7701C27.3668 29.3263 27.469 28.9417 27.8198 28.5657C28.1167 28.2476 28.1305 28.2422 28.6548 28.2422C29.2993 28.2422 29.3588 28.2813 30.1647 29.2347C30.4871 29.616 30.8231 29.9966 30.9115 30.0805L31.0722 30.2332L32.7805 28.4564C33.7199 27.4792 34.6323 26.5978 34.8079 26.4978C35.1797 26.2859 35.6957 26.3083 36.0258 26.5506Z" fill="#00BEF2"/>
</svg>
