<svg width="40" height="41" viewBox="0 0 40 41" fill="none" xmlns="http://www.w3.org/2000/svg">
<path fill-rule="evenodd" clip-rule="evenodd" d="M26.6878 1.09255C25.2928 1.40529 24.1092 2.37118 23.5216 3.67654C23.4054 3.93448 22.9801 4.97666 22.5764 5.99242L21.8424 7.83931L21.5103 8.0155C21.057 8.25586 20.5045 8.86586 20.2519 9.40465L20.0424 9.8516V12.8219C20.0424 12.8219 20.0424 14.9202 20.0424 15.7922C20.0424 16.6641 20.7327 17.1695 21.25 17.4453C21.5322 17.5958 21.8808 17.5895 22.5051 17.5895C23.3371 17.5895 23.8206 17.3505 24.2188 17.0156C24.6169 16.6808 24.9561 15.9346 24.9937 15.0735L25.0256 14.3461H30.0105H34.9954L35.0272 15.0735C35.0649 15.9346 35.2063 16.606 35.7031 17.0547C36.278 17.574 36.668 17.6797 37.5 17.6797C38.1243 17.6797 38.3209 17.6839 38.8281 17.4453C39.3353 17.2067 39.9785 16.7813 39.9785 15.7922C39.9785 14.8031 39.9785 12.8219 39.9785 12.8219V9.8516L39.769 9.40465C39.5163 8.86562 38.9638 8.25585 38.5101 8.01518L38.1774 7.83876L37.3189 5.68234C36.8467 4.49634 36.3306 3.32464 36.1721 3.0785C35.6126 2.21023 34.8047 1.15627 33.255 1.01892C31.7053 0.881566 30.2059 1.00313 30.2059 1.00313C27.8876 0.99109 27.0444 1.01259 26.6878 1.09255ZM33.0936 3.6423C33.8137 3.91166 34.0726 4.28271 34.7811 6.06058L35.3886 7.58481L32.6996 7.60536C31.2206 7.6167 28.8004 7.6167 27.3214 7.60536L24.6323 7.58481L25.2405 6.06285C25.8403 4.562 26.1048 4.1052 26.5386 3.82099C27.0143 3.50934 27.2323 3.48808 29.988 3.48456C32.5028 3.48136 32.6886 3.49074 33.0936 3.6423ZM0.49715 21.0579C0.411151 21.0965 0.270425 21.2062 0.184426 21.3018C0.0304875 21.4728 0.0277511 21.6005 0.00742407 29.4335C-0.011183 36.611 -0.00101947 37.4037 0.110779 37.5155C0.218044 37.6227 0.531784 37.6394 2.44675 37.6394C4.52769 37.6394 4.67029 37.6302 4.85418 37.4857C4.96167 37.4012 5.0877 37.2341 5.1343 37.1144C5.18089 36.9947 6.04753 33.9719 7.06029 30.397C8.20712 26.3486 8.90098 23.7692 8.89988 23.5576C8.89754 23.0991 8.67246 22.6341 8.30579 22.3302C7.82779 21.9339 6.31835 21.5026 4.4062 21.2159C3.29431 21.0491 0.746547 20.9462 0.49715 21.0579ZM11.3627 24.2536C11.3387 24.3718 10.5524 27.1848 9.61547 30.5045L7.91199 36.5406L9.09088 37.0601C14.8646 39.6043 19.3223 41.0022 21.6551 41C24.0635 40.9978 28.9206 39.3578 33.9195 36.859C37.236 35.2011 39.6309 33.6159 39.9377 32.8756C40.0732 32.5485 39.9848 32.0577 39.7008 31.5605C39.308 30.8729 38.5811 30.4415 37.4767 30.2406C36.116 29.993 34.6113 30.3713 30.9877 31.8719C25.8351 34.0058 24.7432 34.3564 23.2513 34.3564C21.9887 34.3564 20.5384 33.9866 18.8379 33.2309C18.0267 32.8704 16.3039 31.9322 16.3565 31.8796C16.3717 31.8644 16.9083 31.9378 17.5487 32.0427C20.151 32.4692 21.3083 32.5854 23.0133 32.5917C24.4993 32.5972 24.7071 32.5813 25.2041 32.425C25.881 32.212 26.3503 31.8321 26.5356 31.347C26.731 30.8355 26.6632 29.9556 26.3929 29.4944C25.6717 28.2642 24.0048 27.5531 20.6545 27.0465L19.2606 26.8357L18.3224 26.3078C16.7009 25.3952 16.387 25.2351 15.6409 24.9402C14.7253 24.5785 13.6903 24.3146 12.5779 24.1595C11.4175 23.9977 11.4147 23.998 11.3627 24.2536Z" fill="#00BEF2"/>
</svg>
