<svg width="57" height="56" viewBox="0 0 57 56" fill="none" xmlns="http://www.w3.org/2000/svg">
<path fill-rule="evenodd" clip-rule="evenodd" d="M25.0643 3.95303C21.096 4.35411 16.7689 5.82947 13.3399 7.95058C12.3168 8.58342 10.536 9.88389 9.82877 10.5144L9.41358 10.8847L13.0678 14.5332L16.7219 18.1817L17.5299 17.5888C18.3741 16.9692 19.3249 16.378 20.1173 15.9798C21.6103 15.2296 24.1614 14.4504 25.6932 14.2766L26.3768 14.1992V9.01458C26.3768 4.14422 26.3652 3.83086 26.1854 3.84453C26.08 3.85252 25.5756 3.9013 25.0643 3.95303ZM29.658 9.01173V14.1955L30.2869 14.2712C33.1752 14.6198 36.354 15.9193 38.6658 17.6964L39.3064 18.189L42.9722 14.5231L46.638 10.8573L45.8316 10.1841C44.4497 9.03044 42.1466 7.55989 40.3221 6.6663C37.097 5.08681 34.1671 4.27634 30.2869 3.89058L29.658 3.82812V9.01173ZM6.31477 14.1013C4.54027 16.2288 2.67148 19.4959 1.67606 22.211C0.885063 24.3685 0.320359 26.9177 0.0722969 29.4511L0 30.1894H5.18306H10.3661L10.5068 29.1959C10.887 26.51 12.0482 23.6684 13.6524 21.499L14.3674 20.532L10.7099 16.8745L7.05239 13.2169L6.31477 14.1013ZM45.3146 16.8843L41.6677 20.5324L42.3825 21.4992C43.9799 23.6596 45.1536 26.5384 45.5351 29.2323L45.6706 30.1894H50.844C54.9232 30.1894 56.0174 30.1603 56.0174 30.052C56.0174 29.5002 55.6362 26.8588 55.407 25.8216C54.4952 21.6975 52.3277 17.2278 49.7281 14.111C49.3268 13.6299 48.9902 13.2362 48.98 13.2362C48.9698 13.2362 47.3203 14.8778 45.3146 16.8843ZM27.0877 26.7961C23.6422 27.5567 21.9091 31.053 23.4253 34.1848C24.0961 35.5706 26.2461 37.2763 33.1816 41.9251C35.0034 43.1461 37.5466 44.8196 38.8332 45.6438C40.9913 47.0264 41.2123 47.1425 41.6881 47.1425C42.8545 47.1425 43.6302 45.9905 43.1819 44.9241C42.8714 44.1854 36.519 34.6003 34.4678 31.7753C32.0265 28.4131 31.1058 27.4876 29.743 27.0256C28.9599 26.7601 27.7315 26.654 27.0877 26.7961ZM0.0722969 34.2089C0.719469 40.8168 3.27141 46.4997 7.66073 51.1072C8.60672 52.1003 9.02847 52.2923 9.77911 52.0718C10.1684 51.9574 10.6841 51.4971 12.9514 49.2405C16.5577 45.6513 16.5618 45.6403 14.9473 43.7973C12.4014 40.8909 10.8587 37.5617 10.4511 34.0936L10.3779 33.4706H5.18897H0L0.0722969 34.2089ZM45.5837 34.0936C45.397 35.6816 44.8818 37.5402 44.234 38.9632L43.8495 39.8072L44.9172 41.4572C45.5045 42.3647 46.1055 43.4055 46.2527 43.7701C46.7608 45.0278 46.684 46.5839 46.0529 47.821C45.7598 48.3957 44.7666 49.4473 44.2591 49.7207C44.0488 49.834 43.8768 49.9557 43.8768 49.9913C43.8768 50.0269 44.3077 50.4777 44.8343 50.9931C46.4564 52.5803 46.9928 52.5728 48.5301 50.9414C51.9851 47.2753 54.4497 42.5239 55.4749 37.5534C55.6621 36.6459 56.0174 34.0619 56.0174 33.608C56.0174 33.4997 54.9219 33.4706 50.8372 33.4706H45.6568L45.5837 34.0936Z" fill="#00BEF2"/>
</svg>
