<svg width="40" height="40" viewBox="0 0 40 40" fill="none" xmlns="http://www.w3.org/2000/svg">
<path fill-rule="evenodd" clip-rule="evenodd" d="M21.4846 0.111551C20.8268 0.276159 20.3344 0.557249 19.8383 1.05138C19.3275 1.56036 19.0187 2.12082 18.8764 2.7973C18.8174 3.07753 18.7897 4.84516 18.7905 8.26597C18.7917 13.8229 18.7992 13.9249 19.2644 14.738C19.3941 14.9648 19.6771 15.3235 19.8932 15.535C20.6426 16.2689 21.4487 16.5628 22.7119 16.5628H23.4767V18.4409C23.4767 20.169 23.4893 20.3436 23.634 20.6273C23.8109 20.9739 24.2609 21.2503 24.6486 21.2503C24.7809 21.2503 25.0196 21.1824 25.1791 21.0993C25.3384 21.0163 26.453 19.9617 27.6558 18.7556L29.8428 16.5628H33.3229C37.1068 16.5628 37.319 16.543 38.1041 16.1157C38.6031 15.8441 39.1833 15.2667 39.4823 14.7442C39.9514 13.9241 39.9585 13.8289 39.9597 8.26597C39.9605 4.78907 39.9332 3.08206 39.8723 2.7973C39.5843 1.45169 38.5023 0.369048 37.1641 0.0876455C36.5417 -0.0432903 22.0149 -0.0211031 21.4846 0.111551ZM32.2286 6.09522C32.5753 6.27209 32.8516 6.72217 32.8516 7.10982C32.8516 7.24216 32.7837 7.48083 32.7008 7.64028C32.5147 7.99754 29.0017 11.5 28.6564 11.6724C28.0296 11.9854 27.63 11.7874 26.4368 10.5724C25.324 9.4394 25.2734 9.36541 25.2741 8.86971C25.275 8.17918 25.718 7.73621 26.4085 7.73536C26.8675 7.73473 27.0049 7.81395 27.6766 8.46714L28.1657 8.94268L29.5516 7.56559C30.3139 6.80818 31.043 6.1335 31.1719 6.06631C31.4941 5.89843 31.8627 5.90858 32.2286 6.09522ZM9.37607 7.23958C7.53328 7.63434 5.86338 9.02737 5.1612 10.7555C4.84511 11.5334 4.69972 12.4308 4.75238 13.2787C4.80988 14.2046 4.96112 14.7822 5.35846 15.5927C6.18087 17.2705 7.83695 18.5239 9.63028 18.8258C9.86028 18.8646 9.11912 18.8916 7.67289 18.8973C5.88369 18.9044 5.20612 18.9351 4.74324 19.0303C2.53827 19.4835 0.873992 21.0074 0.183845 23.2053C0.00345698 23.7797 0.000488281 23.8436 0.000488281 27.1095C0.000488281 30.3725 0.00361324 30.4399 0.183455 31.0157C0.802977 32.9999 2.23241 34.4124 4.29731 35.0809C4.77691 35.2362 5.05089 35.2623 6.52384 35.293L8.2035 35.3279L8.93638 33.0742C9.33942 31.8346 9.68458 30.7781 9.7034 30.7264C9.72942 30.6548 9.22654 30.6267 7.60335 30.6092C4.52996 30.5759 4.72699 30.8157 4.72699 27.1095C4.72699 24.2415 4.74035 24.1529 5.22487 23.8072C5.5658 23.5641 6.23189 23.5641 6.57282 23.8072C7.0375 24.1387 7.07071 24.3117 7.07071 26.4002V28.2844L8.80115 28.2634L10.5315 28.2423L11.2035 26.2448C11.573 25.1461 11.9342 24.1583 12.0062 24.0495C12.3084 23.5926 12.2942 23.594 16.8371 23.594H20.9942L20.9445 23.3294C20.8623 22.891 20.5121 22.1038 20.1591 21.5639C19.2681 20.201 17.7993 19.2479 16.187 18.9862C15.9211 18.943 14.6839 18.9033 13.4378 18.8979C12.0206 18.8918 11.3108 18.8648 11.5423 18.8258C13.3356 18.5239 14.9917 17.2705 15.8141 15.5927C16.2114 14.7822 16.3627 14.2046 16.4202 13.2787C16.6267 9.95283 13.8824 7.08114 10.531 7.11622C10.1961 7.11966 9.67645 7.17521 9.37607 7.23958ZM13.7475 26.0353C13.6869 26.1956 9.10193 39.9582 9.10193 39.98C9.10193 39.991 11.0721 40 13.48 40C17.711 40 17.8684 39.9947 18.1658 39.843C18.3379 39.7552 18.5309 39.5752 18.6034 39.4348C18.7036 39.2412 19.258 37.6939 19.258 37.6082C19.258 37.5985 19.0734 37.5302 18.8479 37.4562C17.6938 37.0778 16.7444 36.0076 16.5219 34.8344C16.4176 34.2844 16.4253 31.5886 16.5327 31.0782C16.6766 30.394 16.9821 29.8412 17.4967 29.3337C18.3672 28.4752 19.1514 28.237 20.8733 28.3077C21.4673 28.3322 22.0373 28.3627 22.14 28.3754C22.3069 28.3962 22.3462 28.3411 22.5111 27.856C22.7396 27.1837 22.7411 26.9201 22.5185 26.5317C22.1678 25.9203 22.3066 25.9377 17.792 25.9377C14.6578 25.9377 13.7764 25.9589 13.7475 26.0353ZM19.3956 30.7822C18.8652 31.0696 18.7893 31.3431 18.7893 32.9688C18.7893 34.6234 18.8623 34.8748 19.427 35.1628C19.7156 35.3101 19.8553 35.3247 20.7345 35.3006C21.6236 35.2762 21.762 35.2524 22.1628 35.0555C22.9996 34.6446 23.4334 33.9337 23.436 32.9688C23.4374 32.4837 23.4002 32.3066 23.2197 31.939C22.9721 31.4349 22.5924 31.0674 22.0745 30.8307C21.7838 30.698 21.5336 30.6643 20.7033 30.6461C19.806 30.6266 19.6537 30.6425 19.3956 30.7822ZM2.39717 38.0559C2.42014 39.1516 2.43772 39.2794 2.59655 39.5021C2.9274 39.9659 3.12334 40.0055 4.96964 39.982L6.62735 39.9609L6.96703 38.9453C7.15391 38.3867 7.32633 37.8682 7.35023 37.793C7.39015 37.6676 7.30984 37.6563 6.37853 37.6563C5.8201 37.6563 5.08831 37.619 4.75214 37.5735C4.24582 37.505 3.12201 37.1741 2.51436 36.9147C2.37952 36.8572 2.37327 36.9179 2.39717 38.0559Z" fill="#00BEF2"/>
</svg>
