<svg width="57" height="56" viewBox="0 0 57 56" fill="none" xmlns="http://www.w3.org/2000/svg">
<path fill-rule="evenodd" clip-rule="evenodd" d="M16.2168 9.11584C15.7055 9.40535 15.3187 9.93626 15.2145 10.4918C15.1307 10.9375 15.4119 13.2056 15.7384 14.7178C16.2714 17.1863 16.4503 17.499 18.4968 19.5367C19.4066 20.4425 20.7786 21.7409 21.5456 22.4221L22.9401 23.6604V35.109V46.5576L23.2117 47.0987C23.659 47.9899 24.5475 48.3949 25.6153 48.1947C26.1133 48.1011 26.7448 47.55 27.0017 46.9844C27.1867 46.5773 27.2011 46.1097 27.2033 40.4483L27.2057 34.3506H27.8585H28.5113L28.5421 40.5577C28.5718 46.5384 28.5809 46.7782 28.7917 47.1359C28.912 47.3401 29.1995 47.66 29.4307 47.8468C29.8142 48.1568 29.9203 48.1866 30.6418 48.1866C31.5424 48.1866 31.9962 47.9596 32.4656 47.2748L32.7292 46.8901L32.7838 35.4479L32.8385 24.0057L34.4245 22.5944C35.2967 21.8182 36.7548 20.4422 37.6646 19.5364C39.7111 17.499 39.89 17.1864 40.423 14.7178C40.7495 13.2056 41.0307 10.9375 40.9469 10.4918C40.6436 8.87642 38.4907 8.28459 37.4438 9.52884C37.019 10.0336 36.9792 10.1713 36.7227 12.0286C36.598 12.9313 36.3979 14.053 36.2782 14.5212C36.0274 15.5019 35.9441 15.6002 33.2317 18.1209L31.6562 19.585H28.0807H24.5053L22.9297 18.1209C20.2173 15.6002 20.1341 15.5019 19.8833 14.5212C19.7635 14.053 19.5635 12.9313 19.4388 12.0286C19.1822 10.1713 19.1425 10.0336 18.7177 9.52884C18.1325 8.83332 17.0354 8.6522 16.2168 9.11584ZM27.3151 9.04332C26.0797 9.25496 25.2209 9.68371 24.4507 10.4733C21.7374 13.2547 23.2816 17.8605 27.1494 18.523C30.2475 19.0537 33.1052 16.1923 32.5888 13.0762C32.2906 11.2759 30.9642 9.72943 29.3067 9.2496C28.7152 9.07832 27.7153 8.97475 27.3151 9.04332ZM5.67492 18.169C4.74677 18.3561 3.92984 18.9975 3.45384 19.9131C3.07891 20.6342 3.08569 22.0451 3.46774 22.793C4.03484 23.903 5.09819 24.5421 6.37963 24.5429C9.00397 24.5444 10.4836 21.6276 8.96886 19.4388C8.29708 18.4679 6.88756 17.9247 5.67492 18.169ZM49.2193 18.1679C47.6963 18.4723 46.5651 19.822 46.5651 21.335C46.5651 22.5272 47.3498 23.7414 48.4711 24.2842C49.1813 24.6281 50.3302 24.6431 51.0628 24.3182C51.7431 24.0165 52.3665 23.4336 52.6937 22.793C53.0826 22.0315 53.0826 20.6385 52.6937 19.877C52.0476 18.6123 50.5881 17.8943 49.2193 18.1679ZM12.8776 18.2654C10.8677 18.879 9.75166 21.0923 10.4777 23.0247C10.7753 23.8172 11.5112 24.638 12.2738 25.0287C13.0656 25.4342 14.3336 25.4933 15.2031 25.1654C15.9216 24.8944 16.7766 24.1317 17.1229 23.4529C18.0995 21.5387 17.1792 19.1336 15.1794 18.3737C14.6078 18.1564 13.4178 18.1004 12.8776 18.2654ZM40.9537 18.3722C39.3559 19.0161 38.405 20.7029 38.7011 22.3682C38.8546 23.2307 39.148 23.7782 39.7942 24.4076C40.5502 25.144 41.3195 25.4174 42.4635 25.3565C43.5376 25.2992 44.2127 24.9869 44.9379 24.2114C46.5816 22.4542 46.0611 19.6373 43.8854 18.5156C43.1363 18.1294 41.7272 18.0605 40.9537 18.3722ZM3.28617 25.2142C3.073 25.3068 2.8548 25.529 2.72617 25.7841C2.28484 26.6591 0.186704 31.6057 0.124032 31.919C0.0369698 32.3545 0.349673 33.0019 0.746267 33.207C1.19241 33.4377 1.7512 33.4056 2.10274 33.129C2.26866 32.9985 2.54428 32.5959 2.71534 32.2343L3.0263 31.5768L3.05736 37.2616C3.09203 43.5757 3.0578 43.2892 3.83272 43.7617C4.45703 44.1423 5.19706 43.9679 5.64878 43.3335C5.86545 43.0291 5.87595 42.8576 5.90352 39.1482L5.93228 35.2803L6.23306 35.2457L6.53384 35.2111L6.53461 39.0739C6.53527 42.6736 6.54927 42.9579 6.74144 43.2493C7.20213 43.9481 7.91077 44.1482 8.60519 43.7758C9.36677 43.3674 9.37759 43.2988 9.37759 38.8794V34.9283L9.78775 34.0653L10.1979 33.2022L10.2526 39.7149C10.3028 45.6976 10.323 46.2516 10.5002 46.522C11.1625 47.5325 12.6713 47.4312 13.1992 46.3407C13.415 45.895 13.4245 45.6935 13.4245 41.5895V37.3037H13.7526H14.0807V41.6284C14.0807 45.7127 14.0926 45.9765 14.2959 46.3746C14.7212 47.2086 15.8402 47.4672 16.6202 46.9118C17.2099 46.4919 17.194 46.6676 17.2526 39.9287L17.3073 33.6397L17.5978 34.2593C17.7576 34.6001 18.0141 34.9614 18.1678 35.0621C19.1382 35.698 20.4245 35.0681 20.4245 33.957C20.4245 33.2915 17.6214 26.776 17.1504 26.3467C16.7118 25.9469 16.3228 25.9072 13.2408 25.9482C10.7457 25.9815 10.5788 25.9966 10.2877 26.2153L9.97916 26.4471L9.76041 25.9975C9.64009 25.7502 9.37442 25.4367 9.17 25.3008C8.80994 25.0614 8.71795 25.0539 6.21688 25.058C4.26267 25.0613 3.55053 25.0992 3.28617 25.2142ZM46.9914 25.3008C46.787 25.4367 46.5213 25.7502 46.401 25.9975L46.1823 26.4471L45.8737 26.2153C45.5827 25.9966 45.4158 25.9815 42.9206 25.9482C39.8391 25.9072 39.4498 25.9469 39.0103 26.3467C38.5381 26.7763 35.737 33.2873 35.737 33.9554C35.737 35.0681 37.0225 35.6984 37.9936 35.0621C38.1474 34.9614 38.4039 34.6001 38.5637 34.2593L38.8542 33.6397L38.9088 39.9287C38.9675 46.6676 38.9515 46.4919 39.5413 46.9118C40.3212 47.4672 41.4402 47.2086 41.8656 46.3746C42.0688 45.9765 42.0807 45.7127 42.0807 41.6284V37.3037H42.4088H42.737V41.5895C42.737 45.6935 42.7465 45.895 42.9623 46.3407C43.4901 47.4312 44.999 47.5325 45.6612 46.522C45.8384 46.2516 45.8586 45.6976 45.9088 39.7149L45.9635 33.2022L46.3737 34.0653L46.7838 34.9283V38.8794C46.7838 43.2988 46.7947 43.3674 47.5563 43.7758C48.2507 44.1482 48.9593 43.9481 49.42 43.2493C49.6122 42.9579 49.6262 42.6736 49.6268 39.0739L49.6276 35.2111L49.9284 35.2457L50.2292 35.2803L50.2579 39.1482C50.2855 42.8576 50.296 43.0291 50.5127 43.3335C50.9644 43.9679 51.7044 44.1423 52.3287 43.7617C53.1036 43.2892 53.0694 43.5757 53.1041 37.2616L53.1351 31.5768L53.4461 32.2343C53.6172 32.5959 53.8928 32.9985 54.0587 33.129C54.4102 33.4056 54.969 33.4377 55.4152 33.207C55.8118 33.0019 56.1245 32.3545 56.0374 31.919C55.9757 31.6107 53.8805 26.6671 53.4471 25.8071C53.0952 25.1091 52.8365 25.0537 49.928 25.0537C47.4476 25.0537 47.3508 25.0619 46.9914 25.3008Z" fill="#00BEF2"/>
</svg>
