<svg width="14" height="13" viewBox="0 0 14 13" fill="none" xmlns="http://www.w3.org/2000/svg">
<path fill-rule="evenodd" clip-rule="evenodd" d="M10.724 12.2878C10.9118 12.4208 11.1539 12.4541 11.3698 12.3724C11.5856 12.2902 11.7443 12.1058 11.7921 11.8824C12.299 9.50009 13.5287 3.47017 13.9901 1.30309C14.0251 1.13975 13.9668 0.970003 13.8384 0.86092C13.7101 0.751837 13.5322 0.720336 13.3735 0.779253C10.9276 1.68459 3.395 4.51084 0.31617 5.65009C0.120753 5.72242 -0.00641347 5.91025 3.19947e-06 6.11617C0.0070032 6.32267 0.145837 6.50175 0.34592 6.56184C1.72667 6.97484 3.53909 7.54942 3.53909 7.54942C3.53909 7.54942 4.38609 10.1073 4.82767 11.4082C4.88309 11.5715 5.01084 11.6998 5.17942 11.7442C5.34742 11.7879 5.52709 11.7418 5.6525 11.6234C6.36184 10.9538 7.4585 9.91834 7.4585 9.91834C7.4585 9.91834 9.54217 11.4461 10.724 12.2878ZM4.3015 7.22625L5.28092 10.4568L5.4985 8.411C5.4985 8.411 9.28259 4.99792 11.4398 3.0525C11.5028 2.99534 11.5115 2.89967 11.459 2.83259C11.4071 2.7655 11.3114 2.74975 11.2397 2.79525C8.7395 4.39184 4.3015 7.22625 4.3015 7.22625Z" fill="#2C334D"/>
</svg>
