<svg width="23" height="22" viewBox="0 0 23 22" fill="none" xmlns="http://www.w3.org/2000/svg">
<path fill-rule="evenodd" clip-rule="evenodd" d="M8.90471 3.01404C7.86521 3.07025 6.9324 3.1859 6.61326 3.29804C6.06501 3.49074 5.68132 3.87686 5.1283 4.79244C4.81081 5.31805 4.27853 6.43426 4.01755 7.12161C3.9058 7.41608 3.79429 7.7052 3.76985 7.76404C3.7261 7.86952 3.70818 7.87132 2.55893 7.88572C2.55893 7.88572 2.19253 7.88572 1.80314 7.88572C1.58534 7.88572 1.43677 7.89162 1.26234 8.02206C0.957631 8.24991 0.935844 8.53024 1.07714 8.97857C1.21527 9.41667 1.56791 9.73265 2.04188 9.84299C2.12219 9.86173 2.26845 9.89814 2.36696 9.92393L2.54598 9.97086L2.40249 10.2872C2.1199 10.9105 2.10978 11.0257 2.12521 13.4403C2.12521 13.4403 2.1309 14.9911 2.12521 15.2345C2.11952 15.4778 2.26928 15.8857 2.26928 15.8857C2.40254 16.1383 2.71176 16.4546 2.91638 16.5479C3.03052 16.5999 3.0313 16.6058 3.04965 17.5799C3.06994 18.6572 3.09413 18.7628 3.35799 18.9259C3.5005 19.014 3.60271 19.0221 4.5786 19.0219C6.1167 19.0216 6.10604 19.0314 6.10604 17.6121V16.7344H12.0198H17.9335V17.6843V18.6341C17.9335 18.6341 17.9335 19.0125 18.2665 18.9977C18.5996 18.983 19.3629 19.0125 19.3629 19.0125C20.5836 19.0289 20.6759 19.0105 20.8558 18.7155C20.9416 18.5747 20.9508 18.4658 20.951 17.5859L20.9512 16.6122L21.1045 16.5443C21.3363 16.4417 21.6148 16.2963 21.7589 15.9889C21.7589 15.9889 21.885 15.8008 21.9003 15.542C21.9156 15.2832 21.9156 13.5707 21.9156 13.5707C21.9328 11.3486 21.907 11.0303 21.6597 10.4146C21.5674 10.1845 21.4974 9.99057 21.5043 9.98366C21.5112 9.97675 21.6952 9.91941 21.9132 9.85628C22.1312 9.79315 22.3978 9.68305 22.5057 9.61165C22.7628 9.44154 22.9519 9.07178 22.9835 8.67699C23.0119 8.32402 22.9246 8.11517 22.6888 7.97144C22.5462 7.88446 22.438 7.87638 21.4104 7.87623L20.2878 7.87604L19.98 7.08511C19.8107 6.65012 19.5043 5.96564 19.299 5.56409C18.5421 4.08318 18.0716 3.53128 17.3486 3.27619C17.0599 3.17437 16.1266 3.07021 14.9644 3.0101C13.868 2.95344 9.97872 2.95592 8.90471 3.01404ZM14.2587 4.00837C16.0763 4.05456 16.4843 4.09637 16.8438 4.27334C17.2173 4.45718 17.3649 4.62924 17.8535 5.45005C18.4859 6.51238 19.1583 7.94228 19.0647 8.0259C18.9901 8.09263 15.6111 8.33419 13.626 8.41465C12.1691 8.47374 10.7235 8.45032 8.78303 8.33619C7.40793 8.25534 5.09068 8.07632 4.99358 8.04347C4.90315 8.0129 4.94471 7.86625 5.22911 7.21287C5.66463 6.21207 6.50282 4.80022 6.84484 4.4912C7.27715 4.1006 7.57561 4.0566 10.2675 3.98608C11.6848 3.94894 11.9873 3.95064 14.2587 4.00837ZM5.21757 11.3543C5.83381 11.505 6.24223 11.7067 6.54614 12.0106C6.95791 12.4223 7.19217 13.0313 7.06022 13.3471C6.94783 13.6161 6.78239 13.642 5.95598 13.5198C4.26403 13.2695 3.7718 13.1427 3.5189 12.8918C3.27646 12.6513 3.20734 12.3824 3.27802 11.9545C3.35239 11.5043 3.41922 11.3809 3.6471 11.2732C3.90404 11.1518 4.51912 11.1836 5.21757 11.3543ZM20.3671 11.271C20.5993 11.387 20.7118 11.6365 20.7407 12.0998C20.761 12.4259 20.7491 12.5046 20.6508 12.6944C20.5085 12.969 20.2865 13.0971 19.722 13.23C19.0627 13.3852 17.4414 13.622 17.2633 13.589C17.1753 13.5727 17.059 13.5023 17.0027 13.4313C16.7044 13.0547 17.2349 12.0315 17.9208 11.6606C18.5998 11.2934 19.9739 11.0746 20.3671 11.271ZM16.1129 11.7128C16.4315 12.065 15.7749 13.0243 15.0411 13.3742C14.547 13.6098 14.3246 13.6252 11.6528 13.6095C11.6528 13.6095 9.9558 13.6095 9.54208 13.6095C9.12837 13.6095 8.90958 13.4247 8.90958 13.4247C8.21522 13.0071 7.81197 12.0309 8.10624 11.7057C8.183 11.6209 8.25245 11.6238 11.9954 11.6238C11.9954 11.6238 15.7965 11.6238 15.9228 11.6238C16.0491 11.6238 16.1129 11.7128 16.1129 11.7128Z" fill="#00BEF2"/>
</svg>
