<svg width="4" height="8" viewBox="0 0 4 8" fill="none" xmlns="http://www.w3.org/2000/svg">
<path fill-rule="evenodd" clip-rule="evenodd" d="M0.0114678 7.57236C0.044924 7.73428 0.152566 7.88116 0.291605 7.95461C0.361536 7.99155 0.391507 7.99805 0.490585 7.99772C0.710027 7.997 0.56182 8.14723 2.33202 6.13117C3.39964 4.91526 3.9168 4.31572 3.93988 4.26717C3.99377 4.15381 4.0127 4.01993 3.9915 3.90216C3.98181 3.84835 3.95858 3.77213 3.93988 3.73278C3.9168 3.68423 3.39964 3.08469 2.33202 1.86878C0.561669 -0.147451 0.70993 0.0028286 0.490585 0.00237465C0.391246 0.00217152 0.361248 0.00874472 0.288394 0.0467138C0.0363337 0.178088 -0.0702926 0.528198 0.0544064 0.815017C0.0721225 0.855787 0.558513 1.42213 1.44894 2.4388L2.81628 3.99998L1.44894 5.56115C0.555028 6.58179 0.0722324 7.14401 0.0545025 7.18493C0.00290484 7.30407 -0.0134802 7.45164 0.0114678 7.57236Z" fill="#2C334D" fill-opacity="0.5"/>
</svg>
