<svg width="30" height="41" viewBox="0 0 30 41" fill="none" xmlns="http://www.w3.org/2000/svg">
<path fill-rule="evenodd" clip-rule="evenodd" d="M4.37506 0.750309C3.35615 0.900411 2.30097 1.43517 1.5243 2.19508C0.941435 2.76533 0.545184 3.39935 0.250698 4.23274L0.0294623 4.85869L0.00893674 20.5257C-0.0112754 35.9162 -0.00884659 36.2035 0.143527 36.806C0.432686 37.9497 1.11042 38.9996 1.98275 39.6553C2.57658 40.1018 3.00965 40.3219 3.75264 40.5552L4.33824 40.7391H14.9927H25.6471L26.2738 40.5264C27.6982 40.0431 28.7344 39.1486 29.3721 37.8519C29.9549 36.6666 30.0198 37.8502 29.9959 24.6467V12.1775H18.4859V0.677002L11.5517 0.677022C7.77069 0.682271 4.61338 0.715212 4.37506 0.750309ZM10.488 4.50615V5.52459H11.5028C12.0796 5.52459 12.5999 5.56212 12.7085 5.61155C12.9892 5.73948 13.0733 6.00177 13.0733 6.7486C13.0733 7.38269 13.0616 7.42852 12.8443 7.64584L12.6153 7.87483H11.5517H10.488V8.93244V9.99005H11.5028C12.5945 9.99005 12.8485 10.0526 12.9863 10.3549C13.0989 10.6021 13.0989 11.7283 12.9863 11.9755C12.8485 12.2778 12.5945 12.3403 11.5028 12.3403H10.488V13.3979V14.4555H11.5517H12.6153L12.8443 14.6845C13.0616 14.9018 13.0733 14.9477 13.0733 15.5818C13.0733 16.3286 12.9892 16.5909 12.7085 16.7188C12.589 16.7732 11.9343 16.8058 10.9588 16.8058C9.4244 16.8058 9.39659 16.8028 9.18021 16.6169C8.96516 16.4321 8.95984 16.4073 8.93422 15.4809L8.90813 14.5339H7.82357C6.7452 14.5339 6.73807 14.5327 6.57669 14.3274C6.43904 14.1525 6.41429 14.0108 6.41429 13.3979C6.41429 12.785 6.43904 12.6433 6.57669 12.4684C6.73815 12.2631 6.74473 12.262 7.83015 12.262H8.92121V11.1652V10.0684H7.83015C6.74473 10.0684 6.73815 10.0673 6.57669 9.86196C6.43904 9.68703 6.41429 9.54539 6.41429 8.93244C6.41429 8.3195 6.43904 8.17786 6.57669 8.00292C6.73815 7.79759 6.74473 7.79649 7.83015 7.79649H8.92121V6.69971V5.60293H7.83015C6.74473 5.60293 6.73815 5.60184 6.57669 5.3965C6.43505 5.21648 6.41429 5.08142 6.41429 4.3389V3.48772H8.45117H10.488V4.50615ZM10.874 18.4223C11.0247 18.6138 11.0364 18.7308 11.0364 20.0427V21.4567L11.5065 22.8836C12.0079 24.4057 12.0473 24.6863 11.852 25.344C11.6642 25.9766 11.0115 26.5992 10.3397 26.7865C9.26247 27.0869 8.2485 26.6391 7.75079 25.643C7.37421 24.8893 7.40656 24.4914 7.98112 22.8116L8.45117 21.4375V19.9834C8.45117 18.1218 8.38269 18.2159 9.73808 18.2159C10.6966 18.2159 10.7142 18.2191 10.874 18.4223ZM8.77362 24.0189C8.57118 24.6474 8.59226 24.9694 8.85807 25.3074C9.17966 25.7162 9.74113 25.8382 10.2308 25.6058C10.7832 25.3437 10.9386 24.7123 10.6516 23.8957L10.5141 23.5039L9.73385 23.4818L8.95372 23.4597L8.77362 24.0189Z" fill="#CB0000"/>
<path d="M18.4863 0.715576L29.9964 12.2256H18.4863V0.715576Z" fill="#E37272"/>
</svg>
