<svg style="display: none;" aria-hidden="true" xmlns="http://www.w3.org/2000/svg" xmlns:xlink="http://www.w3.org/1999/xlink"><symbol viewBox="0 0 41 40" fill="none" id="svg-aim"><path fill-rule="evenodd" clip-rule="evenodd" d="M29.1271 0.100739C28.8125 0.24355 25.2082 3.87867 25.1043 4.15788C25.0555 4.28943 25.0225 5.15545 25.0225 6.30843V8.23873L20.6715 12.5917L16.3206 16.9445L16.0391 16.8464C14.8957 16.4477 13.5582 16.7704 12.6644 17.6605C11.3542 18.9653 11.3401 21.0345 12.6327 22.3291C13.9672 23.6659 16.0271 23.6645 17.3619 22.3259C17.5848 22.1024 17.8689 21.7019 18.0062 21.4177C18.2164 20.9826 18.2562 20.8022 18.2826 20.1663C18.305 19.6253 18.2799 19.3277 18.1903 19.0714L18.0674 18.7194L22.4242 14.3592L26.7811 9.999H28.7189C30.2073 9.999 30.7151 9.97366 30.9083 9.88959C31.23 9.74967 34.8392 6.12205 34.9482 5.82923C35.1483 5.29107 34.9077 4.62879 34.4045 4.33315C34.1568 4.18753 33.9782 4.17001 32.5142 4.14717L30.8975 4.12206L30.8724 2.50476C30.8484 0.965664 30.8383 0.873219 30.6634 0.59182C30.34 0.0714883 29.6661 -0.14398 29.1271 0.100739ZM13.4121 5.07936C8.35038 5.60532 3.74416 8.8447 1.50738 13.4516C-0.507269 17.6009 -0.49906 22.5178 1.52935 26.598C3.06896 29.6949 5.44185 32.0441 8.54224 33.5408C10.7796 34.6209 13.1786 35.1108 15.6794 34.9984C16.2815 34.9712 16.8502 34.9279 16.9433 34.9021L17.1126 34.855L16.8936 34.3345C16.7732 34.0482 16.5775 33.5124 16.4587 33.1438L16.2428 32.4737L15.4132 32.5079C11.1165 32.6849 6.88779 30.475 4.5181 26.8142C3.62016 25.4269 2.99132 23.8527 2.69031 22.2389C2.48625 21.1445 2.48625 18.8753 2.69031 17.7809C4.17292 9.83054 12.6733 5.30757 20.0061 8.56737L20.8144 8.92666L21.7066 8.03679C22.1973 7.54735 22.5988 7.12384 22.5988 7.09569C22.5988 7.06753 22.1678 6.83149 21.641 6.57113C19.0587 5.29498 16.2453 4.78497 13.4121 5.07936ZM13.4121 10.9737C10.8508 11.4431 8.6037 12.9697 7.21358 15.185C5.6395 17.6935 5.40932 20.9355 6.60859 23.7039C7.17472 25.0106 8.34076 26.4622 9.58108 27.4042C10.2653 27.9238 11.7918 28.6508 12.7084 28.8935C13.3736 29.0697 13.6653 29.1021 14.6631 29.111L15.8358 29.1214L15.8542 28.6912C15.8753 28.1975 16.0296 26.8314 16.0787 26.7034C16.1018 26.643 15.8454 26.6259 15.2172 26.6459C13.3547 26.705 11.7867 26.1201 10.4656 24.8734C8.90205 23.3979 8.16759 21.4454 8.37861 19.3255C8.66593 16.4387 10.8296 14.0524 13.6832 13.4749C14.1876 13.3728 14.5814 13.3505 15.3358 13.3811L16.3262 13.4213L17.2733 12.4715C17.7943 11.9492 18.2204 11.4973 18.2204 11.4675C18.2204 11.3836 17.2465 11.1022 16.5133 10.9743C15.7202 10.8359 14.1656 10.8356 13.4121 10.9737ZM26.9822 13.3178L26.0906 14.2122L26.3675 14.8234C26.5199 15.1595 26.6922 15.5694 26.7506 15.7341C26.8481 16.0096 26.8756 16.0302 27.0928 15.9899C27.2226 15.9658 27.7944 15.9226 28.3634 15.8938L29.3979 15.8414L29.3502 15.638C29.2006 14.9996 28.0542 12.4235 27.9198 12.4235C27.8944 12.4235 27.4724 12.826 26.9822 13.3178ZM27.4462 18.4778C22.7006 19.322 19.1184 23.0103 18.4489 27.7415C18.331 28.5747 18.3953 30.565 18.5656 31.3503C19.015 33.4232 19.9643 35.1973 21.4311 36.7054C23.0066 38.3253 24.805 39.3223 27.0385 39.8143C28.1704 40.0636 30.2189 40.0616 31.3461 39.8101C33.5774 39.3122 35.2702 38.3926 36.8328 36.8296C38.3953 35.2665 39.3146 33.5731 39.8123 31.341C40.0638 30.2135 40.0657 28.1643 39.8166 27.0321C39.4767 25.4883 38.8422 24.0551 37.9497 22.815C37.3923 22.0407 36.0393 20.7247 35.2802 20.2187C34.1223 19.4469 32.7704 18.8699 31.3945 18.5602C30.6364 18.3895 28.2251 18.3392 27.4462 18.4778ZM33.609 25.2267C34.1904 25.6574 34.345 26.378 33.9734 26.9258C33.7918 27.1936 29.0031 32.4042 28.4201 32.9685C28.089 33.289 27.6307 33.4185 27.2194 33.3077C26.8138 33.1984 23.6142 30.4744 23.4633 30.1099C23.3249 29.7758 23.3934 29.1591 23.6012 28.8673C23.9352 28.3981 24.7412 28.2277 25.2179 28.5255C25.3469 28.6061 25.8879 29.0474 26.4201 29.5061C26.9523 29.9648 27.4136 30.3299 27.4452 30.3173C27.4767 30.3048 28.5278 29.1859 29.7808 27.8309C31.0337 26.4759 32.1909 25.2866 32.3522 25.188C32.7097 24.9695 33.2858 24.9873 33.609 25.2267Z" fill="#00BEF2"/></symbol><symbol viewBox="0 0 4 8" fill="none" id="svg-arrow-all"><path fill-rule="evenodd" clip-rule="evenodd" d="M0.0114678 7.57236C0.044924 7.73428 0.152566 7.88116 0.291605 7.95461C0.361536 7.99155 0.391507 7.99805 0.490585 7.99772C0.710027 7.997 0.56182 8.14723 2.33202 6.13117C3.39964 4.91526 3.9168 4.31572 3.93988 4.26717C3.99377 4.15381 4.0127 4.01993 3.9915 3.90216C3.98181 3.84835 3.95858 3.77213 3.93988 3.73278C3.9168 3.68423 3.39964 3.08469 2.33202 1.86878C0.561669 -0.147451 0.70993 0.0028286 0.490585 0.00237465C0.391246 0.00217152 0.361248 0.00874472 0.288394 0.0467138C0.0363336 0.178088 -0.0702926 0.528198 0.0544064 0.815017C0.0721225 0.855787 0.558513 1.42213 1.44894 2.4388L2.81628 3.99998L1.44894 5.56115C0.555028 6.58179 0.0722324 7.14401 0.0545025 7.18493C0.00290484 7.30407 -0.0134802 7.45164 0.0114678 7.57236Z" fill="#2C334D" fill-opacity=".5"/></symbol><symbol viewBox="0 0 10 6" fill="none" id="svg-arrow-spoller"><path d="M9 1.18186L8.80961 1L5 4.6364L1.19039 1L1 1.18186L5 5L9 1.18186Z" fill="#2C334D" stroke="#2C334D" stroke-width="1.2" stroke-linejoin="round"/></symbol><symbol viewBox="0 0 30 36" fill="none" id="svg-bookmark"><path fill-rule="evenodd" clip-rule="evenodd" d="M0.655061 0.0439956C0.655061 0.0439956 0.5 4.81449 0.5 18.2339C0.5 31.4352 0.509883 32.4094 0.648336 32.8565C0.978237 33.9221 1.94451 34.942 2.94972 35.2858C3.93414 35.6225 5.25912 35.4312 6.14641 34.824C6.33232 34.6968 8.38764 32.8577 10.7136 30.7373C13.0397 28.6169 14.9822 26.8819 15.0302 26.8819C15.0783 26.8819 17.0956 28.6834 19.5131 30.8852C22.6626 33.7536 24.0365 34.951 24.3595 35.1091C26.5391 36.1755 29.0866 34.803 29.5087 32.3349C29.5763 31.9394 29.5956 27.8084 29.576 17.8931C29.5502 4.8156 29.3954 0 29.3954 0L0.655061 0.0439956Z" fill="#00BEF2"/></symbol><symbol viewBox="0 0 41 40" fill="none" id="svg-car"><path fill-rule="evenodd" clip-rule="evenodd" d="M15.3721 5.48015C13.4821 5.58236 11.7861 5.79263 11.2059 5.99652C10.209 6.34688 9.51144 7.04891 8.50595 8.7136C7.92869 9.66927 6.9609 11.6987 6.48639 12.9485C6.2832 13.4839 6.08046 14.0095 6.03604 14.1165C5.95648 14.3083 5.92391 14.3116 3.83435 14.3378C3.83435 14.3378 3.16817 14.3378 2.4602 14.3378C2.06419 14.3378 1.79407 14.3485 1.47692 14.5856C0.922904 14.9999 0.883292 15.5096 1.14019 16.3248C1.39135 17.1213 2.0325 17.6958 2.89427 17.8964C3.04028 17.9305 3.30621 17.9967 3.48533 18.0436L3.81081 18.1289L3.54993 18.7041C3.03612 19.8374 3.01772 20.0469 3.04577 24.4371C3.04577 24.4371 3.05612 27.2567 3.04577 27.6991C3.03542 28.1416 3.30772 28.8832 3.30772 28.8832C3.55002 29.3424 4.11223 29.9176 4.48427 30.0871C4.69179 30.1817 4.6932 30.1924 4.72657 31.9636C4.76347 33.9222 4.80745 34.1143 5.28719 34.4109C5.5463 34.571 5.73214 34.5856 7.50648 34.5853C10.303 34.5848 10.2836 34.6027 10.2836 32.0221V30.4263H21.0359H31.7881V32.1533V33.8802C31.7881 33.8802 31.7881 34.5682 32.3936 34.5414C32.9992 34.5146 34.3871 34.5682 34.3871 34.5682C36.6066 34.598 36.7744 34.5647 37.1013 34.0282C37.2575 33.7722 37.2742 33.5743 37.2744 31.9745L37.2748 30.204L37.5536 30.0807C37.975 29.8941 38.4814 29.6298 38.7434 29.0708C38.7434 29.0708 38.9727 28.7288 39.0005 28.2582C39.0282 27.7876 39.0282 24.6741 39.0282 24.6741C39.0595 20.634 39.0126 20.0551 38.5631 18.9357C38.3952 18.5173 38.268 18.1648 38.2806 18.1522C38.2931 18.1396 38.6276 18.0354 39.0239 17.9206C39.4203 17.8058 39.9051 17.6056 40.1013 17.4758C40.5687 17.1665 40.9124 16.4942 40.97 15.7764C41.0215 15.1347 40.8629 14.7549 40.4342 14.4936C40.1749 14.3355 39.9781 14.3208 38.1098 14.3205L36.0687 14.3202L35.509 12.8821C35.2013 12.0912 34.6441 10.8467 34.2709 10.1166C32.8946 7.42405 32.0392 6.42059 30.7246 5.95679C30.1998 5.77166 28.5029 5.58228 26.3898 5.47298C24.3962 5.36997 17.3249 5.37449 15.3721 5.48015ZM25.1067 7.28803C28.4113 7.37201 29.1533 7.44803 29.8068 7.7698C30.4859 8.10405 30.7544 8.41688 31.6427 9.90927C32.7924 11.8408 34.015 14.4406 33.8449 14.5926C33.7091 14.714 27.5656 15.1532 23.9562 15.2994C21.3075 15.4069 18.679 15.3643 15.1509 15.1568C12.6507 15.0098 8.43754 14.6843 8.26099 14.6246C8.09657 14.569 8.17214 14.3024 8.68922 13.1144C9.48108 11.2948 11.0051 8.72776 11.6269 8.1659C12.4129 7.45573 12.9556 7.37573 17.85 7.2475C20.4269 7.17997 20.9768 7.18307 25.1067 7.28803ZM8.66825 20.6443C9.78869 20.9182 10.5313 21.2849 11.0838 21.8376C11.8325 22.5862 12.2584 23.6934 12.0185 24.2675C11.8142 24.7566 11.5134 24.8037 10.0108 24.5815C6.93453 24.1265 6.03958 23.896 5.57975 23.4398C5.13896 23.0025 5.01329 22.5136 5.14179 21.7355C5.27701 20.917 5.39851 20.6926 5.81285 20.4969C6.28002 20.2762 7.39834 20.3339 8.66825 20.6443ZM36.2129 20.4929C36.6351 20.7038 36.8395 21.1574 36.8921 21.9998C36.929 22.5926 36.9074 22.7356 36.7286 23.0809C36.47 23.5801 36.0663 23.813 35.0399 24.0547C33.8413 24.3369 30.8934 24.7673 30.5697 24.7074C30.4097 24.6778 30.1981 24.5497 30.0958 24.4206C29.5535 23.7359 30.518 21.8755 31.765 21.2011C32.9995 20.5336 35.498 20.1357 36.2129 20.4929ZM28.4779 21.2962C29.0573 21.9365 27.8635 23.6806 26.5291 24.3168C25.6308 24.7452 25.2266 24.7732 20.3686 24.7447C20.3686 24.7447 17.2832 24.7447 16.531 24.7447C15.7788 24.7447 15.381 24.4086 15.381 24.4086C14.1185 23.6494 13.3853 21.8744 13.9204 21.2832C14.0599 21.129 14.1862 21.1343 20.9916 21.1343C20.9916 21.1343 27.9027 21.1343 28.1323 21.1343C28.362 21.1343 28.4779 21.2962 28.4779 21.2962Z" fill="#00BEF2"/></symbol><symbol viewBox="0 0 40 40" fill="none" id="svg-car-collision"><path fill-rule="evenodd" clip-rule="evenodd" d="M19.148 7.54352C19.0226 7.63125 18.9737 7.74547 18.9723 7.95367C18.9687 8.48836 19.8687 15.3253 19.9237 15.1815C20.0349 14.8909 20.857 8.02539 20.8076 7.80039C20.7432 7.50719 20.5264 7.42188 19.8459 7.42188C19.4978 7.42188 19.2632 7.46273 19.148 7.54352ZM23.3362 9.82422C23.2394 9.93883 22.8765 10.7875 21.2813 14.6289C21.2144 14.7901 21.1752 14.9219 21.1942 14.9219C21.2422 14.9219 24.3967 10.7814 24.5081 10.572C24.6459 10.3134 24.5446 10.1703 24.0448 9.91805C23.5099 9.64805 23.4875 9.64508 23.3362 9.82422ZM15.6693 10.3889C15.3858 10.5687 15.3024 10.6678 15.3024 10.8248C15.3024 10.9688 15.7854 11.6634 16.9584 13.207C17.8692 14.4054 18.6258 15.3745 18.6397 15.3606C18.6848 15.3155 16.6162 10.4339 16.4923 10.293C16.3194 10.0966 16.0877 10.1235 15.6693 10.3889ZM26.1499 11.6852C25.9501 11.7468 25.6122 11.9289 25.3991 12.09C24.9415 12.4359 19.8372 18.3401 19.8351 18.5259C19.834 18.6213 20.8675 20.8202 20.958 20.9153C20.9669 20.9245 21.1454 20.8455 21.3547 20.7395C21.7559 20.5363 22.3176 20.4852 22.6715 20.6198C23.2126 20.8255 23.7351 21.5555 23.7377 22.1094C23.7413 22.8666 23.219 23.5844 22.5404 23.7553L22.2007 23.8408L22.2638 24.1665C22.2985 24.3456 22.3283 24.8501 22.3302 25.2874L22.3337 26.0827L22.7438 26.1996C22.9694 26.264 25.8083 27.0252 29.0523 27.8913C32.2965 28.7573 34.9622 29.4775 34.9763 29.4916C34.9904 29.5057 34.8949 29.8904 34.7642 30.3464C34.513 31.2226 34.5221 31.4743 34.8104 31.6278C35.0473 31.754 37.3717 32.3438 37.6321 32.3438C37.8005 32.3438 37.9122 32.2888 37.9898 32.168C38.1732 31.8825 39.927 25.1754 39.9663 24.6094C39.9951 24.1945 39.8568 23.3373 39.2101 19.9234C38.7749 17.6253 38.3523 15.5951 38.2712 15.4116C38.0783 14.9754 37.4281 14.2934 37.005 14.0832C36.8205 13.9916 34.6082 13.387 32.0887 12.7396C27.204 11.4844 26.9493 11.4392 26.1499 11.6852ZM31.6941 14.9956C33.7271 15.5551 35.5415 16.0795 35.726 16.1612C36.0983 16.3258 36.4075 16.6877 36.5462 17.121C36.6621 17.4831 37.6373 22.6841 37.5976 22.728C37.5731 22.7548 34.8928 22.0423 22.7048 18.7685C22.6296 18.7483 22.5689 18.7095 22.57 18.6823C22.571 18.6551 23.4236 17.6507 24.4645 16.4504C26.6204 13.9643 26.7437 13.8631 27.529 13.9355C27.7868 13.9591 29.6611 14.4363 31.6941 14.9956ZM5.37038 15.043C4.91382 15.185 4.32327 15.5828 4.04257 15.9375C3.83194 16.2037 0.460613 23.1865 0.173035 23.9523C0.0414726 24.3028 0.0270195 24.67 0.00592572 28.2031C-0.00673053 30.3301 0.00155072 32.145 0.0244413 32.2362C0.0999101 32.5373 0.412879 32.5898 1.97757 32.5635C3.31952 32.5411 3.44944 32.5266 3.551 32.3874C3.63178 32.2768 3.66178 31.986 3.66178 31.3132V30.3906H10.7646H17.8675L17.8935 31.3352C17.9298 32.6497 17.8437 32.5944 19.8062 32.5631C21.1292 32.542 21.3298 32.522 21.4522 32.3995C21.5821 32.2691 21.5914 31.9989 21.5906 28.376L21.5898 24.4922L21.3888 23.9453C21.2783 23.6445 20.4173 21.7812 19.4756 19.8047C17.9115 16.5218 17.728 16.1752 17.3546 15.7971C17.1251 15.5647 16.7483 15.2907 16.4952 15.1721L16.0446 14.9609L10.8883 14.9458C6.58913 14.933 5.67194 14.9492 5.37038 15.043ZM15.4196 17.3047C15.5915 17.3906 15.8486 17.6191 15.9909 17.8125C16.1913 18.0847 18.5055 22.8726 18.5055 23.015C18.5055 23.0325 15.0251 23.0469 10.7712 23.0469C6.51725 23.0469 3.03678 23.0214 3.03678 22.9903C3.03678 22.8956 5.31288 18.1847 5.50921 17.873C5.60999 17.713 5.78085 17.5242 5.88882 17.4534C6.40671 17.1141 6.466 17.1103 10.8883 17.1298C14.9307 17.1477 15.1201 17.155 15.4196 17.3047ZM36.9047 24.5207C38.133 25.0787 38.2134 26.7892 37.0435 27.4748C36.2292 27.952 35.265 27.6588 34.8101 26.7957C34.6101 26.4162 34.5896 26.3142 34.631 25.9051C34.7054 25.1691 35.0977 24.628 35.6863 24.4497C36.0404 24.3423 36.5815 24.3739 36.9047 24.5207ZM4.18507 25.105C5.40686 25.7368 5.39803 27.4339 4.1696 28.0669C3.18022 28.5766 1.93413 27.8934 1.80764 26.772C1.72553 26.0431 2.18069 25.2782 2.84147 25.0346C3.20952 24.8989 3.85163 24.9326 4.18507 25.105ZM18.6867 25.0463C19.128 25.1966 19.6498 25.7498 19.7241 26.1461C19.9335 27.2623 19.1996 28.2207 18.1258 28.2334C16.6535 28.2506 15.9122 26.4276 16.9733 25.3991C17.4413 24.9455 18.0332 24.8237 18.6867 25.0463Z" fill="#00BEF2"/></symbol><symbol viewBox="0 0 40 40" fill="none" id="svg-car-repair"><path fill-rule="evenodd" clip-rule="evenodd" d="M26.9834 1.87162C25.2075 2.67785 23.51 4.74735 22.8978 6.85252C22.2184 9.18907 22.8625 12.0798 24.4743 13.928C24.7205 14.2103 24.9837 14.5355 25.0592 14.6506C25.185 14.8427 25.1999 15.6643 25.2375 24.4949C25.2375 24.4949 25.1061 33.2185 25.2784 34.1297C25.4508 35.041 25.9858 36.3896 26.6393 37.0492C27.5788 37.9973 28.5604 38.3482 30.4834 38.3482C32.4063 38.3482 34.4922 37.582 35.1229 35.6871C35.7537 33.7922 35.7262 34.7422 35.7279 24.3525C35.729 16.6386 35.7484 15.0224 35.8425 14.8033C35.9048 14.6583 36.1665 14.2998 36.4242 14.0068C38.3843 11.7778 38.9029 8.4167 37.6971 5.75735C36.9799 4.17555 35.4586 2.5603 34.0831 1.91998C33.5652 1.67891 33.4111 1.66448 33.2351 1.84047C33.122 1.95358 33.1063 2.39424 33.1063 5.4417C33.1063 7.70235 33.0758 8.99465 33.0189 9.14489C32.8693 9.53973 32.6038 9.75014 31.6802 10.2055C31.0868 10.4983 30.6851 10.6461 30.4834 10.6461C30.2816 10.6461 29.8799 10.4983 29.2865 10.2055C28.363 9.75014 28.0975 9.53973 27.9479 9.14489C27.8909 8.99465 27.8604 7.70235 27.8604 5.4417C27.8604 2.39424 27.8447 1.95358 27.7316 1.84047C27.5647 1.67358 27.4049 1.68022 26.9834 1.87162ZM10.9752 7.00309C10.0601 7.19965 9.13541 7.71604 8.42852 8.4253C8.08738 8.76768 7.69623 9.25063 7.55934 9.49858C7.42246 9.74653 6.66885 11.4566 5.88459 13.2987L4.45877 16.6481L3.96697 16.9825C2.98557 17.6499 2.04917 18.4016 1.89402 19.676C1.73886 20.9504 1.64771 22.3265 1.64771 22.3265C1.64771 22.3265 1.64771 24.3033 1.74016 24.9552C1.83262 25.6072 2.68984 27.2724 3.65861 28.0199L4.21287 28.4477L4.25385 31.1247C4.25385 31.1247 4.24542 32.3988 4.29484 33.8019C4.34426 35.2049 5.4918 35.6871 6.18008 35.6871C6.86837 35.6871 8.84402 35.6871 8.84402 35.6871C8.84402 35.6871 10.5979 35.6871 11.508 35.6871C12.418 35.6871 13.4194 34.8771 13.3932 33.8019C13.367 32.7267 13.4194 31.4863 13.4194 31.4863L13.4456 29.1707H18.0301H22.6145V26.5503V23.9299L19.0958 23.9069C15.6885 23.8846 15.6608 23.7821 15.3509 23.7148C15.041 23.6475 14.7866 23.1557 14.7866 22.6133C14.7866 22.0709 14.8361 21.744 15.2459 21.4754C15.6557 21.2068 15.6885 21.3421 19.0958 21.3198L22.6145 21.2968V18.6764V16.056H15.7702C12.0059 16.056 8.92598 16.0402 8.92598 16.021C8.92598 15.866 11.0085 11.399 11.1548 11.2401C11.5507 10.8105 11.5559 10.8101 16.0158 10.8101H20.1601L20.0963 10.2568C20.0145 9.54686 20.0145 8.13883 20.0963 7.42891L20.1601 6.87563L15.834 6.88211C12.4608 6.88719 11.3906 6.91383 10.9752 7.00309ZM10.1907 19.6478C10.9302 19.9939 11.4088 20.4646 11.7756 21.2068C12.0648 21.792 12.0817 21.8695 12.0817 22.6133C12.0817 23.3572 12.0149 23.5112 11.7756 24.0199C11.4021 24.8138 10.9323 25.2306 10.1702 25.5916C9.67508 25.8262 9.5482 25.851 8.84402 25.851C8.13984 25.851 8.01295 25.8262 7.51779 25.5916C6.75574 25.2306 6.28115 24.766 5.91246 24.0199C5.62352 23.4353 5.60927 23.1781 5.60631 22.6176C5.60352 22.0882 5.63082 21.7829 5.86574 21.2871C6.19508 20.5919 6.66402 20.0829 7.27565 19.7569C7.92131 19.4128 8.27459 19.335 9.02836 19.3709C9.52033 19.3943 9.78238 19.4567 10.1907 19.6478ZM31.1584 31.2661C31.5701 31.4065 32.0424 31.817 32.2644 32.2278C32.363 32.4103 32.4063 32.6778 32.4063 33.1051C32.4063 33.8016 32.2942 34.0783 31.8285 34.5305C31.2861 35.0574 30.4275 35.2104 29.7457 34.9018C28.9623 34.5472 28.5632 33.9408 28.5632 33.1051C28.5632 31.7299 29.8478 30.8196 31.1584 31.2661Z" fill="#00BEF2"/></symbol><symbol viewBox="0 0 14 11" fill="none" id="svg-check"><path fill-rule="evenodd" clip-rule="evenodd" d="M13.0156 0.43532C12.8862 0.49657 12.2771 1.09436 8.64064 4.72944L4.41603 8.95243L2.76174 7.30136C1.85187 6.3933 1.06437 5.62784 1.01174 5.60034C0.876933 5.52993 0.543448 5.53006 0.401425 5.60061C0.253523 5.67405 0.138323 5.79841 0.0603117 5.96882C-0.021118 6.14666 -0.0132976 6.35841 0.0817219 6.54875C0.166898 6.71941 3.92896 10.4815 4.09961 10.5666C4.16619 10.5999 4.29083 10.6334 4.3766 10.6412C4.50635 10.653 4.55951 10.6431 4.69303 10.5824C4.83847 10.5163 5.27613 10.0869 9.35735 6.00568C13.4386 1.92446 13.868 1.4868 13.9341 1.34136C13.9948 1.2077 14.0046 1.15473 13.9929 1.02452C13.9599 0.661316 13.6944 0.401059 13.3309 0.375656C13.1947 0.366141 13.1398 0.376531 13.0156 0.43532Z" fill="#fff"/></symbol><symbol viewBox="0 0 40 40" fill="none" id="svg-cleaning"><path fill-rule="evenodd" clip-rule="evenodd" d="M5.37244 0.158233C5.0426 0.332373 4.76611 0.793311 4.76611 1.16901C4.76611 1.55667 5.04244 2.00675 5.38908 2.18362C5.68541 2.3348 5.84322 2.34089 9.45361 2.34089C13.064 2.34089 13.2218 2.3348 13.5181 2.18362C13.8648 2.00675 14.1411 1.55667 14.1411 1.16901C14.1411 0.781358 13.8648 0.331279 13.5181 0.154405C13.2214 0.00307637 13.0678 -0.00270488 9.43721 0.000576371C5.83549 0.00385762 5.65135 0.0110451 5.37244 0.158233ZM35.9193 0.158233C35.4703 0.395342 35.313 0.778311 35.313 1.63464V2.34089H34.6067C34.0531 2.34089 33.8339 2.37487 33.5922 2.49815C33.2456 2.67503 32.9692 3.12511 32.9692 3.51276C32.9692 3.90042 33.2456 4.3505 33.5922 4.52737C33.8339 4.65065 34.0531 4.68464 34.6067 4.68464H35.313V5.39089C35.313 6.26112 35.4696 6.63315 35.936 6.87112C36.3264 7.07034 36.6433 7.07034 37.0338 6.87112C37.5002 6.63315 37.6567 6.26112 37.6567 5.39089V4.68464H38.363C38.9166 4.68464 39.1358 4.65065 39.3775 4.52737C39.7242 4.3505 40.0005 3.90042 40.0005 3.51276C40.0005 3.12511 39.7242 2.67503 39.3775 2.49815C39.1358 2.37487 38.9166 2.34089 38.363 2.34089H37.6567V1.63464C37.6567 0.764404 37.5002 0.392373 37.0338 0.154405C36.6488 -0.0419236 36.2963 -0.0407518 35.9193 0.158233ZM20.2056 1.91112C18.9796 2.16448 17.736 2.71769 16.7974 3.42722C16.5181 3.63831 15.3195 4.78979 14.1338 5.98612C12.0133 8.12565 11.9721 8.17331 11.6147 8.90339C11.1499 9.85308 11.0148 10.3788 10.9623 11.4425L10.9199 12.3018L14.0735 9.16612C17.396 5.86245 17.8047 5.51722 18.7335 5.23034C19.4092 5.02167 20.4333 5.02097 21.1056 5.2287C21.6727 5.40394 22.4188 5.82901 22.7992 6.19362C23.1431 6.52323 23.6535 7.30636 23.7656 7.67612C23.8334 7.89995 23.8854 7.95964 23.9787 7.92034C25.3372 7.34706 26.7907 7.44433 27.9358 8.18503C29.2862 9.05862 30.0222 10.6731 29.7801 12.2305C29.7294 12.5566 29.6243 12.9692 29.5467 13.1474L29.4053 13.4714L29.9959 13.7622C31.0512 14.2817 31.7049 15.0167 32.095 16.122C32.3706 16.9029 32.3734 17.9319 32.1021 18.7172L31.9099 19.2733L32.4592 19.529C32.8553 19.7135 33.1631 19.9395 33.5637 20.3401C34.4278 21.2043 34.7706 22.0268 34.7723 23.2393C34.7734 24.1021 34.5818 24.7782 34.1509 25.4325C33.9759 25.6981 32.8427 26.8948 31.4935 28.2389C30.1996 29.5276 29.1411 30.6087 29.1411 30.6412C29.1411 30.7503 30.7804 30.7024 31.3523 30.5765C31.6615 30.5084 32.2485 30.2937 32.6567 30.0993L33.3989 29.746L35.9007 27.2349C38.0419 25.0856 38.4573 24.6307 38.7829 24.0785C39.5487 22.7798 39.9338 21.3993 39.943 19.919C39.9545 18.078 39.4385 16.4246 38.3853 14.9276C37.9471 14.3047 27.9782 4.27339 27.0708 3.54222C26.3116 2.93042 25.1399 2.33753 24.1411 2.0598C23.5016 1.8819 23.2153 1.84972 22.0708 1.82675C21.1338 1.808 20.5845 1.83284 20.2056 1.91112ZM0.606816 4.84573C0.276973 5.01987 0.000488281 5.48081 0.000488281 5.85651C0.000488281 6.24417 0.276816 6.69425 0.623457 6.87112C0.919941 7.02237 1.07752 7.02839 4.72705 7.02839C8.37658 7.02839 8.53416 7.02237 8.83064 6.87112C9.17729 6.69425 9.45361 6.24417 9.45361 5.85651C9.45361 5.46886 9.17729 5.01878 8.83064 4.8419C8.53385 4.6905 8.38033 4.6848 4.71064 4.68808C1.07002 4.69136 0.885801 4.69847 0.606816 4.84573ZM19.2192 7.54214C19.0428 7.61761 16.8064 9.79745 12.9106 13.6912C8.78689 17.8129 6.87479 19.6739 6.87338 19.5673C6.87221 19.4814 6.77057 17.7319 6.64752 15.6795C6.42838 12.0232 6.41963 11.9392 6.21768 11.5263C5.64619 10.3582 4.2708 9.86745 3.11127 10.4178C2.59721 10.6617 2.23822 11.0378 1.98721 11.5951C1.84611 11.9083 1.78377 12.2864 1.68393 13.4346C1.51955 15.3253 1.17666 18.1828 0.740488 21.2964C0.252363 24.7804 0.0829102 26.3175 0.026582 27.7706C-0.124668 31.6706 0.87041 34.221 3.53557 36.7645C5.13025 38.2863 7.06127 39.2911 9.32486 39.777C9.98189 39.918 10.372 39.9471 11.6021 39.9471C13.2003 39.9471 13.9424 39.8389 15.279 39.411C16.2091 39.1132 17.8403 38.2721 18.6333 37.6817C19.1194 37.3197 21.297 35.2027 25.6874 30.8237C32.5948 23.9343 32.4447 24.1027 32.4447 23.2439C32.4447 22.2648 31.6709 21.4815 30.7036 21.4815C30.0013 21.4815 29.946 21.525 27.2661 24.1859C25.8696 25.5725 24.6281 26.7442 24.5071 26.7896C23.9099 27.0138 23.2598 26.7377 23.0194 26.1578C22.715 25.4233 22.5938 25.5814 26.367 21.794C29.7121 18.4364 29.7542 18.39 29.886 17.933C29.998 17.5444 30.0048 17.4054 29.9285 17.0642C29.8178 16.5699 29.4022 16.0529 28.9502 15.8476C28.5611 15.6709 27.9081 15.6587 27.5175 15.8209C27.3199 15.9029 26.1656 17.0005 23.9067 19.2544C22.0806 21.0766 20.4874 22.6043 20.3665 22.6495C19.7681 22.8727 19.1191 22.5968 18.8788 22.0171C18.5706 21.2735 18.3697 21.5239 23.0053 16.8721C25.296 14.5733 27.2275 12.5788 27.2976 12.4399C27.8903 11.2647 27.0204 9.87269 25.7036 9.88925C25.4285 9.89269 25.1614 9.95339 24.9614 10.0578C24.7743 10.1555 23.0186 11.8565 20.5864 14.2965C18.2702 16.6202 16.4159 18.4191 16.2725 18.4814C15.6651 18.7459 14.9878 18.4789 14.7381 17.8765C14.4342 17.1432 14.3141 17.2999 18.0852 13.5127C21.4235 10.16 21.471 10.1078 21.6037 9.65159C21.7168 9.2623 21.7237 9.1248 21.6472 8.783C21.54 8.30409 21.1454 7.80065 20.6983 7.57261C20.3335 7.38644 19.6175 7.37175 19.2192 7.54214ZM28.8099 33.127C28.3609 33.3641 28.2036 33.7471 28.2036 34.6034V35.3096H27.4974C26.9438 35.3096 26.7246 35.3436 26.4828 35.4669C26.1362 35.6438 25.8599 36.0939 25.8599 36.4815C25.8599 36.8692 26.1362 37.3192 26.4828 37.4961C26.7246 37.6194 26.9438 37.6534 27.4974 37.6534H28.2036V38.3596C28.2036 38.9132 28.2376 39.1325 28.3609 39.3742C28.5378 39.7208 28.9878 39.9971 29.3755 39.9971C29.7631 39.9971 30.2132 39.7208 30.3901 39.3742C30.5134 39.1325 30.5474 38.9132 30.5474 38.3596V37.6534H31.2536C31.8072 37.6534 32.0264 37.6194 32.2681 37.4961C32.6148 37.3192 32.8911 36.8692 32.8911 36.4815C32.8911 36.0939 32.6148 35.6438 32.2681 35.4669C32.0264 35.3436 31.8072 35.3096 31.2536 35.3096H30.5474V34.6034C30.5474 33.7332 30.3908 33.3611 29.9244 33.1232C29.5395 32.9268 29.1869 32.928 28.8099 33.127Z" fill="#00BEF2"/></symbol><symbol viewBox="0 0 8 14" fill="none" id="svg-facebook"><path d="M2.25 4.66667H0.5V7H2.25V14H5.16667V7H7.29117L7.5 4.66667H5.16667V3.69425C5.16667 3.13717 5.27867 2.91667 5.81708 2.91667H7.5V0H5.27867C3.181 0 2.25 0.923416 2.25 2.69208V4.66667Z" fill="#2C334D"/></symbol><symbol viewBox="0 0 40 40" fill="none" id="svg-flooded-house"><path fill-rule="evenodd" clip-rule="evenodd" d="M19.0266 1.75695C18.4016 1.9247 18.0047 2.11036 17.554 2.44595C17.3381 2.6067 14.164 5.65845 10.5005 9.22753C2.90503 16.6274 3.38399 16.0751 3.38991 17.4279C3.39279 18.0792 3.42343 18.2431 3.62287 18.6728C3.90303 19.2764 4.37343 19.7814 4.90663 20.0505C5.24239 20.2201 5.45751 20.2579 6.24663 20.2865L7.18663 20.3205V22.9191V25.5177L8.40663 26.1154C9.90039 26.8472 10.4507 27.0068 11.2666 26.9444C12.0019 26.8883 12.5281 26.7032 13.8466 26.0369L14.8666 25.5216V23.3464C14.8666 21.6872 14.8949 21.0581 14.986 20.694C15.3473 19.2489 16.4101 18.1383 17.79 17.7639C18.4574 17.5828 21.5158 17.5828 22.1833 17.7639C23.5631 18.1383 24.6259 19.2489 24.9873 20.694C25.0783 21.0582 25.1066 21.6875 25.1066 23.349V25.5268L26.2066 26.0734C27.8102 26.8702 27.9677 26.9187 28.9466 26.9168C29.9149 26.9149 30.0837 26.862 31.7266 26.0459L32.7866 25.5194V22.9199V20.3205L33.7266 20.2904C34.6293 20.2616 34.6873 20.2486 35.1866 19.9626C36.457 19.235 36.9813 17.5218 36.3469 16.171C36.1541 15.7604 35.3598 14.9573 29.4872 9.23395C25.8343 5.67403 22.6311 2.6042 22.3689 2.41228C22.1069 2.22028 21.6706 1.9837 21.3995 1.88653C20.7608 1.65753 19.6279 1.59561 19.0266 1.75695ZM1.54263 27.0806C0.771349 27.4502 0.554629 28.5104 1.11455 29.1746C1.40471 29.5189 1.65831 29.6065 2.54663 29.6697C3.52575 29.7393 4.25247 29.9773 5.74663 30.7178C8.43423 32.0497 9.11863 32.2507 10.9866 32.2569C12.8723 32.2633 13.6113 32.0575 16.0666 30.8422C18.1887 29.7919 18.9889 29.5738 20.3866 29.6648C21.457 29.7344 22.1329 29.9571 23.8266 30.7981C26.3502 32.0512 27.0826 32.2604 28.9466 32.2604C30.8109 32.2604 31.5439 32.0509 34.0666 30.7978C35.7414 29.9659 36.3921 29.7526 37.5723 29.649C38.4505 29.572 38.6505 29.4829 38.9817 29.0209C39.2129 28.6982 39.2129 27.9077 38.9817 27.585C38.6088 27.0649 38.4581 27.01 37.4396 27.0247C36.0032 27.0454 34.8616 27.3931 32.9246 28.3999C31.1687 29.3128 30.1277 29.637 28.9578 29.6356C27.7521 29.6342 26.9903 29.4009 25.0266 28.4314C22.5763 27.2218 21.8321 27.0122 19.9866 27.0122C18.1229 27.0122 17.3845 27.2229 14.8641 28.4734C13.181 29.3084 12.5 29.535 11.4514 29.6089C10.0567 29.7073 9.21607 29.4757 7.02663 28.3899C4.94631 27.3582 4.07383 27.0842 2.62663 27.0079C2.00055 26.9749 1.72447 26.9934 1.54263 27.0806ZM1.54263 33.7473C0.771349 34.1169 0.554629 35.177 1.11455 35.8413C1.40471 36.1855 1.65831 36.2732 2.54663 36.3364C3.52575 36.4059 4.25247 36.6439 5.74663 37.3844C8.43423 38.7164 9.11863 38.9174 10.9866 38.9236C12.8723 38.9299 13.6113 38.7242 16.0666 37.5089C18.1887 36.4585 18.9889 36.2404 20.3866 36.3314C21.457 36.4011 22.1329 36.6238 23.8266 37.4648C26.3502 38.7179 27.0826 38.927 28.9466 38.927C30.8109 38.927 31.5439 38.7176 34.0666 37.4644C35.7414 36.6325 36.3921 36.4193 37.5723 36.3157C38.4505 36.2387 38.6505 36.1495 38.9817 35.6875C39.2129 35.3649 39.2129 34.5744 38.9817 34.2517C38.6088 33.7315 38.4581 33.6767 37.4396 33.6914C36.0032 33.712 34.8616 34.0598 32.9246 35.0666C31.1687 35.9794 30.1277 36.3037 28.9578 36.3023C27.7521 36.3009 26.9903 36.0675 25.0266 35.0981C22.5763 33.8884 21.8321 33.6789 19.9866 33.6789C18.1229 33.6789 17.3845 33.8895 14.8641 35.14C13.181 35.9751 12.5 36.2017 11.4514 36.2756C10.0567 36.3739 9.21607 36.1424 7.02663 35.0565C4.94631 34.0249 4.07383 33.7509 2.62663 33.6746C2.00055 33.6416 1.72447 33.6601 1.54263 33.7473Z" fill="#00BEF2"/></symbol><symbol viewBox="0 0 22 22" fill="none" id="svg-gruzy"><path fill-rule="evenodd" clip-rule="evenodd" d="M14.0977 3.21798C13.9416 3.29026 13.8017 3.43895 13.7423 3.59556C13.7116 3.67657 13.6973 4.98358 13.6973 7.71529V11.7164H13.2377H12.7781L12.7158 11.5373C11.8409 9.02113 10.5829 5.52638 10.4872 5.34642C10.2061 4.81724 9.6826 4.38541 9.0733 4.18025L8.74524 4.06978L7.01727 4.05592L5.2893 4.04201L5.09998 4.13878C4.99588 4.19201 4.86784 4.29998 4.8155 4.37875L4.72033 4.52196V6.97745V9.43294L3.48757 9.45076C2.1508 9.47011 2.05825 9.48381 1.55709 9.73677C1.01068 10.0125 0.526423 10.5733 0.328213 11.1598C0.234102 11.4382 0.2325 11.478 0.220025 13.8C0.207887 16.0645 0.210753 16.1685 0.292431 16.4341C0.496416 17.0975 1.08983 17.5325 1.79088 17.5325H2.04919L2.12526 17.7863C2.40388 18.7165 3.39907 19.398 4.38317 19.3324C5.31029 19.2706 6.13381 18.6356 6.3882 17.7863L6.46427 17.5325H7.40155H8.33887L8.40377 17.7537C8.61682 18.48 9.29098 19.1048 10.0561 19.2851C10.814 19.4638 11.7258 19.1722 12.2223 18.5922C12.4137 18.3687 12.6339 17.9751 12.7079 17.7244L12.7584 17.5536L17.06 17.5325C21.3225 17.5116 21.2203 17.5325 21.4781 17.4245C21.7358 17.3165 21.7549 17.1351 21.7756 16.9367C21.8007 16.6959 21.6569 16.4085 21.4521 16.2902C21.3082 16.207 21.2287 16.2046 18.1757 16.1933L15.0468 16.1818L15.0359 9.88508C15.0249 3.59973 15.0248 3.58823 14.938 3.47208C14.8902 3.40806 14.8016 3.31866 14.741 3.27344C14.6013 3.16917 14.2657 3.14022 14.0977 3.21798ZM16.6231 5.02135C16.5749 5.04474 16.5038 5.11748 16.465 5.18302C16.4021 5.2896 16.3947 5.5032 16.3947 7.20681C16.3947 9.28176 16.395 9.28526 16.6354 9.3948C16.7754 9.4586 21.4085 9.4586 21.5486 9.3948C21.7889 9.28526 21.7893 9.28176 21.7893 7.20681C21.7893 5.13185 21.7889 5.12835 21.5486 5.01882C21.4871 4.99083 21.1221 4.97309 20.6072 4.97309H19.7663V5.37516C19.7663 5.69193 19.7487 5.8117 19.6833 5.93987C19.4423 6.4124 18.7417 6.4124 18.5006 5.93987C18.4353 5.8117 18.4177 5.69193 18.4177 5.37516V4.97309L17.5642 4.97596C17.0825 4.97756 16.6726 4.99732 16.6231 5.02135ZM8.81722 5.53375C9.24281 5.74275 9.22266 5.69871 10.3313 8.8383C10.8845 10.405 11.3372 11.6935 11.3372 11.7016C11.3372 11.7097 10.3829 11.7164 9.21651 11.7164C6.87144 11.7164 6.8255 11.7119 6.48358 11.4511C6.38125 11.3731 6.25393 11.2178 6.1867 11.0892L6.06899 10.8639V8.12638V5.3889L7.32282 5.40226L8.57665 5.41562L8.81722 5.53375ZM16.6231 10.416C16.5749 10.4394 16.5038 10.5121 16.465 10.5777C16.4021 10.6842 16.3947 10.8978 16.3947 12.6014C16.3947 14.6764 16.395 14.6799 16.6354 14.7894C16.7754 14.8532 21.4085 14.8532 21.5486 14.7894C21.7889 14.6799 21.7893 14.6764 21.7893 12.6014C21.7893 10.5265 21.7889 10.523 21.5486 10.4135C21.4871 10.3855 21.1221 10.3677 20.6072 10.3677H19.7663V10.7698C19.7663 11.2452 19.6892 11.4422 19.444 11.5938C19.1183 11.7951 18.6732 11.6727 18.5006 11.3345C18.4353 11.2063 18.4177 11.0866 18.4177 10.7698V10.3677L17.5642 10.3706C17.0825 10.3722 16.6726 10.392 16.6231 10.416ZM4.69252 16.3207C5.18022 16.5904 5.29043 17.2643 4.91643 17.6902C4.38283 18.298 3.37167 17.919 3.37167 17.1114C3.37167 16.4022 4.07664 15.9803 4.69252 16.3207ZM10.78 16.2333C11.059 16.3036 11.3494 16.5997 11.4175 16.8835C11.5169 17.2978 11.3318 17.6965 10.9524 17.8855C10.5831 18.0696 10.2125 18.011 9.92447 17.723C9.63645 17.435 9.57782 17.0644 9.76191 16.695C9.88013 16.4578 10.0943 16.2823 10.3356 16.2251C10.5341 16.178 10.5624 16.1785 10.78 16.2333Z" fill="#00BEF2"/></symbol><symbol viewBox="0 0 40 40" fill="none" id="svg-home-insurance"><path fill-rule="evenodd" clip-rule="evenodd" d="M20.745 0.0871328C20.4875 0.234809 11.2206 7.34944 11.1148 7.48063C10.9415 7.69558 10.9951 8.149 11.2186 8.35918C11.3968 8.52671 11.505 8.55171 12.1562 8.5757L12.8924 8.60273V14.6371V20.6714L13.094 20.8609L13.2956 21.0503H21.0185H28.7413L28.9429 20.8609L29.1445 20.6714V14.6371V8.60273L29.8807 8.5757C30.5319 8.55171 30.6401 8.52671 30.8183 8.35918C31.0636 8.12861 31.0968 7.64862 30.8824 7.43515C30.8069 7.35991 29.9279 6.67255 28.929 5.90753L27.113 4.51663V3.22537V1.9341L26.8846 1.70571C26.6301 1.45114 26.4307 1.42208 26.1029 1.59163C25.8101 1.74306 25.7847 1.83104 25.7847 2.69483C25.7847 3.09957 25.7653 3.43071 25.7414 3.43071C25.7176 3.43071 24.7419 2.69772 23.5732 1.80182C22.4044 0.905837 21.3714 0.132295 21.2775 0.0828353C21.066 -0.0288203 20.9454 -0.0278046 20.745 0.0871328ZM22.8937 16.87V19.6829H21.0185H19.1432V16.87V14.0571H21.0185H22.8937V16.87ZM27.3084 25.3143C26.6318 25.542 24.8496 26.4577 24.8479 26.5784C24.8475 26.6106 24.9142 26.637 24.9963 26.637C25.0784 26.637 25.4666 26.7419 25.859 26.8701L26.5726 27.1033L28.132 26.3228C28.9898 25.8935 29.6915 25.5102 29.6915 25.4709C29.6915 25.4316 29.573 25.3263 29.4283 25.2369C29.0195 24.9842 28.1997 25.0142 27.3084 25.3143ZM32.4262 25.7693C32.0934 25.8774 28.1083 27.8156 27.9843 27.9296C27.9693 27.9435 28.116 28.1207 28.3105 28.3237C28.5049 28.5266 28.76 28.8718 28.8772 29.0907C28.9944 29.3097 29.0981 29.4991 29.1077 29.5116C29.1172 29.5241 30.418 28.8226 31.9984 27.9525L34.8717 26.3707L34.5534 26.0882C34.0141 25.6096 33.2637 25.4971 32.4262 25.7693ZM0 33.3966V40L2.98868 39.9795L5.97737 39.9591L5.99737 33.3761L6.01729 26.7932H3.00869H0V33.3966ZM11.9311 27.1181C10.7309 27.2283 9.51104 27.7217 7.99389 28.7107L7.34474 29.1338V33.4003V37.6668L7.59868 37.5148C8.54287 36.9497 9.46987 36.482 9.64591 36.482C9.75983 36.482 10.3443 36.6057 10.9446 36.7569C17.2201 38.3373 22.6341 38.9463 24.9643 38.3342C25.2746 38.2527 26.8262 37.2012 32.5044 33.2246C36.4365 30.4708 39.7411 28.1468 39.8479 28.0603C40.0379 27.9063 40.0392 27.8974 39.9136 27.6339C39.7303 27.2495 39.3349 27.084 38.5007 27.0426C37.6701 27.0011 36.4075 27.1475 35.9814 27.3344C35.8095 27.4098 34.2976 28.2283 32.6216 29.1532C30.9456 30.0782 29.4225 30.9121 29.2369 31.0062C28.829 31.2132 17.4137 33.4687 17.1319 33.3979C16.717 33.2938 16.5139 32.806 16.7228 32.4156C16.8759 32.1295 16.2716 32.2657 24.5345 30.6552C26.1891 30.3327 27.605 30.05 27.6812 30.027C27.8105 29.988 27.8083 29.9649 27.649 29.6814C27.2938 29.0494 26.4779 28.4853 25.4331 28.1494L24.808 27.9485L20.8966 27.9573L16.985 27.966L16.4038 27.7663C15.4937 27.4536 14.3182 27.1884 13.6346 27.1414C13.2908 27.1178 12.9217 27.0887 12.8142 27.0767C12.7068 27.0647 12.3094 27.0833 11.9311 27.1181Z" fill="#00BEF2"/></symbol><symbol viewBox="0 0 40 40" fill="none" id="svg-insurance"><path fill-rule="evenodd" clip-rule="evenodd" d="M11.8744 2.96329C3.45804 6.17048 3.7321 6.0472 3.46421 6.74861C3.35663 7.03017 3.34585 7.93064 3.37023 14.6052C3.40015 22.8224 3.38499 22.5204 3.86999 24.5658C5.24257 30.3545 9.40031 35.2004 15.7073 38.362C17.3779 39.1994 19.4716 39.9955 20.0037 39.9955C20.5369 39.9955 22.6035 39.1973 24.4041 38.2959C28.2648 36.3631 31.5133 33.5704 33.6051 30.3861C34.6906 28.7335 35.6507 26.5027 36.11 24.5658C36.5938 22.5253 36.5791 22.82 36.6098 14.6062C36.6351 7.83111 36.6252 7.03517 36.5125 6.74001C36.2467 6.04415 36.4581 6.13908 28.0592 2.94408C22.0785 0.668998 20.2316 -0.00350193 19.9733 1.3696e-05C19.7287 0.00337307 17.5436 0.802904 11.8744 2.96329ZM26.4424 5.8954C30.0049 7.24978 33.0164 8.39665 33.1345 8.444L33.3494 8.53009V14.3295C33.3494 17.6046 33.3144 20.5676 33.2689 21.1365C33.0874 23.4084 32.6666 25.0123 31.7542 26.9095C30.8862 28.7146 30.0646 29.8539 28.5111 31.4067C26.3649 33.552 23.6543 35.251 20.5823 36.3767C19.9546 36.6067 19.9368 36.6038 18.5736 36.0479C14.5656 34.4137 11.1199 31.6787 9.10468 28.532C8.26929 27.2277 7.51015 25.4587 7.15117 23.9799C6.68413 22.056 6.68523 22.0752 6.65101 15.0271L6.6196 8.53533L7.5821 8.16853C11.1994 6.78994 19.9522 3.44572 19.958 3.44001C19.962 3.43611 22.88 4.54111 26.4424 5.8954ZM19.5603 10.0649C15.5856 11.7935 8.95929 14.741 8.8082 14.8476C8.1921 15.2824 8.2089 16.4138 8.83757 16.8258C8.93835 16.8918 11.4196 18.0011 14.3514 19.291C18.4373 21.0885 19.7552 21.6361 19.9951 21.6361C20.2346 21.6361 21.5225 21.1026 25.4811 19.3636C28.3262 18.1138 30.7934 17.0151 30.9635 16.9222C31.1337 16.8293 31.3535 16.6338 31.4518 16.4878C31.7789 16.0022 31.6363 15.177 31.1677 14.8433C31.0525 14.7613 28.5871 13.6498 25.689 12.3733C20.3921 10.0402 19.9768 9.88369 19.5603 10.0649ZM11.6306 21.4692C11.6306 22.6959 11.9291 23.5027 12.6144 24.1292C13.4601 24.902 16.136 26.0842 17.8806 26.4556C18.8182 26.6552 21.1618 26.6552 22.0994 26.4556C24.0357 26.0434 26.7626 24.7983 27.5432 23.9701C27.8677 23.6257 28.1752 23.0019 28.272 22.4915C28.3464 22.0994 28.3819 20.8549 28.3187 20.8549C28.3019 20.8549 26.7286 21.5424 24.8226 22.3826C22.9166 23.2228 21.1652 23.9611 20.9306 24.0232C20.4367 24.1539 19.6335 24.1672 19.1373 24.0527C18.9475 24.0091 17.1974 23.2717 15.2482 22.4141C13.299 21.5565 11.6876 20.8549 11.6673 20.8549C11.6472 20.8549 11.6306 21.1313 11.6306 21.4692Z" fill="#00BEF2"/></symbol><symbol viewBox="0 0 8 10" fill="none" id="svg-local"><path fill-rule="evenodd" clip-rule="evenodd" d="M3.7496 0.00471446C3.30229 0.0558668 3.04598 0.111199 2.75819 0.218699C1.99161 0.505046 1.35178 1.03081 0.91614 1.73237C0.505632 2.39341 0.316042 3.25046 0.410632 4.01743C0.562507 5.24887 1.44096 6.9493 2.89757 8.83138C3.24206 9.27651 3.68491 9.80954 3.78641 9.90124C3.92061 10.0225 4.08639 10.0225 4.22059 9.90124C4.3221 9.80954 4.76495 9.27651 5.10944 8.83138C6.42042 7.13747 7.26071 5.59854 7.52661 4.4046C7.59503 4.09733 7.61682 3.89694 7.61653 3.57798C7.61567 2.63954 7.23958 1.74321 6.56296 1.06696C6.00362 0.507937 5.34448 0.169324 4.56991 0.0430738C4.38649 0.0131715 3.88194 -0.0104223 3.7496 0.00471446ZM4.23159 1.81108C4.9605 1.90995 5.56409 2.43339 5.76175 3.13802C5.81385 3.3238 5.83356 3.69731 5.8019 3.89964C5.71149 4.47766 5.33161 4.98602 4.79452 5.24774C4.47776 5.40208 4.15479 5.46022 3.82284 5.42262C3.56538 5.39346 3.43473 5.35604 3.21249 5.24774C2.6754 4.98602 2.29551 4.47766 2.2051 3.89964C2.17344 3.69731 2.19315 3.3238 2.24526 3.13802C2.4895 2.26731 3.3512 1.69167 4.23159 1.81108Z" fill="#464A4B"/></symbol><symbol viewBox="0 0 41 40" fill="none" id="svg-magnifier"><path fill-rule="evenodd" clip-rule="evenodd" d="M10.2246 2.1532C9.89935 2.28707 9.59922 2.57519 9.45545 2.89172C9.31524 3.20064 9.29791 3.47532 9.29622 5.41587L9.29436 7.59329L5.8015 9.92174C3.37715 11.5378 2.30829 12.0196 2.15524 12.5098C2.15524 12.5098 1.88901 13.372 2.13258 13.8236C2.47207 14.4532 3.30104 14.7016 3.86831 14.4083C4.01562 14.3321 6.52404 12.6855 9.4426 10.7494C17.581 5.35016 17.9306 5.12403 18.0788 5.16411C18.1543 5.18458 21.291 7.24276 25.0491 9.73781C28.8073 12.2329 32.0007 14.3356 32.1456 14.4106C32.7083 14.7016 33.5707 14.4093 33.8768 13.8236C34.0614 13.4708 34.0484 12.8397 33.8497 12.4977C33.691 12.2246 33.1875 11.8835 22.1939 4.60157L18.4761 2.13899C18.4761 2.13899 18.1913 1.94152 17.9853 1.94512C17.785 1.94861 17.5127 2.14466 17.5127 2.14466L14.8187 3.93891C13.337 4.92572 12.0993 5.73307 12.0683 5.73307C12.0373 5.73307 11.9998 5.10779 11.985 4.34365C11.9559 2.83388 11.9227 2.72157 11.3885 2.32267C11.1653 2.15608 10.4653 2.05417 10.2246 2.1532ZM17.2013 8.09299C16.9688 8.23269 14.1337 10.1087 10.9011 12.262C5.99355 15.531 4.99922 16.2259 4.87524 16.473C4.73613 16.7502 4.7281 17.2996 4.74839 25.1411L4.77004 33.5132L4.97309 33.7979C5.0848 33.9545 5.33216 34.1535 5.52277 34.2401C5.84928 34.3883 6.18797 34.3975 11.3451 34.3993C14.3568 34.4003 16.8208 34.3776 16.8208 34.3488C16.8208 34.32 16.6893 34.08 16.5286 33.8154C15.8846 32.7554 15.3969 31.4044 15.1634 30.0346C14.9766 28.9392 15.038 26.8863 15.2871 25.8941C16.0021 23.046 17.5563 20.81 19.9097 19.2443C20.8681 18.6066 21.5455 18.2833 22.6736 17.925C23.8301 17.5576 24.5841 17.4501 25.954 17.4573C27.7416 17.4666 29.2211 17.8091 30.7174 18.56L31.2949 18.8497L31.2671 17.7206C31.2445 16.7962 31.2111 16.5484 31.0829 16.3533C30.9877 16.2082 28.5063 14.5076 24.7404 12.0068C18.6724 7.97705 18.5455 7.89815 18.0893 7.86889C17.6922 7.84335 17.5623 7.87616 17.2013 8.09299ZM24.6398 20.2318C21.4971 20.7203 18.9937 22.9346 18.0375 26.0713C17.8238 26.7723 17.8054 26.946 17.8042 28.2701C17.8027 29.9732 17.9289 30.5557 18.592 31.9064C19.708 34.1793 21.762 35.7665 24.2971 36.3146C25.2808 36.5274 26.8375 36.4885 27.8567 36.2258C28.6876 36.0116 29.8686 35.5061 30.3665 35.1515L30.6193 34.9715L33.0041 37.3469C35.7887 40.1204 35.9463 40.2224 36.8288 39.8215C37.5081 39.513 37.7843 38.5754 37.3841 37.9365C37.2878 37.7827 36.1645 36.6144 34.8879 35.3403L32.5668 33.0236L32.8124 32.6244C33.2362 31.9358 33.6436 30.9708 33.8368 30.1983C34.1014 29.1404 34.1007 27.3971 33.8352 26.3354C32.8067 22.221 28.8289 19.5807 24.6398 20.2318ZM26.9285 22.9401C28.8809 23.3137 30.4796 24.7206 31.1109 26.621C31.3725 27.4084 31.4295 28.6119 31.2445 29.4434C30.7948 31.4643 29.2085 33.1069 27.2225 33.6078C26.9152 33.6854 26.3371 33.7465 25.9117 33.7465C24.9979 33.7465 24.273 33.5766 23.417 33.1619C22.5402 32.7371 21.4705 31.6632 21.0292 30.7648C20.5752 29.8404 20.4318 29.1326 20.481 28.0587C20.5472 26.6139 21.011 25.515 21.9793 24.508C23.2717 23.164 25.0894 22.5882 26.9285 22.9401Z" fill="#00BEF2"/></symbol><symbol viewBox="0 0 40 40" fill="none" id="svg-maintenance"><path fill-rule="evenodd" clip-rule="evenodd" d="M7.29037 6.58533C3.29526 10.2176 0.0149804 13.2443 0.000843292 13.3111C-0.0239943 13.4287 1.26233 14.9919 1.38386 14.9919C1.41682 14.9919 1.89819 14.578 2.45352 14.0721C3.26144 13.3362 12.7118 4.75362 14.0253 3.56305C14.4777 3.15296 14.7868 3.15288 15.2393 3.56282C17.6819 5.77476 26.0285 13.3621 26.2413 13.5638L26.5251 13.8329L26.9833 13.5221C27.2354 13.3511 27.6964 13.0837 28.0079 12.9278C28.3194 12.7719 28.5742 12.633 28.5742 12.6192C28.5742 12.5587 14.7347 0.0170723 14.6493 2.72853e-05C14.597 -0.0103717 11.2855 2.95303 7.29037 6.58533ZM22.1388 2.9965C22.1127 3.06453 22.0922 3.4955 22.0931 3.95431L22.0948 4.78841L22.7061 5.33573C23.0422 5.63675 23.8498 6.36953 24.5007 6.96407L25.6843 8.0451V5.45895V2.87281H23.9352C22.4124 2.87281 22.18 2.88884 22.1388 2.9965ZM9.07079 9.97024L3.58746 14.9529L3.58418 21.3643C3.58105 27.5847 3.5855 27.7831 3.73312 28.0256C4.06086 28.5636 4.00837 28.5551 7.14751 28.5807L9.97986 28.6039L10.002 24.3585L10.0241 20.1133L10.2584 19.6894C10.5214 19.2136 11.0252 18.8018 11.5081 18.6679C11.7187 18.6095 12.7876 18.5888 14.7885 18.6045C17.5402 18.626 17.7787 18.6387 18.0614 18.7791C18.4753 18.9847 18.8749 19.4002 19.0747 19.8326C19.2363 20.1822 19.2411 20.2993 19.2626 24.3973L19.2847 28.6031L19.8851 28.5803L20.4854 28.5576L21.8782 26.9547C22.6444 26.0731 23.3551 25.2457 23.4576 25.1161L23.6441 24.8803L23.4174 24.2389C23.0366 23.162 22.9167 22.425 22.9178 21.1688C22.9188 19.9424 23.0449 19.1504 23.3971 18.1586C23.7103 17.2768 24.3474 16.1265 24.9144 15.4191L25.4415 14.7613L20.0871 9.89213C17.1422 7.21412 14.6926 5.015 14.6435 5.00531C14.5943 4.99553 12.0867 7.22976 9.07079 9.97024ZM30.2417 13.5834C26.4959 14.5664 24.0141 18.0702 24.3653 21.8798C24.4452 22.7467 24.6172 23.4559 24.923 24.179C25.2056 24.8474 25.2554 25.0923 25.149 25.2913C25.104 25.3755 23.0922 27.7281 20.6784 30.5194C18.2645 33.3107 16.1733 35.7528 16.0312 35.9463C15.2961 36.9474 15.4136 38.3363 16.3091 39.2327C17.1919 40.1165 18.5977 40.2549 19.5651 39.5535C19.7381 39.428 21.9498 36.9276 24.4799 33.9969C27.5193 30.4764 29.1443 28.6523 29.2689 28.621C29.3727 28.5949 29.7772 28.6579 30.1679 28.7611C30.7904 28.9253 31.0425 28.9478 32.2061 28.9426C33.7552 28.9356 34.2878 28.8232 35.5038 28.2465C37.1668 27.4579 38.5305 26.0691 39.2914 24.3892C39.6168 23.6707 39.8961 22.5196 39.9528 21.6629L40.0005 20.9451L39.7607 20.7051C39.5025 20.4466 39.1104 20.3843 38.8801 20.5653C38.8134 20.6177 38.0593 21.4698 37.2043 22.4589C36.3493 23.448 35.5955 24.3001 35.5291 24.3524C35.3913 24.4612 32.9127 24.4873 30.9195 24.4009C29.8445 24.3543 29.7051 24.332 29.526 24.1778C29.3395 24.0172 29.2984 23.8339 28.8796 21.2977C28.6337 19.8081 28.4519 18.5145 28.4758 18.4231C28.4997 18.3317 29.2387 17.4256 30.1181 16.4094C30.9974 15.3933 31.7829 14.4564 31.8636 14.3273C32.3521 13.546 31.6359 13.2175 30.2417 13.5834ZM11.7315 20.1101C11.3969 20.3448 11.3879 20.4701 11.4094 24.6091L11.43 28.5576H14.6323H17.8346L17.8577 24.6873C17.8732 22.0743 17.8532 20.7219 17.7961 20.5242C17.6455 20.0032 17.6011 19.996 14.5754 19.996C12.3511 19.996 11.8666 20.0154 11.7315 20.1101ZM20.1813 35.1218C20.3212 35.2618 20.3731 35.3986 20.3731 35.6275C20.3731 35.9016 20.3071 36.0183 19.8522 36.5498C18.8524 37.7177 18.7325 37.8228 18.4006 37.8228C17.8257 37.8228 17.5181 37.2098 17.8502 36.7261C18.0793 36.3923 19.2821 35.0206 19.3807 34.9805C19.639 34.8755 19.9987 34.9389 20.1813 35.1218Z" fill="#00BEF2"/></symbol><symbol viewBox="0 0 22 22" fill="none" id="svg-nedvig"><path fill-rule="evenodd" clip-rule="evenodd" d="M2.01914 1.04898C1.67119 1.13898 1.02616 1.41466 1.01234 2.11387C0.998521 2.81309 1.00128 11.1718 1.00128 11.1718C0.992639 18.222 1.03034 20.119 1.03803 20.4056C1.04571 20.6922 1.26072 20.8892 1.56418 20.9492C1.86763 21.0092 2.13302 20.9976 3.13653 20.9976H4.54794L4.55888 18.5855C4.55888 18.5855 4.584 16.8528 4.56979 16.1733C4.55558 15.4938 5.10288 15.1494 5.5862 15.1494C6.06953 15.1494 7.03263 15.1494 7.03263 15.1494C7.03263 15.1494 7.59414 15.1494 8.47907 15.1494C9.36399 15.1494 9.48127 15.6907 9.51472 16.349C9.54816 17.0072 9.55412 17.4515 9.55412 18.7779V20.9976H11.3136H13.0731L13.0631 12.2253C13.0631 12.2253 13.0587 3.93548 13.0529 3.45287C13.0472 2.97025 12.5395 2.67763 12.2725 2.54605C12.0315 2.42731 12.0679 2.43358 8.16633 1.83776C6.66125 1.60793 4.79934 1.32347 4.02878 1.20568C2.57211 0.982972 2.36708 0.958972 2.01914 1.04898ZM5.8645 4.48165C6.06114 4.57565 6.16595 4.74771 6.18385 5.0059C6.1964 5.18667 6.18303 5.24885 6.1075 5.36078C5.92736 5.62779 5.8274 5.65673 5.03476 5.67115C4.6056 5.67898 4.26486 5.66721 4.16916 5.64126C3.95935 5.58435 3.74681 5.34754 3.71033 5.13008C3.67523 4.92068 3.80791 4.6339 3.99895 4.50638C4.12585 4.42167 4.16741 4.41773 4.93128 4.41773C5.58792 4.41773 5.75465 4.42915 5.8645 4.48165ZM10.0627 4.50634C10.2498 4.63461 10.3419 4.77851 10.3641 4.97735C10.3897 5.20553 10.2737 5.44021 10.0733 5.56568C9.9307 5.65504 9.8974 5.65827 9.1241 5.65827C8.35081 5.65827 8.3175 5.65504 8.17489 5.56568C7.97454 5.44021 7.85855 5.20553 7.88408 4.97735C7.90632 4.77851 7.99838 4.63461 8.18548 4.50634C8.30921 4.42151 8.34909 4.41773 9.1241 4.41773C9.89912 4.41773 9.93899 4.42151 10.0627 4.50634ZM5.8645 7.00211C6.06114 7.09611 6.16595 7.26818 6.18385 7.52636C6.1964 7.70713 6.18303 7.76931 6.1075 7.88124C5.92736 8.14825 5.8274 8.1772 5.03476 8.19161C4.6056 8.19945 4.26486 8.18767 4.16916 8.16172C3.95935 8.10481 3.74681 7.86801 3.71033 7.65054C3.67523 7.44114 3.80791 7.15436 3.99895 7.02684C4.12585 6.94213 4.16741 6.93819 4.93128 6.93819C5.58792 6.93819 5.75465 6.94961 5.8645 7.00211ZM10.0627 7.0268C10.2498 7.15507 10.3419 7.29897 10.3641 7.49781C10.3897 7.72599 10.2737 7.96067 10.0733 8.08614C9.9307 8.1755 9.8974 8.17873 9.1241 8.17873C8.35081 8.17873 8.3175 8.1755 8.17489 8.08614C7.97454 7.96067 7.85855 7.72599 7.88408 7.49781C7.90632 7.29897 7.99838 7.15507 8.18548 7.0268C8.30921 6.94197 8.34909 6.93819 9.1241 6.93819C9.89912 6.93819 9.93899 6.94197 10.0627 7.0268ZM13.9325 14.8552V21L16.9133 20.989C16.9133 20.989 19.333 21.0077 19.8942 20.9779C20.4553 20.9482 20.9635 20.6726 20.9888 19.8752C21.014 19.0779 20.9888 15.4447 20.9888 15.4447V11.0142L20.8871 10.7958C20.7062 10.4074 20.3878 10.1163 20.0091 9.99303C19.8227 9.93242 14.0806 8.71059 13.9814 8.71047C13.9425 8.71039 13.9325 9.96558 13.9325 14.8552ZM5.8645 9.52257C6.06114 9.61658 6.16595 9.78864 6.18385 10.0468C6.1964 10.2276 6.18303 10.2898 6.1075 10.4017C5.92736 10.6687 5.8274 10.6977 5.03476 10.7121C4.6056 10.7199 4.26486 10.7081 4.16916 10.6822C3.95935 10.6253 3.74681 10.3885 3.71033 10.171C3.67523 9.9616 3.80791 9.67482 3.99895 9.5473C4.12585 9.46259 4.16741 9.45865 4.93128 9.45865C5.58792 9.45865 5.75465 9.47007 5.8645 9.52257ZM10.0627 9.54726C10.2498 9.67553 10.3419 9.81943 10.3641 10.0183C10.3897 10.2465 10.2737 10.4811 10.0733 10.6066C9.9307 10.696 9.8974 10.6992 9.1241 10.6992C8.35081 10.6992 8.3175 10.696 8.17489 10.6066C7.97454 10.4811 7.85855 10.2465 7.88408 10.0183C7.90632 9.81943 7.99838 9.67553 8.18548 9.54726C8.30921 9.46243 8.34909 9.45865 9.1241 9.45865C9.89912 9.45865 9.93899 9.46243 10.0627 9.54726ZM5.8645 12.043C6.06114 12.137 6.16595 12.3091 6.18385 12.5673C6.1964 12.748 6.20668 12.7882 6.10823 12.9536C6.00977 13.1191 5.8274 13.2181 5.03476 13.2325C4.6056 13.2404 4.26486 13.2286 4.16916 13.2026C3.95935 13.1457 3.74681 12.9089 3.71033 12.6915C3.67523 12.4821 3.80791 12.1953 3.99895 12.0678C4.12585 11.9831 4.16741 11.9791 4.93128 11.9791C5.58792 11.9791 5.75465 11.9905 5.8645 12.043ZM10.0627 12.0677C10.2498 12.196 10.3419 12.3399 10.3641 12.5387C10.3897 12.7669 10.2737 13.0016 10.0733 13.1271C9.9307 13.2164 9.8974 13.2197 9.1241 13.2197C8.35081 13.2197 8.3175 13.2164 8.17489 13.1271C7.97454 13.0016 7.85855 12.7669 7.88408 12.5387C7.90632 12.3399 7.99838 12.196 8.18548 12.0677C8.30921 11.9829 8.34909 11.9791 9.1241 11.9791C9.89912 11.9791 9.93899 11.9829 10.0627 12.0677ZM18.2178 12.2769C18.4229 12.4313 18.4868 12.5571 18.4868 12.8061C18.4868 13.0551 18.4712 13.193 18.2661 13.3475C18.1673 13.4219 18.0456 13.4176 17.3406 13.4292C16.4701 13.4436 16.3412 13.4206 16.1664 13.22C15.9619 12.9854 15.9552 12.6422 16.1506 12.4083C16.3324 12.1907 16.4094 12.1758 17.3015 12.1863C18.0489 12.195 18.1181 12.2019 18.2178 12.2769ZM18.2178 14.7974C18.4229 14.9518 18.4868 15.0776 18.4868 15.3266C18.4868 15.5756 18.4229 15.7014 18.2178 15.8558C18.119 15.9303 18.0456 15.9381 17.3406 15.9497C16.4701 15.9641 16.3412 15.9411 16.1664 15.7405C15.9619 15.5059 15.9552 15.1627 16.1506 14.9287C16.3324 14.7111 16.4094 14.6963 17.3015 14.7067C18.0489 14.7155 18.1181 14.7223 18.2178 14.7974ZM18.2178 17.3178C18.4229 17.4723 18.4868 17.598 18.4868 17.8471C18.4868 18.096 18.4229 18.2219 18.2178 18.3763C18.119 18.4507 18.0456 18.4585 17.3406 18.4702C16.4701 18.4845 16.3412 18.4615 16.1664 18.2609C15.9619 18.0263 15.9552 17.6832 16.1506 17.4492C16.3324 17.2316 16.4094 17.2167 17.3015 17.2272C18.0489 17.2359 18.1181 17.2428 18.2178 17.3178Z" fill="#00BEF2"/></symbol><symbol viewBox="0 0 22 22" fill="none" id="svg-ocenka"><path fill-rule="evenodd" clip-rule="evenodd" d="M5.65653 2.05976C5.03032 2.20346 4.57172 2.24135 4.22349 2.88431C3.87527 3.52726 4.03241 3.58754 4.05379 10.9986C4.05379 18.939 4.05313 18.5476 4.32965 19.0385C4.48622 19.3165 4.89883 19.635 5.19995 19.7794C5.66098 20.0005 5.62523 19.9988 9.75239 19.9994L13.5626 20L13.5742 17.632C13.5855 15.3118 13.5876 15.2618 13.6733 15.1531C13.7215 15.0921 13.8136 15.0049 13.8781 14.9593C13.993 14.8781 14.0458 14.8762 16.4977 14.8655L19 14.8545L18.9994 9.32C18.9987 3.31248 19.0068 3.5312 18.7669 3.0831C18.6143 2.79816 18.2757 2.38951 17.982 2.24135C17.4699 1.98305 17.6751 1.9982 11.505 2.00121C6.87543 2.0035 5.85738 2.01367 5.65653 2.05976ZM15.9687 4.67205C16.1915 4.82949 16.261 4.95792 16.261 5.21205C16.261 5.46617 16.1915 5.59461 15.9687 5.75205C15.8524 5.83427 15.8176 5.83499 11.6187 5.84684C8.72747 5.85504 7.33676 5.84532 7.23068 5.81622C6.79924 5.69792 6.63253 5.13955 6.92906 4.80606C7.14856 4.55921 6.90897 4.57082 11.5762 4.58042C15.8207 4.5891 15.8523 4.58979 15.9687 4.67205ZM15.9687 7.24386C16.1915 7.40131 16.261 7.52974 16.261 7.78387C16.261 8.03799 16.1915 8.16642 15.9687 8.32387C15.8524 8.40608 15.8176 8.40681 11.6187 8.41866C8.72747 8.42686 7.33676 8.41714 7.23068 8.38804C6.79924 8.26974 6.63253 7.71137 6.92906 7.37788C7.14856 7.13103 6.90897 7.14264 11.5762 7.15224C15.8207 7.16092 15.8523 7.16161 15.9687 7.24386ZM15.9687 9.81568C16.1915 9.97312 16.261 10.1016 16.261 10.3557C16.261 10.6098 16.1915 10.7382 15.9687 10.8957C15.8524 10.9779 15.8176 10.9786 11.6187 10.9905C8.72747 10.9987 7.33676 10.989 7.23068 10.9599C6.79924 10.8416 6.63253 10.2832 6.92906 9.9497C7.14856 9.70284 6.90897 9.71446 11.5762 9.72406C15.8207 9.73274 15.8523 9.73342 15.9687 9.81568ZM14.9234 18.0455V19.9488L15.1464 19.9113C15.4687 19.857 16.0641 19.6625 16.3974 19.5026C17.6766 18.8891 18.6539 17.6562 18.9097 16.3332L18.9466 16.1423H16.935H14.9234V18.0455Z" fill="#00BEF2"/></symbol><symbol viewBox="0 0 10 10" fill="none" id="svg-phone"><path d="M9.73776 7.33898L8.3393 5.94345C7.83985 5.44505 6.99078 5.64443 6.791 6.29234C6.64116 6.74092 6.14171 6.99012 5.6922 6.89042C4.6933 6.64122 3.34478 5.34537 3.09505 4.29873C2.94522 3.85014 3.24489 3.35174 3.6944 3.20224C4.34368 3.00288 4.54346 2.15559 4.04401 1.65719L2.64555 0.261662C2.24599 -0.0872205 1.64665 -0.0872205 1.29703 0.261662L0.348071 1.20863C-0.600887 2.20543 0.447962 4.84697 2.79538 7.18946C5.14281 9.53196 7.7899 10.6285 8.7888 9.63164L9.73776 8.68467C10.0874 8.28595 10.0874 7.68787 9.73776 7.33898Z" fill="#464A4B"/></symbol><symbol viewBox="0 0 56 56" fill="none" id="svg-pie-chart"><path fill-rule="evenodd" clip-rule="evenodd" d="M23.4914 0.232053C22.693 0.63871 22.5064 1.13308 22.5064 2.84273V4.24316L22.0416 4.36446C20.681 4.71927 18.4568 5.54527 17.2017 6.16171C14.6106 7.43429 12.6747 8.84643 10.5761 10.9946C8.11987 13.5088 6.36396 16.2688 5.19387 19.4547C4.56988 21.1537 4.56267 21.1092 5.34743 20.3963C6.50637 19.3435 7.60942 18.9078 9.11628 18.9078C10.1724 18.9078 11.1435 19.173 11.9517 19.6819C12.2525 19.8713 13.1744 20.6943 14.0004 21.5107C14.8265 22.3272 15.5206 22.9738 15.5429 22.9476C15.5652 22.9215 15.7851 22.4935 16.0314 21.9966C17.2639 19.5099 19.4987 17.2564 21.9777 16.0002L22.5064 15.7322V16.2464C22.5064 17.257 23.1159 18.024 24.0579 18.1985C24.9156 18.3576 25.0425 18.2573 29.1595 14.1638C31.2847 12.0508 33.1181 10.1392 33.2337 9.91612C33.4675 9.46473 33.5033 8.90833 33.3283 8.44229C33.1565 7.98444 25.6146 0.446866 25.0767 0.195303C24.4971 -0.0756184 24.0765 -0.0658841 23.4914 0.232053ZM35.5648 5.35824C36.6176 6.51718 37.0533 7.62022 37.0533 9.12708C37.0533 10.1832 36.7882 11.1543 36.2792 11.9625C36.0898 12.2633 35.2669 13.1852 34.4504 14.0112C33.6339 14.8373 32.9873 15.5314 33.0135 15.5537C33.0396 15.5761 33.4676 15.7959 33.9645 16.0422C36.4366 17.2675 38.7171 19.5198 39.9392 21.943L40.2289 22.5172H39.7147C38.7041 22.5172 37.9371 23.1268 37.7626 24.0687C37.6035 24.9264 37.7038 25.0533 41.7973 29.1703C43.9103 31.2955 45.8219 33.1289 46.045 33.2445C46.5324 33.4969 47.1215 33.5142 47.5943 33.2898C47.7855 33.1991 49.6959 31.3656 51.8398 29.2156C55.1301 25.9156 55.7584 25.2355 55.8706 24.8519C56.1243 23.9844 55.7587 23.1342 54.9669 22.7509C54.552 22.55 54.2901 22.5172 53.1011 22.5172H51.7179L51.5966 22.0524C51.2418 20.6918 50.4158 18.4676 49.7994 17.2125C48.5268 14.6214 47.1147 12.6855 44.9666 10.5869C42.4508 8.12915 39.7245 6.39555 36.5064 5.20687C34.8088 4.57993 34.8514 4.57304 35.5648 5.35824ZM8.33753 22.6865C8.15454 22.7769 6.25153 24.6091 4.10865 26.7582C0.819963 30.0565 0.191932 30.7364 0.0797128 31.12C-0.174037 31.9876 0.191604 32.8377 0.983369 33.221C1.39834 33.4219 1.66018 33.4547 2.8492 33.4547H4.23235L4.35365 33.9196C4.70846 35.2801 5.53446 37.5043 6.1509 38.7594C7.42348 41.3505 8.83562 43.2864 10.9837 45.385C13.4995 47.8428 16.2258 49.5764 19.4439 50.7651C21.1415 51.392 21.0989 51.3989 20.3855 50.6137C19.3327 49.4547 18.897 48.3517 18.897 46.8448C18.897 45.7887 19.1621 44.8176 19.6711 44.0094C19.8605 43.7086 20.6834 42.7867 21.4999 41.9607C22.3164 41.1346 22.963 40.4405 22.9368 40.4182C22.9106 40.3959 22.4827 40.176 21.9858 39.9297C19.5988 38.7465 17.7169 36.9527 16.2763 34.4876C16.0334 34.0718 15.8345 33.6693 15.8345 33.5932C15.8345 33.5035 15.996 33.4547 16.2922 33.4547C17.2449 33.4547 18.0173 32.8225 18.1877 31.9032C18.3468 31.0455 18.2465 30.9186 14.153 26.8016C12.04 24.6764 10.1284 22.843 9.90531 22.7274C9.42143 22.4767 8.79559 22.4604 8.33753 22.6865ZM40.0196 33.7871C39.1908 35.576 37.4885 37.6334 35.8982 38.7683C35.0585 39.3674 33.7641 40.1266 33.5824 40.1266C33.4919 40.1266 33.4439 39.9619 33.4439 39.6516C33.4439 38.9584 33.0491 38.2816 32.4639 37.9722C31.9065 37.6775 31.5136 37.6559 30.9521 37.8894C30.4474 38.0993 23.0283 45.4565 22.7172 46.0558C22.4642 46.543 22.4468 47.1319 22.6713 47.6051C22.762 47.7963 24.5955 49.7067 26.7456 51.8506C30.0455 55.1409 30.7256 55.7692 31.1092 55.8814C31.9767 56.1351 32.8269 55.7695 33.2102 54.9777C33.4111 54.5628 33.4439 54.3009 33.4439 53.1119V51.7288L33.9087 51.6075C37.3829 50.7013 40.8903 48.9272 43.4517 46.7804C46.8079 43.9676 49.2919 40.4765 50.7542 36.5172C51.3812 34.8196 51.3881 34.8623 50.6029 35.5756C49.4439 36.6284 48.3409 37.0641 46.834 37.0641C45.7122 37.0641 44.7426 36.7792 43.8728 36.1941C43.5209 35.9573 42.6185 35.1458 41.8674 34.3904C41.1163 33.6352 40.4736 33.0172 40.4391 33.0172C40.4046 33.0172 40.2159 33.3637 40.0196 33.7871Z" fill="#00BEF2"/></symbol><symbol viewBox="0 0 40 40" fill="none" id="svg-protection"><path fill-rule="evenodd" clip-rule="evenodd" d="M25.2975 1.51852C22.8621 2.35087 20.7643 3.08626 20.6357 3.15274C20.507 3.21923 20.32 3.38844 20.2199 3.52876L20.0379 3.78383V8.00259C20.0379 12.6932 20.0385 12.7001 20.5928 14.3659C21.1741 16.1133 22.1495 17.6124 23.7489 19.2169C25.2612 20.7341 26.8683 21.9023 28.7461 22.8492C29.7769 23.3691 30.0535 23.4088 30.699 23.1295C31.7239 22.6862 33.5615 21.5476 34.7254 20.6348C35.5857 19.9601 37.2525 18.2307 37.8274 17.4165C38.8049 16.0316 39.481 14.5013 39.8121 12.9245C39.9464 12.285 39.9598 11.8391 39.9598 8.00259V3.78383L39.7778 3.52876C39.6778 3.38844 39.4852 3.21641 39.3498 3.14641C38.8693 2.8979 30.2187 -0.00514939 29.9742 6.86041e-06C29.8374 0.00289749 27.7328 0.686179 25.2975 1.51852ZM34.591 6.72719C35.0965 6.85446 35.6403 7.40173 35.7689 7.91259C35.8761 8.33829 35.8261 8.75087 35.6244 9.10469C35.5483 9.23821 34.4096 10.7172 33.0938 12.3913C30.4542 15.7498 30.4046 15.7984 29.6143 15.8046C29.3559 15.8066 29.0672 15.7538 28.9051 15.6747C28.7547 15.6013 27.911 14.926 27.0301 14.1739C25.3247 12.7178 24.9989 12.3263 24.9989 11.7332C24.9989 10.5071 26.2334 9.65384 27.3036 10.1402C27.4754 10.2184 27.9906 10.6043 28.4483 10.9979C28.9061 11.3915 29.3103 11.712 29.3468 11.71C29.3832 11.7081 30.2215 10.6695 31.2098 9.40219C32.9753 7.13813 33.2678 6.83134 33.7768 6.70993C34.1337 6.62485 34.1893 6.62602 34.591 6.72719ZM10.1551 13.4769C9.51089 13.6455 8.52824 14.1591 8.05949 14.5723C7.26621 15.2715 7.02277 15.7285 5.15722 20.0217L3.40144 24.062L2.98808 24.2953C2.02003 24.8416 0.856284 26.2192 0.437925 27.3139C0.0299558 28.3816 -0.00121601 28.7634 3.39936e-05 32.6774C0.000971494 35.6179 0.0229246 36.3763 0.119175 36.7844C0.579175 38.7359 2.5005 40.1364 4.48746 39.9684C6.79011 39.7738 8.34808 37.952 8.35667 35.444L8.35824 34.9948H18.3498H28.3414L28.375 35.8737C28.3995 36.5159 28.4543 36.878 28.5786 37.2183C29.2057 38.9359 30.9482 40.0908 32.7332 39.9719C34.4169 39.8597 35.8243 38.8074 36.4278 37.2095C36.5964 36.7632 36.601 36.6602 36.6227 32.7766C36.6439 29.0062 36.6368 28.7679 36.4871 28.1673C36.2786 27.3309 35.7332 26.2443 35.2186 25.6402C34.5544 24.8604 34.5366 24.8539 33.9846 25.1893C33.1828 25.6763 31.6059 26.3928 31.0447 26.5252C30.2444 26.7138 29.1085 26.643 28.3948 26.36C27.0752 25.8369 25.5446 24.9721 24.0856 23.9253L23.2894 23.3541H15.3551C10.3004 23.3541 7.42074 23.3267 7.42074 23.2786C7.42074 23.2371 7.98292 21.9118 8.66996 20.3334C9.67644 18.0216 9.97605 17.4056 10.2116 17.1645C10.7132 16.6507 10.8402 16.6354 14.5917 16.6354C17.2141 16.6354 17.8973 16.615 17.8634 16.5377C17.4899 15.6859 17.1572 14.6407 16.9187 13.569L16.8709 13.3541L13.7278 13.3593C11.2571 13.3634 10.4929 13.3885 10.1551 13.4769ZM10.9042 28.6068C11.0723 28.7242 11.2977 28.9502 11.4051 29.1089C11.5714 29.3544 11.6004 29.4865 11.6004 29.9957C11.6004 30.5209 11.5743 30.6314 11.3868 30.8998C11.2694 31.0681 11.0435 31.2936 10.885 31.401C10.5979 31.5955 10.5873 31.5964 8.52042 31.6209C6.23581 31.648 6.02332 31.6193 5.57121 31.2224C4.6705 30.4316 4.87105 29.0719 5.97542 28.4819C6.17699 28.3742 6.51691 28.3592 8.40417 28.3749L10.5985 28.3932L10.9042 28.6068ZM30.9042 28.6068C31.0723 28.7242 31.2977 28.9502 31.4051 29.1089C31.5714 29.3544 31.6004 29.4865 31.6004 29.9957C31.6004 30.5209 31.5743 30.6314 31.3868 30.8998C31.2694 31.0681 31.0436 31.2936 30.885 31.401C30.5979 31.5955 30.5873 31.5964 28.5204 31.6209C26.2358 31.648 26.0233 31.6193 25.5712 31.2224C24.6705 30.4316 24.8711 29.0719 25.9754 28.4819C26.177 28.3742 26.5169 28.3592 28.4042 28.3749L30.5985 28.3932L30.9042 28.6068Z" fill="#00BEF2"/></symbol><symbol viewBox="0 0 40 40" fill="none" id="svg-satellite"><path fill-rule="evenodd" clip-rule="evenodd" d="M7.93177 0.13946C7.72765 0.234876 6.80132 1.10878 5.26224 2.65793C2.84793 5.08802 2.7372 5.2258 2.73556 5.80274C2.73376 6.39962 2.79019 6.46534 6.55774 10.2524C8.69861 12.4044 10.3268 13.9795 10.5106 14.0765C10.9018 14.2829 11.5026 14.294 11.8781 14.102C12.0285 14.0251 12.4772 13.6408 12.8751 13.2481L13.5986 12.5342L14.8674 13.803L16.1363 15.0718L13.8976 17.3187C12.6663 18.5544 11.6027 19.6779 11.534 19.8155C11.3768 20.1306 11.373 20.7939 11.5265 21.1175C11.5911 21.2534 12.2416 21.9616 12.9722 22.6912L14.3005 24.0178L13.2002 25.1202L12.0999 26.2224L11.4615 25.7931C8.27944 23.6534 4.14851 23.8351 1.14585 26.2469C0.364158 26.8747 0.0908832 27.2495 0.0280542 27.78C-0.0618912 28.5393 -0.0336807 28.5775 2.50917 31.132L4.84385 33.4775L2.57286 35.7426C1.32386 36.9884 0.233968 38.1383 0.150977 38.2977C0.0679084 38.4572 0 38.6959 0 38.8283C0 39.216 0.276401 39.6662 0.623132 39.8432C1.01042 40.0407 1.33191 40.0426 1.70279 39.8495C1.86221 39.7665 3.01227 38.6764 4.25846 37.427L6.52413 35.1554L8.82997 37.4579C11.1777 39.8023 11.4233 40.0009 11.9733 40C12.5011 39.9991 12.8359 39.8403 13.2915 39.3748C16.0972 36.5074 16.4845 31.9254 14.2073 28.5389L13.7781 27.9006L14.8803 26.8002L15.9826 25.6999L17.2711 26.9948C17.9797 27.7069 18.6901 28.3575 18.8495 28.4404C19.2064 28.6261 19.8404 28.6383 20.185 28.4664C20.3225 28.3977 21.4461 27.3342 22.6818 26.1029L24.9286 23.8642L26.1974 25.133L27.4663 26.4019L26.7523 27.1254C25.7933 28.0973 25.6209 28.4681 25.7947 29.1861C25.8824 29.5487 26.0739 29.7555 29.5661 33.2594C31.5895 35.2897 33.3625 37.0065 33.506 37.0745C33.8909 37.2572 34.2295 37.2918 34.6213 37.1883C34.9308 37.1067 35.2375 36.8306 37.3425 34.7388C38.8912 33.1998 39.7657 32.2727 39.861 32.0687C40.0471 31.6705 40.0469 31.2162 39.8608 30.8184C39.7625 30.6085 38.4986 29.2948 36.0138 26.82C32.8655 23.6842 32.2665 23.1216 32.0006 23.0499C31.2483 22.8471 30.923 22.9872 29.9457 23.9349L29.141 24.7152L27.8753 23.4494L26.6095 22.1836L28.4841 20.3077L30.3588 18.4318L25.9638 14.0367L21.5687 9.64164L19.6927 11.5164L17.8169 13.391L16.5511 12.1252L15.2853 10.8595L16.0655 10.0548C17.0133 9.07751 17.1534 8.75219 16.9505 7.99988C16.8789 7.73395 16.3162 7.13497 13.1805 3.98664C10.7056 1.50185 9.392 0.237924 9.1821 0.139695C8.78426 -0.0464477 8.32992 -0.046604 7.93177 0.13946ZM27.1778 8.64458L25.5515 10.2661L27.6444 12.3574L29.7373 14.4488L31.3574 12.8221C32.2484 11.9274 32.9774 11.1453 32.9774 11.0841C32.9774 10.9384 29.0615 7.02306 28.9159 7.02306C28.8544 7.02306 28.0723 7.75279 27.1778 8.64458Z" fill="#00BEF2"/></symbol><symbol viewBox="0 0 41 41" fill="none" id="svg-search"><path fill-rule="evenodd" clip-rule="evenodd" d="M2.20847 0.0586178C1.3965 0.251284 0.59602 0.924952 0.218924 1.7329L0 2.20186V17.4823V32.7627L0.218767 33.2317C0.505948 33.8472 1.10815 34.4518 1.71191 34.7307L2.18924 34.9512L10.4632 34.9725C17.1421 34.9897 18.726 34.9746 18.6791 34.8943C18.6471 34.8396 18.5182 34.6432 18.3926 34.4578C18.0933 34.0162 17.4524 32.6628 17.2381 32.0202C15.8835 27.9577 16.889 23.4452 19.8444 20.3241C21.8476 18.2085 24.437 16.9623 27.3826 16.6961C28.8509 16.5634 30.5884 16.7694 32.0176 17.2457C32.6604 17.4599 34.0143 18.1006 34.456 18.3997C34.6415 18.5254 34.838 18.6542 34.8927 18.6862C34.973 18.733 34.9881 17.1497 34.9709 10.4731L34.9496 2.20186L34.7053 1.69382C34.3936 1.04579 33.912 0.563927 33.2686 0.256286L32.7604 0.0133627L17.6312 0.0011696C9.00121 -0.00578671 2.37587 0.0189121 2.20847 0.0586178ZM24.9627 8.33178C24.942 14.1083 24.9395 14.1911 24.7805 14.4039C24.3959 14.9188 23.7849 15.1094 23.2583 14.8788C23.109 14.8135 21.7602 13.614 20.2609 12.2132C18.7615 10.8124 17.5098 9.66622 17.4791 9.66622C17.4484 9.66622 16.1947 10.8092 14.693 12.2061C13.1913 13.603 11.8433 14.8029 11.6974 14.8724C11.1861 15.1164 10.5574 14.9238 10.1692 14.4039C10.0101 14.1911 10.0076 14.1083 9.98691 8.33178L9.96596 4.47543H17.4748H24.9837L24.9627 8.33178Z" fill="#00BEF2"/><path fill-rule="evenodd" clip-rule="evenodd" d="M26.9143 20.1115C23.0341 20.8126 20.1902 24.0454 20.009 27.961C19.8268 31.8964 22.4279 35.3911 26.3021 36.4162C27.1682 36.6452 28.8673 36.6996 29.7801 36.5275C30.9026 36.3157 31.9725 35.8825 32.8438 35.2871L33.2347 35.0199L35.6973 37.4655C38.3567 40.1063 38.3404 40.0942 39.0357 39.9637C39.4205 39.8915 39.8881 39.4239 39.9603 39.0391C40.0908 38.3438 40.1029 38.3601 37.4621 35.7007L35.0165 33.2381L35.2837 32.8472C35.8791 31.9759 36.3123 30.906 36.5241 29.7835C36.6962 28.8707 36.6418 27.1716 36.4128 26.3055C36.017 24.8099 35.3139 23.5846 34.2163 22.4779C33.1859 21.4389 32.2053 20.8287 30.8502 20.3833C29.6888 20.0014 28.1223 19.8933 26.9143 20.1115ZM29.9511 22.7251C31.8921 23.3267 33.3478 24.7914 33.9503 26.7492C34.0632 27.1162 34.094 27.4648 34.0917 28.3519C34.0891 29.3702 34.0674 29.549 33.8787 30.1109C33.5728 31.0217 33.1647 31.6643 32.4138 32.4176C31.6655 33.1682 31.0281 33.5729 30.1075 33.8821C29.5456 34.0708 29.3668 34.0925 28.3485 34.0951C27.4614 34.0974 27.1128 34.0666 26.7458 33.9537C24.3382 33.2128 22.6705 31.1458 22.5103 28.7041C22.3203 25.8061 24.311 23.2011 27.1756 22.5991C27.9003 22.4468 29.251 22.5082 29.9511 22.7251Z" fill="#00BEF2"/></symbol><symbol viewBox="0 0 13 13" fill="none" id="svg-search-button"><path d="M6.39105 0.699951C3.25309 0.699951 0.7 3.25304 0.7 6.391C0.7 9.52914 3.25309 12.0821 6.39105 12.0821C9.52919 12.0821 12.0821 9.52914 12.0821 6.391C12.0821 3.25304 9.52919 0.699951 6.39105 0.699951ZM6.39105 11.0314C3.83236 11.0314 1.75066 8.94972 1.75066 6.39103C1.75066 3.83233 3.83236 1.75061 6.39105 1.75061C8.94974 1.75061 11.0314 3.83231 11.0314 6.391C11.0314 8.94969 8.94974 11.0314 6.39105 11.0314Z" fill="#363636" fill-opacity=".8"/></symbol><symbol viewBox="0 0 41 40" fill="none" id="svg-search-car"><path fill-rule="evenodd" clip-rule="evenodd" d="M6.91427 0.111529C3.03415 0.812564 0.190215 4.04536 0.00899499 7.96097C-0.173163 11.8964 2.42794 15.3911 6.30212 16.4162C7.16819 16.6452 8.86734 16.6996 9.78009 16.5275C10.9026 16.3157 11.9725 15.8825 12.8438 15.2871L13.2347 15.0199L15.6973 17.4655C18.3567 20.1063 18.3404 20.0942 19.0357 19.9637C19.4205 19.8915 19.8881 19.4239 19.9603 19.0391C20.0908 18.3438 20.1029 18.3601 17.4621 15.7007L15.0165 13.2381L15.2837 12.8472C15.8791 11.9759 16.3123 10.906 16.5241 9.78349C16.6962 8.87075 16.6418 7.1716 16.4128 6.30553C16.017 4.80988 15.3139 3.58457 14.2163 2.47786C13.1859 1.43894 12.2053 0.828747 10.8502 0.383281C9.68878 0.00137455 8.1223 -0.106748 6.91427 0.111529ZM9.95115 2.72514C11.8921 3.32666 13.3478 4.79143 13.9503 6.74919C14.0632 7.11625 14.094 7.46485 14.0917 8.35187C14.0891 9.37024 14.0674 9.54903 13.8787 10.1109C13.5728 11.0217 13.1647 11.6643 12.4138 12.4176C11.6655 13.1682 11.0281 13.5729 10.1075 13.8821C9.54563 14.0709 9.36683 14.0925 8.34847 14.0951C7.46145 14.0974 7.11284 14.0666 6.74579 13.9537C4.33818 13.2128 2.67046 11.1458 2.51034 8.70415C2.32029 5.80612 4.31097 3.2011 7.17562 2.59912C7.90034 2.44683 9.25105 2.5082 9.95115 2.72514ZM22.9547 16.9613C23.4715 18.1728 23.4301 19.5819 22.8424 20.7802C22.3131 21.8595 21.1449 22.828 19.9581 23.1715C19.334 23.3522 18.1607 23.3525 17.5345 23.1723C16.5726 22.8953 16.1575 22.5861 14.3683 20.8138L12.6874 19.1488L12.0389 19.3785C10.8185 19.8107 9.94763 19.9478 8.38756 19.9531C6.58365 19.9592 5.4606 19.7528 3.95072 19.1376C3.6391 19.0105 3.37532 18.9065 3.36453 18.9063C3.35374 18.9062 3.34499 22.6974 3.34499 27.3312C3.34499 35.3851 3.3514 35.7682 3.48993 36.0286C3.56968 36.1784 3.77193 36.3796 3.93946 36.4757C4.21856 36.6356 4.346 36.6503 5.4613 36.6516L6.67856 36.6528L6.6845 35.8124C6.69599 34.192 7.21448 32.9394 8.34636 31.798C9.26708 30.8696 10.1552 30.3745 11.3355 30.1316C13.3291 29.7213 15.3073 30.3624 16.737 31.8823C17.7841 32.9953 18.2885 34.264 18.2995 35.8124L18.3054 36.6528H21.2115C24.0965 36.6528 24.1194 36.6516 24.376 36.4769C24.5182 36.3801 24.7081 36.2017 24.798 36.0803C24.9615 35.8597 24.9616 35.8543 24.9821 26.7841C25.0026 17.7266 25.0023 17.7079 24.8397 17.3721C24.5984 16.8735 24.2562 16.6951 23.4612 16.6533L22.8088 16.6191L22.9547 16.9613ZM27.3777 22.7294C27.1803 22.819 26.9853 22.9908 26.8696 23.1772L26.6815 23.4796L26.6665 29.4603C26.6516 35.411 26.6522 35.4377 26.7933 34.7738C27.3066 32.3581 29.0309 30.611 31.3806 30.1256C33.3394 29.721 35.3304 30.3723 36.751 31.8823C37.798 32.9953 38.3024 34.264 38.3134 35.8124L38.3193 36.6528H38.7237C39.1705 36.6528 39.5214 36.4676 39.8085 36.0804C39.9664 35.8673 39.9728 35.7604 39.996 32.9532C40.0219 29.8217 39.9787 29.2359 39.6432 28.1722C38.9842 26.0823 37.5568 24.4076 35.594 23.4213C34.8876 23.0663 33.9477 22.7717 33.1811 22.6651C32.8465 22.6186 31.4759 22.5813 30.1353 22.5822C27.9282 22.5838 27.6676 22.5977 27.3777 22.7294ZM11.8968 31.7254C10.2115 31.9809 8.88564 33.1917 8.45636 34.8673C8.28897 35.5207 8.34104 36.6024 8.57042 37.2361C9.19124 38.9513 10.9399 40.1106 12.7265 39.9916C14.8666 39.849 16.5038 38.2122 16.6172 36.1017C16.661 35.2858 16.5531 34.7304 16.2135 34.0244C15.4409 32.4185 13.6427 31.4608 11.8968 31.7254ZM31.9107 31.7254C30.2254 31.9809 28.8996 33.1917 28.4703 34.8673C28.3029 35.5207 28.355 36.6024 28.5843 37.2361C29.2052 38.9513 30.9538 40.1106 32.7404 39.9916C34.8805 39.849 36.5178 38.2122 36.6311 36.1017C36.675 35.2858 36.567 34.7304 36.2274 34.0244C35.4548 32.4185 33.6566 31.4608 31.9107 31.7254Z" fill="#00BEF2"/></symbol><symbol viewBox="0 0 40 40" fill="none" id="svg-secure"><path fill-rule="evenodd" clip-rule="evenodd" d="M6.77143 0.0819531C6.1865 0.180078 5.59923 0.507969 5.18193 0.969453C4.91482 1.26484 4.18969 2.50391 2.67653 5.25063C1.50534 7.37656 0.547029 9.14477 0.547029 9.17992C0.547029 9.24445 14.4612 9.16273 14.5261 9.09773C14.5455 9.07844 14.7291 7.17297 14.9341 4.86336C15.1393 2.55375 15.3225 0.514688 15.3414 0.332031L15.3757 0L11.2631 0.00921875C9.00112 0.0142188 6.97993 0.0469531 6.77143 0.0819531ZM17.8925 0.0567188C17.8907 0.09 18.0753 2.14742 18.3027 4.62891L18.7162 9.14062H25.7635H32.8108L31.2074 6.26953C30.3256 4.69047 29.3346 2.91063 29.0053 2.31438C28.3188 1.07172 27.8739 0.558438 27.2162 0.250312L26.7653 0.0390625L22.3305 0.0176562C19.8913 0.00585938 17.8942 0.0234375 17.8925 0.0567188ZM4.70835 11.6992L0 11.72L0.00812728 19.3952C0.0126598 23.6165 0.0399331 28.0723 0.0687693 29.2969C0.118783 31.4222 0.12949 31.5395 0.30321 31.875C0.550155 32.352 1.05194 32.8605 1.52387 33.112L1.9146 33.3203L11.2783 33.3411C20.1974 33.3609 20.6402 33.3553 20.6004 33.2239C20.0749 31.4845 20.0447 31.1371 20.0447 26.8359C20.0447 22.9996 20.0478 22.9197 20.221 22.3691C20.559 21.2945 21.4637 20.2152 22.4418 19.7197C22.8048 19.5358 29.9236 16.9898 30.6336 16.79C31.1245 16.6518 32.3798 16.6723 32.8608 16.8263C33.0757 16.8952 33.2779 16.9518 33.3101 16.9523C33.3819 16.9533 33.3872 13.7305 33.3174 12.5195L33.2667 11.6406L21.3417 11.6595C14.783 11.6699 7.29799 11.6878 4.70835 11.6992ZM31.1025 20.1302C26.256 21.8209 23.9456 22.6716 23.7799 22.8263C23.3609 23.2175 23.3659 23.1691 23.3659 26.8609C23.3659 29.6073 23.3901 30.4305 23.4869 30.9855C24.0114 33.9924 26.0372 36.7302 29.3051 38.8488C30.263 39.4698 31.3501 40 31.6655 40C32.4483 40 34.9789 38.3751 36.5216 36.8819C38.2576 35.2015 39.2992 33.4594 39.7954 31.4062C39.942 30.7995 39.9588 30.4352 39.99 27.1875C40.0128 24.8127 39.9966 23.5409 39.9413 23.3561C39.7721 22.7911 39.6657 22.7407 35.6504 21.3255C33.582 20.5965 31.7917 20.0016 31.6719 20.0038C31.5521 20.0058 31.2959 20.0627 31.1025 20.1302ZM36.0258 26.5506C36.5488 26.9347 36.7296 27.6514 36.436 28.1769C36.2401 28.5274 31.8464 33.0597 31.5475 33.2194C31.2017 33.4042 30.7941 33.3912 30.418 33.1836C29.9806 32.942 27.6245 30.186 27.4998 29.7701C27.3668 29.3263 27.469 28.9417 27.8198 28.5657C28.1167 28.2476 28.1305 28.2422 28.6548 28.2422C29.2993 28.2422 29.3588 28.2813 30.1647 29.2347C30.4871 29.616 30.8231 29.9966 30.9115 30.0805L31.0722 30.2332L32.7805 28.4564C33.7199 27.4792 34.6323 26.5978 34.8079 26.4978C35.1797 26.2859 35.6957 26.3083 36.0258 26.5506Z" fill="#00BEF2"/></symbol><symbol viewBox="0 0 56 56" fill="none" id="svg-security"><path fill-rule="evenodd" clip-rule="evenodd" d="M26.6232 2.80768C24.7174 3.58608 23.6098 3.81792 21.4862 3.88322C20.0342 3.9278 19.3662 3.898 18.4745 3.74882C16.2843 3.38258 16.079 3.58877 15.6344 6.60034C14.8717 11.7675 15.4092 17.0455 17.1057 21.0483C19.021 25.5675 22.4653 28.8437 26.8088 30.2776C27.8998 30.6378 28.091 30.6382 29.1897 30.2835C35.3246 28.303 39.4585 22.6926 40.492 14.9443C40.7083 13.3234 40.7378 9.73679 40.5487 8.05634C40.3183 6.00831 40.0159 4.45666 39.7867 4.14676C39.3628 3.57365 39.0689 3.51608 37.6325 3.72552C34.5678 4.17207 31.8879 3.85645 29.1467 2.72592C28.6377 2.51604 28.1085 2.34781 27.9707 2.35207C27.8328 2.35632 27.2264 2.5614 26.6232 2.80768ZM32.9877 12.7638C33.3751 13.1278 33.5346 13.6797 33.3842 14.1356C33.2403 14.5715 27.4242 20.4179 27.0103 20.5427C26.3283 20.7483 26.0007 20.5421 24.2855 18.8268C22.9296 17.4709 22.6295 17.1119 22.5659 16.7692C22.3977 15.862 23.2547 14.9956 24.1536 15.1643C24.4553 15.2209 24.8128 15.4901 25.6102 16.2615L26.6668 17.2837L29.0414 14.9224C30.3474 13.6236 31.4916 12.5316 31.584 12.4956C31.9327 12.3598 32.7173 12.5098 32.9877 12.7638ZM19.1604 33.0421C18.4601 33.1795 17.6211 33.4652 16.968 33.7887C16.04 34.2483 3.58401 41.4577 3.58401 41.5352C3.58401 41.5908 8.35947 49.9361 8.43921 50.0199C8.44952 50.0307 13.2959 50.785 19.2089 51.6961C29.5882 53.2955 30.0181 53.3525 31.64 53.3459C33.0827 53.34 33.4755 53.2975 34.4206 53.046C35.026 52.8848 35.8072 52.6229 36.1566 52.4641C36.5061 52.3054 40.0638 50.4765 44.0626 48.3999C48.8516 45.913 51.4648 44.4945 51.719 44.2441C52.9725 43.0092 52.5548 40.8266 50.9356 40.1503C50.1236 39.8111 49.6781 39.8986 44.6236 41.39L39.7992 42.8134L39.4199 43.5509C38.8897 44.5816 37.9579 45.4857 36.9164 45.9803C35.4852 46.6601 35.1382 46.672 30.464 46.2035C25.0418 45.66 25.1168 45.6731 24.668 45.1886C24.3815 44.8793 24.304 44.6987 24.304 44.3404C24.304 43.4231 24.8515 42.8883 25.7904 42.8883C26.0596 42.8883 27.9899 43.0647 30.08 43.2803C34.428 43.7289 34.9395 43.7459 35.56 43.4633C36.137 43.2006 36.7628 42.5031 37.0158 41.8406C37.4014 40.8308 37.0083 39.4646 36.1456 38.8162C35.5881 38.3975 23.4927 33.2627 22.6354 33.0809C21.8262 32.9095 19.9439 32.8884 19.1604 33.0421Z" fill="#00BEF2"/></symbol><symbol viewBox="0 0 40 41" fill="none" id="svg-share"><path fill-rule="evenodd" clip-rule="evenodd" d="M26.6878 1.09255C25.2928 1.40529 24.1092 2.37118 23.5216 3.67654C23.4054 3.93448 22.9801 4.97666 22.5764 5.99242L21.8424 7.83931L21.5103 8.0155C21.057 8.25586 20.5045 8.86586 20.2519 9.40465L20.0424 9.8516V12.8219C20.0424 12.8219 20.0424 14.9202 20.0424 15.7922C20.0424 16.6641 20.7327 17.1695 21.25 17.4453C21.5322 17.5958 21.8808 17.5895 22.5051 17.5895C23.3371 17.5895 23.8206 17.3505 24.2188 17.0156C24.6169 16.6808 24.9561 15.9346 24.9937 15.0735L25.0256 14.3461H30.0105H34.9954L35.0272 15.0735C35.0649 15.9346 35.2063 16.606 35.7031 17.0547C36.278 17.574 36.668 17.6797 37.5 17.6797C38.1243 17.6797 38.3209 17.6839 38.8281 17.4453C39.3353 17.2067 39.9785 16.7813 39.9785 15.7922C39.9785 14.8031 39.9785 12.8219 39.9785 12.8219V9.8516L39.769 9.40465C39.5163 8.86562 38.9638 8.25585 38.5101 8.01518L38.1774 7.83876L37.3189 5.68234C36.8467 4.49634 36.3306 3.32464 36.1721 3.0785C35.6126 2.21023 34.8047 1.15627 33.255 1.01892C31.7053 0.881566 30.2059 1.00313 30.2059 1.00313C27.8876 0.99109 27.0444 1.01259 26.6878 1.09255ZM33.0936 3.6423C33.8137 3.91166 34.0726 4.28271 34.7811 6.06058L35.3886 7.58481L32.6996 7.60536C31.2206 7.6167 28.8004 7.6167 27.3214 7.60536L24.6323 7.58481L25.2405 6.06285C25.8403 4.562 26.1048 4.1052 26.5386 3.82099C27.0143 3.50934 27.2323 3.48808 29.988 3.48456C32.5028 3.48136 32.6886 3.49074 33.0936 3.6423ZM0.49715 21.0579C0.411151 21.0965 0.270425 21.2062 0.184426 21.3018C0.0304875 21.4728 0.0277511 21.6005 0.00742407 29.4335C-0.011183 36.611 -0.00101947 37.4037 0.110779 37.5155C0.218044 37.6227 0.531784 37.6394 2.44675 37.6394C4.52769 37.6394 4.67029 37.6302 4.85418 37.4857C4.96167 37.4012 5.0877 37.2341 5.1343 37.1144C5.18089 36.9947 6.04753 33.9719 7.06029 30.397C8.20712 26.3486 8.90098 23.7692 8.89988 23.5576C8.89754 23.0991 8.67246 22.6341 8.30579 22.3302C7.82779 21.9339 6.31835 21.5026 4.4062 21.2159C3.29431 21.0491 0.746547 20.9462 0.49715 21.0579ZM11.3627 24.2536C11.3387 24.3718 10.5524 27.1848 9.61547 30.5045L7.91199 36.5406L9.09088 37.0601C14.8646 39.6043 19.3223 41.0022 21.6551 41C24.0635 40.9978 28.9206 39.3578 33.9195 36.859C37.236 35.2011 39.6309 33.6159 39.9377 32.8756C40.0732 32.5485 39.9848 32.0577 39.7008 31.5605C39.308 30.8729 38.5811 30.4415 37.4767 30.2406C36.116 29.993 34.6113 30.3713 30.9877 31.8719C25.8351 34.0058 24.7432 34.3564 23.2513 34.3564C21.9887 34.3564 20.5384 33.9866 18.8379 33.2309C18.0267 32.8704 16.3039 31.9322 16.3565 31.8796C16.3717 31.8644 16.9083 31.9378 17.5487 32.0427C20.151 32.4692 21.3083 32.5854 23.0133 32.5917C24.4993 32.5972 24.7071 32.5813 25.2041 32.425C25.881 32.212 26.3503 31.8321 26.5356 31.347C26.731 30.8355 26.6632 29.9556 26.3929 29.4944C25.6717 28.2642 24.0048 27.5531 20.6545 27.0465L19.2606 26.8357L18.3224 26.3078C16.7009 25.3952 16.387 25.2351 15.6409 24.9402C14.7253 24.5785 13.6903 24.3146 12.5779 24.1595C11.4175 23.9977 11.4147 23.998 11.3627 24.2536Z" fill="#00BEF2"/></symbol><symbol viewBox="0 0 11 8" fill="none" id="svg-slider-arrow"><path d="M0.646446 3.64645C0.451184 3.84171 0.451184 4.15829 0.646446 4.35355L3.82843 7.53553C4.02369 7.7308 4.34027 7.7308 4.53553 7.53553C4.7308 7.34027 4.7308 7.02369 4.53553 6.82843L1.70711 4L4.53553 1.17157C4.7308 0.976311 4.7308 0.659728 4.53553 0.464466C4.34027 0.269204 4.02369 0.269204 3.82843 0.464466L0.646446 3.64645ZM11 3.5L1 3.5V4.5L11 4.5V3.5Z" fill="#2C334D" fill-opacity=".8"/></symbol><symbol viewBox="0 0 57 56" fill="none" id="svg-speedometer"><path fill-rule="evenodd" clip-rule="evenodd" d="M25.0643 3.95303C21.096 4.35411 16.7689 5.82947 13.3399 7.95058C12.3168 8.58342 10.536 9.88389 9.82877 10.5144L9.41358 10.8847L13.0678 14.5332L16.7219 18.1817L17.5299 17.5888C18.3741 16.9692 19.3249 16.378 20.1173 15.9798C21.6103 15.2296 24.1614 14.4504 25.6932 14.2766L26.3768 14.1992V9.01458C26.3768 4.14422 26.3652 3.83086 26.1854 3.84453C26.08 3.85252 25.5756 3.9013 25.0643 3.95303ZM29.658 9.01173V14.1955L30.2869 14.2712C33.1752 14.6198 36.354 15.9193 38.6658 17.6964L39.3064 18.189L42.9722 14.5231L46.638 10.8573L45.8316 10.1841C44.4497 9.03044 42.1466 7.55989 40.3221 6.6663C37.097 5.08681 34.1671 4.27634 30.2869 3.89058L29.658 3.82812V9.01173ZM6.31477 14.1013C4.54027 16.2288 2.67148 19.4959 1.67606 22.211C0.885063 24.3685 0.320359 26.9177 0.0722969 29.4511L0 30.1894H5.18306H10.3661L10.5068 29.1959C10.887 26.51 12.0482 23.6684 13.6524 21.499L14.3674 20.532L10.7099 16.8745L7.05239 13.2169L6.31477 14.1013ZM45.3146 16.8843L41.6677 20.5324L42.3825 21.4992C43.9799 23.6596 45.1536 26.5384 45.5351 29.2323L45.6706 30.1894H50.844C54.9232 30.1894 56.0174 30.1603 56.0174 30.052C56.0174 29.5002 55.6362 26.8588 55.407 25.8216C54.4952 21.6975 52.3277 17.2278 49.7281 14.111C49.3268 13.6299 48.9902 13.2362 48.98 13.2362C48.9698 13.2362 47.3203 14.8778 45.3146 16.8843ZM27.0877 26.7961C23.6422 27.5567 21.9091 31.053 23.4253 34.1848C24.0961 35.5706 26.2461 37.2763 33.1816 41.9251C35.0034 43.1461 37.5466 44.8196 38.8332 45.6438C40.9913 47.0264 41.2123 47.1425 41.6881 47.1425C42.8545 47.1425 43.6302 45.9905 43.1819 44.9241C42.8714 44.1854 36.519 34.6003 34.4678 31.7753C32.0265 28.4131 31.1058 27.4876 29.743 27.0256C28.9599 26.7601 27.7315 26.654 27.0877 26.7961ZM0.0722969 34.2089C0.719469 40.8168 3.27141 46.4997 7.66073 51.1072C8.60672 52.1003 9.02847 52.2923 9.77911 52.0718C10.1684 51.9574 10.6841 51.4971 12.9514 49.2405C16.5577 45.6513 16.5618 45.6403 14.9473 43.7973C12.4014 40.8909 10.8587 37.5617 10.4511 34.0936L10.3779 33.4706H5.18897H0L0.0722969 34.2089ZM45.5837 34.0936C45.397 35.6816 44.8818 37.5402 44.234 38.9632L43.8495 39.8072L44.9172 41.4572C45.5045 42.3647 46.1055 43.4055 46.2527 43.7701C46.7608 45.0278 46.684 46.5839 46.0529 47.821C45.7598 48.3957 44.7666 49.4473 44.2591 49.7207C44.0488 49.834 43.8768 49.9557 43.8768 49.9913C43.8768 50.0269 44.3077 50.4777 44.8343 50.9931C46.4564 52.5803 46.9928 52.5728 48.5301 50.9414C51.9851 47.2753 54.4497 42.5239 55.4749 37.5534C55.6621 36.6459 56.0174 34.0619 56.0174 33.608C56.0174 33.4997 54.9219 33.4706 50.8372 33.4706H45.6568L45.5837 34.0936Z" fill="#00BEF2"/></symbol><symbol viewBox="0 0 40 40" fill="none" id="svg-surveyor"><path fill-rule="evenodd" clip-rule="evenodd" d="M21.4846 0.111551C20.8268 0.276159 20.3344 0.557249 19.8383 1.05138C19.3275 1.56036 19.0187 2.12082 18.8764 2.7973C18.8174 3.07753 18.7897 4.84516 18.7905 8.26597C18.7917 13.8229 18.7992 13.9249 19.2644 14.738C19.3941 14.9648 19.6771 15.3235 19.8932 15.535C20.6426 16.2689 21.4487 16.5628 22.7119 16.5628H23.4767V18.4409C23.4767 20.169 23.4893 20.3436 23.634 20.6273C23.8109 20.9739 24.2609 21.2503 24.6486 21.2503C24.7809 21.2503 25.0196 21.1824 25.1791 21.0993C25.3384 21.0163 26.453 19.9617 27.6558 18.7556L29.8428 16.5628H33.3229C37.1068 16.5628 37.319 16.543 38.1041 16.1157C38.6031 15.8441 39.1833 15.2667 39.4823 14.7442C39.9514 13.9241 39.9585 13.8289 39.9597 8.26597C39.9605 4.78907 39.9332 3.08206 39.8723 2.7973C39.5843 1.45169 38.5023 0.369048 37.1641 0.0876455C36.5417 -0.0432903 22.0149 -0.0211031 21.4846 0.111551ZM32.2286 6.09522C32.5753 6.27209 32.8516 6.72217 32.8516 7.10982C32.8516 7.24216 32.7837 7.48083 32.7008 7.64028C32.5147 7.99754 29.0017 11.5 28.6564 11.6724C28.0296 11.9854 27.63 11.7874 26.4368 10.5724C25.324 9.4394 25.2734 9.36541 25.2741 8.86971C25.275 8.17918 25.718 7.73621 26.4085 7.73536C26.8675 7.73473 27.0049 7.81395 27.6766 8.46714L28.1657 8.94268L29.5516 7.56559C30.3139 6.80818 31.043 6.1335 31.1719 6.06631C31.4941 5.89843 31.8627 5.90858 32.2286 6.09522ZM9.37607 7.23958C7.53328 7.63434 5.86338 9.02737 5.1612 10.7555C4.84511 11.5334 4.69972 12.4308 4.75238 13.2787C4.80988 14.2046 4.96112 14.7822 5.35846 15.5927C6.18087 17.2705 7.83695 18.5239 9.63028 18.8258C9.86028 18.8646 9.11912 18.8916 7.67289 18.8973C5.88369 18.9044 5.20612 18.9351 4.74324 19.0303C2.53827 19.4835 0.873992 21.0074 0.183845 23.2053C0.00345698 23.7797 0.000488281 23.8436 0.000488281 27.1095C0.000488281 30.3725 0.00361324 30.4399 0.183455 31.0157C0.802977 32.9999 2.23241 34.4124 4.29731 35.0809C4.77691 35.2362 5.05089 35.2623 6.52384 35.293L8.2035 35.3279L8.93638 33.0742C9.33942 31.8346 9.68458 30.7781 9.7034 30.7264C9.72942 30.6548 9.22654 30.6267 7.60335 30.6092C4.52996 30.5759 4.72699 30.8157 4.72699 27.1095C4.72699 24.2415 4.74035 24.1529 5.22487 23.8072C5.5658 23.5641 6.23189 23.5641 6.57282 23.8072C7.0375 24.1387 7.07071 24.3117 7.07071 26.4002V28.2844L8.80115 28.2634L10.5315 28.2423L11.2035 26.2448C11.573 25.1461 11.9342 24.1583 12.0062 24.0495C12.3084 23.5926 12.2942 23.594 16.8371 23.594H20.9942L20.9445 23.3294C20.8623 22.891 20.5121 22.1038 20.1591 21.5639C19.2681 20.201 17.7993 19.2479 16.187 18.9862C15.9211 18.943 14.6839 18.9033 13.4378 18.8979C12.0206 18.8918 11.3108 18.8648 11.5423 18.8258C13.3356 18.5239 14.9917 17.2705 15.8141 15.5927C16.2114 14.7822 16.3627 14.2046 16.4202 13.2787C16.6267 9.95283 13.8824 7.08114 10.531 7.11622C10.1961 7.11966 9.67645 7.17521 9.37607 7.23958ZM13.7475 26.0353C13.6869 26.1956 9.10193 39.9582 9.10193 39.98C9.10193 39.991 11.0721 40 13.48 40C17.711 40 17.8684 39.9947 18.1658 39.843C18.3379 39.7552 18.5309 39.5752 18.6034 39.4348C18.7036 39.2412 19.258 37.6939 19.258 37.6082C19.258 37.5985 19.0734 37.5302 18.8479 37.4562C17.6938 37.0778 16.7444 36.0076 16.5219 34.8344C16.4176 34.2844 16.4253 31.5886 16.5327 31.0782C16.6766 30.394 16.9821 29.8412 17.4967 29.3337C18.3672 28.4752 19.1514 28.237 20.8733 28.3077C21.4673 28.3322 22.0373 28.3627 22.14 28.3754C22.3069 28.3962 22.3462 28.3411 22.5111 27.856C22.7396 27.1837 22.7411 26.9201 22.5185 26.5317C22.1678 25.9203 22.3066 25.9377 17.792 25.9377C14.6578 25.9377 13.7764 25.9589 13.7475 26.0353ZM19.3956 30.7822C18.8652 31.0696 18.7893 31.3431 18.7893 32.9688C18.7893 34.6234 18.8623 34.8748 19.427 35.1628C19.7156 35.3101 19.8553 35.3247 20.7345 35.3006C21.6236 35.2762 21.762 35.2524 22.1628 35.0555C22.9996 34.6446 23.4334 33.9337 23.436 32.9688C23.4374 32.4837 23.4002 32.3066 23.2197 31.939C22.9721 31.4349 22.5924 31.0674 22.0745 30.8307C21.7838 30.698 21.5336 30.6643 20.7033 30.6461C19.806 30.6266 19.6537 30.6425 19.3956 30.7822ZM2.39717 38.0559C2.42014 39.1516 2.43772 39.2794 2.59655 39.5021C2.9274 39.9659 3.12334 40.0055 4.96964 39.982L6.62735 39.9609L6.96703 38.9453C7.15391 38.3867 7.32633 37.8682 7.35023 37.793C7.39015 37.6676 7.30984 37.6563 6.37853 37.6563C5.8201 37.6563 5.08831 37.619 4.75214 37.5735C4.24582 37.505 3.12201 37.1741 2.51436 36.9147C2.37952 36.8572 2.37327 36.9179 2.39717 38.0559Z" fill="#00BEF2"/></symbol><symbol viewBox="0 0 57 56" fill="none" id="svg-team-leader"><path fill-rule="evenodd" clip-rule="evenodd" d="M16.2168 9.11584C15.7055 9.40535 15.3187 9.93626 15.2145 10.4918C15.1307 10.9375 15.4119 13.2056 15.7384 14.7178C16.2714 17.1863 16.4503 17.499 18.4968 19.5367C19.4066 20.4425 20.7786 21.7409 21.5456 22.4221L22.9401 23.6604V35.109V46.5576L23.2117 47.0987C23.659 47.9899 24.5475 48.3949 25.6153 48.1947C26.1133 48.1011 26.7448 47.55 27.0017 46.9844C27.1867 46.5773 27.2011 46.1097 27.2033 40.4483L27.2057 34.3506H27.8585H28.5113L28.5421 40.5577C28.5718 46.5384 28.5809 46.7782 28.7917 47.1359C28.912 47.3401 29.1995 47.66 29.4307 47.8468C29.8142 48.1568 29.9203 48.1866 30.6418 48.1866C31.5424 48.1866 31.9962 47.9596 32.4656 47.2748L32.7292 46.8901L32.7838 35.4479L32.8385 24.0057L34.4245 22.5944C35.2967 21.8182 36.7548 20.4422 37.6646 19.5364C39.7111 17.499 39.89 17.1864 40.423 14.7178C40.7495 13.2056 41.0307 10.9375 40.9469 10.4918C40.6436 8.87642 38.4907 8.28459 37.4438 9.52884C37.019 10.0336 36.9792 10.1713 36.7227 12.0286C36.598 12.9313 36.3979 14.053 36.2782 14.5212C36.0274 15.5019 35.9441 15.6002 33.2317 18.1209L31.6562 19.585H28.0807H24.5053L22.9297 18.1209C20.2173 15.6002 20.1341 15.5019 19.8833 14.5212C19.7635 14.053 19.5635 12.9313 19.4388 12.0286C19.1822 10.1713 19.1425 10.0336 18.7177 9.52884C18.1325 8.83332 17.0354 8.6522 16.2168 9.11584ZM27.3151 9.04332C26.0797 9.25496 25.2209 9.68371 24.4507 10.4733C21.7374 13.2547 23.2816 17.8605 27.1494 18.523C30.2475 19.0537 33.1052 16.1923 32.5888 13.0762C32.2906 11.2759 30.9642 9.72943 29.3067 9.2496C28.7152 9.07832 27.7153 8.97475 27.3151 9.04332ZM5.67492 18.169C4.74677 18.3561 3.92984 18.9975 3.45384 19.9131C3.07891 20.6342 3.08569 22.0451 3.46774 22.793C4.03484 23.903 5.09819 24.5421 6.37963 24.5429C9.00397 24.5444 10.4836 21.6276 8.96886 19.4388C8.29708 18.4679 6.88756 17.9247 5.67492 18.169ZM49.2193 18.1679C47.6963 18.4723 46.5651 19.822 46.5651 21.335C46.5651 22.5272 47.3498 23.7414 48.4711 24.2842C49.1813 24.6281 50.3302 24.6431 51.0628 24.3182C51.7431 24.0165 52.3665 23.4336 52.6937 22.793C53.0826 22.0315 53.0826 20.6385 52.6937 19.877C52.0476 18.6123 50.5881 17.8943 49.2193 18.1679ZM12.8776 18.2654C10.8677 18.879 9.75166 21.0923 10.4777 23.0247C10.7753 23.8172 11.5112 24.638 12.2738 25.0287C13.0656 25.4342 14.3336 25.4933 15.2031 25.1654C15.9216 24.8944 16.7766 24.1317 17.1229 23.4529C18.0995 21.5387 17.1792 19.1336 15.1794 18.3737C14.6078 18.1564 13.4178 18.1004 12.8776 18.2654ZM40.9537 18.3722C39.3559 19.0161 38.405 20.7029 38.7011 22.3682C38.8546 23.2307 39.148 23.7782 39.7942 24.4076C40.5502 25.144 41.3195 25.4174 42.4635 25.3565C43.5376 25.2992 44.2127 24.9869 44.9379 24.2114C46.5816 22.4542 46.0611 19.6373 43.8854 18.5156C43.1363 18.1294 41.7272 18.0605 40.9537 18.3722ZM3.28617 25.2142C3.073 25.3068 2.8548 25.529 2.72617 25.7841C2.28484 26.6591 0.186704 31.6057 0.124032 31.919C0.0369698 32.3545 0.349673 33.0019 0.746267 33.207C1.19241 33.4377 1.7512 33.4056 2.10274 33.129C2.26866 32.9985 2.54428 32.5959 2.71534 32.2343L3.0263 31.5768L3.05736 37.2616C3.09203 43.5757 3.0578 43.2892 3.83272 43.7617C4.45703 44.1423 5.19706 43.9679 5.64878 43.3335C5.86545 43.0291 5.87595 42.8576 5.90352 39.1482L5.93228 35.2803L6.23306 35.2457L6.53384 35.2111L6.53461 39.0739C6.53527 42.6736 6.54927 42.9579 6.74144 43.2493C7.20213 43.9481 7.91077 44.1482 8.60519 43.7758C9.36677 43.3674 9.37759 43.2988 9.37759 38.8794V34.9283L9.78775 34.0653L10.1979 33.2022L10.2526 39.7149C10.3028 45.6976 10.323 46.2516 10.5002 46.522C11.1625 47.5325 12.6713 47.4312 13.1992 46.3407C13.415 45.895 13.4245 45.6935 13.4245 41.5895V37.3037H13.7526H14.0807V41.6284C14.0807 45.7127 14.0926 45.9765 14.2959 46.3746C14.7212 47.2086 15.8402 47.4672 16.6202 46.9118C17.2099 46.4919 17.194 46.6676 17.2526 39.9287L17.3073 33.6397L17.5978 34.2593C17.7576 34.6001 18.0141 34.9614 18.1678 35.0621C19.1382 35.698 20.4245 35.0681 20.4245 33.957C20.4245 33.2915 17.6214 26.776 17.1504 26.3467C16.7118 25.9469 16.3228 25.9072 13.2408 25.9482C10.7457 25.9815 10.5788 25.9966 10.2877 26.2153L9.97916 26.4471L9.76041 25.9975C9.64009 25.7502 9.37442 25.4367 9.17 25.3008C8.80994 25.0614 8.71795 25.0539 6.21688 25.058C4.26267 25.0613 3.55053 25.0992 3.28617 25.2142ZM46.9914 25.3008C46.787 25.4367 46.5213 25.7502 46.401 25.9975L46.1823 26.4471L45.8737 26.2153C45.5827 25.9966 45.4158 25.9815 42.9206 25.9482C39.8391 25.9072 39.4498 25.9469 39.0103 26.3467C38.5381 26.7763 35.737 33.2873 35.737 33.9554C35.737 35.0681 37.0225 35.6984 37.9936 35.0621C38.1474 34.9614 38.4039 34.6001 38.5637 34.2593L38.8542 33.6397L38.9088 39.9287C38.9675 46.6676 38.9515 46.4919 39.5413 46.9118C40.3212 47.4672 41.4402 47.2086 41.8656 46.3746C42.0688 45.9765 42.0807 45.7127 42.0807 41.6284V37.3037H42.4088H42.737V41.5895C42.737 45.6935 42.7465 45.895 42.9623 46.3407C43.4901 47.4312 44.999 47.5325 45.6612 46.522C45.8384 46.2516 45.8586 45.6976 45.9088 39.7149L45.9635 33.2022L46.3737 34.0653L46.7838 34.9283V38.8794C46.7838 43.2988 46.7947 43.3674 47.5563 43.7758C48.2507 44.1482 48.9593 43.9481 49.42 43.2493C49.6122 42.9579 49.6262 42.6736 49.6268 39.0739L49.6276 35.2111L49.9284 35.2457L50.2292 35.2803L50.2579 39.1482C50.2855 42.8576 50.296 43.0291 50.5127 43.3335C50.9644 43.9679 51.7044 44.1423 52.3287 43.7617C53.1036 43.2892 53.0694 43.5757 53.1041 37.2616L53.1351 31.5768L53.4461 32.2343C53.6172 32.5959 53.8928 32.9985 54.0587 33.129C54.4102 33.4056 54.969 33.4377 55.4152 33.207C55.8118 33.0019 56.1245 32.3545 56.0374 31.919C55.9757 31.6107 53.8805 26.6671 53.4471 25.8071C53.0952 25.1091 52.8365 25.0537 49.928 25.0537C47.4476 25.0537 47.3508 25.0619 46.9914 25.3008Z" fill="#00BEF2"/></symbol><symbol viewBox="0 0 14 13" fill="none" id="svg-telegram"><path fill-rule="evenodd" clip-rule="evenodd" d="M10.724 12.2878C10.9118 12.4208 11.1539 12.4541 11.3698 12.3724C11.5856 12.2902 11.7443 12.1058 11.7921 11.8824C12.299 9.50009 13.5287 3.47017 13.9901 1.30309C14.0251 1.13975 13.9668 0.970003 13.8384 0.86092C13.7101 0.751837 13.5322 0.720336 13.3735 0.779253C10.9276 1.68459 3.395 4.51084 0.31617 5.65009C0.120753 5.72242 -0.00641347 5.91025 3.19947e-06 6.11617C0.0070032 6.32267 0.145837 6.50175 0.34592 6.56184C1.72667 6.97484 3.53909 7.54942 3.53909 7.54942C3.53909 7.54942 4.38609 10.1073 4.82767 11.4082C4.88309 11.5715 5.01084 11.6998 5.17942 11.7442C5.34742 11.7879 5.52709 11.7418 5.6525 11.6234C6.36184 10.9538 7.4585 9.91834 7.4585 9.91834C7.4585 9.91834 9.54217 11.4461 10.724 12.2878ZM4.3015 7.22625L5.28092 10.4568L5.4985 8.411C5.4985 8.411 9.28259 4.99792 11.4398 3.0525C11.5028 2.99534 11.5115 2.89967 11.459 2.83259C11.4071 2.7655 11.3114 2.74975 11.2397 2.79525C8.7395 4.39184 4.3015 7.22625 4.3015 7.22625Z" fill="#2C334D"/></symbol><symbol viewBox="0 0 23 22" fill="none" id="svg-transport"><path fill-rule="evenodd" clip-rule="evenodd" d="M8.90471 3.01404C7.86521 3.07025 6.9324 3.1859 6.61326 3.29804C6.06501 3.49074 5.68132 3.87686 5.1283 4.79244C4.81081 5.31805 4.27853 6.43426 4.01755 7.12161C3.9058 7.41608 3.79429 7.7052 3.76985 7.76404C3.7261 7.86952 3.70818 7.87132 2.55893 7.88572C2.55893 7.88572 2.19253 7.88572 1.80314 7.88572C1.58534 7.88572 1.43677 7.89162 1.26234 8.02206C0.957631 8.24991 0.935844 8.53024 1.07714 8.97857C1.21527 9.41667 1.56791 9.73265 2.04188 9.84299C2.12219 9.86173 2.26845 9.89814 2.36696 9.92393L2.54598 9.97086L2.40249 10.2872C2.1199 10.9105 2.10978 11.0257 2.12521 13.4403C2.12521 13.4403 2.1309 14.9911 2.12521 15.2345C2.11952 15.4778 2.26928 15.8857 2.26928 15.8857C2.40254 16.1383 2.71176 16.4546 2.91638 16.5479C3.03052 16.5999 3.0313 16.6058 3.04965 17.5799C3.06994 18.6572 3.09413 18.7628 3.35799 18.9259C3.5005 19.014 3.60271 19.0221 4.5786 19.0219C6.1167 19.0216 6.10604 19.0314 6.10604 17.6121V16.7344H12.0198H17.9335V17.6843V18.6341C17.9335 18.6341 17.9335 19.0125 18.2665 18.9977C18.5996 18.983 19.3629 19.0125 19.3629 19.0125C20.5836 19.0289 20.6759 19.0105 20.8558 18.7155C20.9416 18.5747 20.9508 18.4658 20.951 17.5859L20.9512 16.6122L21.1045 16.5443C21.3363 16.4417 21.6148 16.2963 21.7589 15.9889C21.7589 15.9889 21.885 15.8008 21.9003 15.542C21.9156 15.2832 21.9156 13.5707 21.9156 13.5707C21.9328 11.3486 21.907 11.0303 21.6597 10.4146C21.5674 10.1845 21.4974 9.99057 21.5043 9.98366C21.5112 9.97675 21.6952 9.91941 21.9132 9.85628C22.1312 9.79315 22.3978 9.68305 22.5057 9.61165C22.7628 9.44154 22.9519 9.07178 22.9835 8.67699C23.0119 8.32402 22.9246 8.11517 22.6888 7.97144C22.5462 7.88446 22.438 7.87638 21.4104 7.87623L20.2878 7.87604L19.98 7.08511C19.8107 6.65012 19.5043 5.96564 19.299 5.56409C18.5421 4.08318 18.0716 3.53128 17.3486 3.27619C17.0599 3.17437 16.1266 3.07021 14.9644 3.0101C13.868 2.95344 9.97872 2.95592 8.90471 3.01404ZM14.2587 4.00837C16.0763 4.05456 16.4843 4.09637 16.8438 4.27334C17.2173 4.45718 17.3649 4.62924 17.8535 5.45005C18.4859 6.51238 19.1583 7.94228 19.0647 8.0259C18.9901 8.09263 15.6111 8.33419 13.626 8.41465C12.1691 8.47374 10.7235 8.45032 8.78303 8.33619C7.40793 8.25534 5.09068 8.07632 4.99358 8.04347C4.90315 8.0129 4.94471 7.86625 5.22911 7.21287C5.66463 6.21207 6.50282 4.80022 6.84484 4.4912C7.27715 4.1006 7.57561 4.0566 10.2675 3.98608C11.6848 3.94894 11.9873 3.95064 14.2587 4.00837ZM5.21757 11.3543C5.83381 11.505 6.24223 11.7067 6.54614 12.0106C6.95791 12.4223 7.19217 13.0313 7.06022 13.3471C6.94783 13.6161 6.78239 13.642 5.95598 13.5198C4.26403 13.2695 3.7718 13.1427 3.5189 12.8918C3.27646 12.6513 3.20734 12.3824 3.27802 11.9545C3.35239 11.5043 3.41922 11.3809 3.6471 11.2732C3.90404 11.1518 4.51912 11.1836 5.21757 11.3543ZM20.3671 11.271C20.5993 11.387 20.7118 11.6365 20.7407 12.0998C20.761 12.4259 20.7491 12.5046 20.6508 12.6944C20.5085 12.969 20.2865 13.0971 19.722 13.23C19.0627 13.3852 17.4414 13.622 17.2633 13.589C17.1753 13.5727 17.059 13.5023 17.0027 13.4313C16.7044 13.0547 17.2349 12.0315 17.9208 11.6606C18.5998 11.2934 19.9739 11.0746 20.3671 11.271ZM16.1129 11.7128C16.4315 12.065 15.7749 13.0243 15.0411 13.3742C14.547 13.6098 14.3246 13.6252 11.6528 13.6095C11.6528 13.6095 9.9558 13.6095 9.54208 13.6095C9.12837 13.6095 8.90958 13.4247 8.90958 13.4247C8.21522 13.0071 7.81197 12.0309 8.10624 11.7057C8.183 11.6209 8.25245 11.6238 11.9954 11.6238C11.9954 11.6238 15.7965 11.6238 15.9228 11.6238C16.0491 11.6238 16.1129 11.7128 16.1129 11.7128Z" fill="#00BEF2"/></symbol><symbol viewBox="0 0 14 10" fill="none" id="svg-vk"><path d="M7.67783 9.07967C8.03308 9.07967 8.17833 8.84284 8.17425 8.54592C8.15617 7.42767 8.59075 6.82567 9.37533 7.61025C10.2433 8.47825 10.423 9.07967 11.4771 9.07967H13.3438C13.8151 9.07967 14.0006 8.928 14.0006 8.69C14.0006 8.18659 13.1717 7.29817 12.4693 6.646C11.4858 5.73309 11.4397 5.7115 12.2867 4.6125C13.3373 3.24809 14.7117 1.49984 13.496 1.49984H11.1737C10.7234 1.49984 10.6908 1.75359 10.5303 2.13159C9.94992 3.50067 8.84683 5.274 8.428 5.00275C7.98992 4.71984 8.19058 3.59925 8.22383 1.93384C8.23258 1.494 8.23025 1.19242 7.55825 1.03609C7.19133 0.951504 6.83433 0.916504 6.503 0.916504C5.17708 0.916504 4.26242 1.47242 4.78217 1.56925C5.69858 1.74017 5.6105 3.72292 5.397 4.57925C5.02483 6.07025 3.626 3.39859 3.04325 2.068C2.90267 1.74834 2.8595 1.49984 2.35783 1.49984H0.459083C0.172083 1.49984 0 1.59317 0 1.80084C0 2.152 1.72667 5.72084 3.37517 7.5C4.98283 9.23542 6.57183 9.07967 7.67783 9.07967Z" fill="#2C334D"/></symbol></svg>