<svg width="10" height="10" viewBox="0 0 10 10" fill="none" xmlns="http://www.w3.org/2000/svg">
<path fill-rule="evenodd" clip-rule="evenodd" d="M4.7496 0.00471446C4.30229 0.0558668 4.04598 0.111199 3.75819 0.218699C2.99161 0.505046 2.35178 1.03081 1.91614 1.73237C1.50563 2.39341 1.31604 3.25046 1.41063 4.01743C1.56251 5.24887 2.44096 6.9493 3.89757 8.83138C4.24206 9.27651 4.68491 9.80954 4.78641 9.90124C4.92061 10.0225 5.08639 10.0225 5.22059 9.90124C5.3221 9.80954 5.76495 9.27651 6.10944 8.83138C7.42042 7.13747 8.26071 5.59854 8.52661 4.4046C8.59503 4.09733 8.61682 3.89694 8.61653 3.57798C8.61567 2.63954 8.23958 1.74321 7.56296 1.06696C7.00362 0.507937 6.34448 0.169324 5.56991 0.0430738C5.38649 0.0131715 4.88194 -0.0104223 4.7496 0.00471446ZM5.23159 1.81108C5.9605 1.90995 6.56409 2.43339 6.76175 3.13802C6.81385 3.3238 6.83356 3.69731 6.8019 3.89964C6.71149 4.47766 6.33161 4.98602 5.79452 5.24774C5.47776 5.40208 5.15479 5.46022 4.82284 5.42262C4.56538 5.39346 4.43473 5.35604 4.21249 5.24774C3.6754 4.98602 3.29551 4.47766 3.2051 3.89964C3.17344 3.69731 3.19315 3.3238 3.24526 3.13802C3.4895 2.26731 4.3512 1.69167 5.23159 1.81108Z" fill="#464A4B"/>
</svg>
