<svg width="56" height="56" viewBox="0 0 56 56" fill="none" xmlns="http://www.w3.org/2000/svg">
<path fill-rule="evenodd" clip-rule="evenodd" d="M23.4914 0.232053C22.693 0.63871 22.5064 1.13308 22.5064 2.84273V4.24316L22.0416 4.36446C20.681 4.71927 18.4568 5.54527 17.2017 6.16171C14.6106 7.43429 12.6747 8.84643 10.5761 10.9946C8.11987 13.5088 6.36396 16.2688 5.19387 19.4547C4.56988 21.1537 4.56267 21.1092 5.34743 20.3963C6.50637 19.3435 7.60942 18.9078 9.11628 18.9078C10.1724 18.9078 11.1435 19.173 11.9517 19.6819C12.2525 19.8713 13.1744 20.6943 14.0004 21.5107C14.8265 22.3272 15.5206 22.9738 15.5429 22.9476C15.5652 22.9215 15.7851 22.4935 16.0314 21.9966C17.2639 19.5099 19.4987 17.2564 21.9777 16.0002L22.5064 15.7322V16.2464C22.5064 17.257 23.1159 18.024 24.0579 18.1985C24.9156 18.3576 25.0425 18.2573 29.1595 14.1638C31.2847 12.0508 33.1181 10.1392 33.2337 9.91612C33.4675 9.46473 33.5033 8.90833 33.3283 8.44229C33.1565 7.98444 25.6146 0.446866 25.0767 0.195303C24.4971 -0.0756184 24.0765 -0.0658841 23.4914 0.232053ZM35.5648 5.35824C36.6176 6.51718 37.0533 7.62022 37.0533 9.12708C37.0533 10.1832 36.7882 11.1543 36.2792 11.9625C36.0898 12.2633 35.2669 13.1852 34.4504 14.0112C33.6339 14.8373 32.9873 15.5314 33.0135 15.5537C33.0396 15.5761 33.4676 15.7959 33.9645 16.0422C36.4366 17.2675 38.7171 19.5198 39.9392 21.943L40.2289 22.5172H39.7147C38.7041 22.5172 37.9371 23.1268 37.7626 24.0687C37.6035 24.9264 37.7038 25.0533 41.7973 29.1703C43.9103 31.2955 45.8219 33.1289 46.045 33.2445C46.5324 33.4969 47.1215 33.5142 47.5943 33.2898C47.7855 33.1991 49.6959 31.3656 51.8398 29.2156C55.1301 25.9156 55.7584 25.2355 55.8706 24.8519C56.1243 23.9844 55.7587 23.1342 54.9669 22.7509C54.552 22.55 54.2901 22.5172 53.1011 22.5172H51.7179L51.5966 22.0524C51.2418 20.6918 50.4158 18.4676 49.7994 17.2125C48.5268 14.6214 47.1147 12.6855 44.9666 10.5869C42.4508 8.12915 39.7245 6.39555 36.5064 5.20687C34.8088 4.57993 34.8514 4.57304 35.5648 5.35824ZM8.33753 22.6865C8.15454 22.7769 6.25153 24.6091 4.10865 26.7582C0.819963 30.0565 0.191932 30.7364 0.0797128 31.12C-0.174037 31.9876 0.191604 32.8377 0.983369 33.221C1.39834 33.4219 1.66018 33.4547 2.8492 33.4547H4.23235L4.35365 33.9196C4.70846 35.2801 5.53446 37.5043 6.1509 38.7594C7.42348 41.3505 8.83562 43.2864 10.9837 45.385C13.4995 47.8428 16.2258 49.5764 19.4439 50.7651C21.1415 51.392 21.0989 51.3989 20.3855 50.6137C19.3327 49.4547 18.897 48.3517 18.897 46.8448C18.897 45.7887 19.1621 44.8176 19.6711 44.0094C19.8605 43.7086 20.6834 42.7867 21.4999 41.9607C22.3164 41.1346 22.963 40.4405 22.9368 40.4182C22.9106 40.3959 22.4827 40.176 21.9858 39.9297C19.5988 38.7465 17.7169 36.9527 16.2763 34.4876C16.0334 34.0718 15.8345 33.6693 15.8345 33.5932C15.8345 33.5035 15.996 33.4547 16.2922 33.4547C17.2449 33.4547 18.0173 32.8225 18.1877 31.9032C18.3468 31.0455 18.2465 30.9186 14.153 26.8016C12.04 24.6764 10.1284 22.843 9.90531 22.7274C9.42143 22.4767 8.79559 22.4604 8.33753 22.6865ZM40.0196 33.7871C39.1908 35.576 37.4885 37.6334 35.8982 38.7683C35.0585 39.3674 33.7641 40.1266 33.5824 40.1266C33.4919 40.1266 33.4439 39.9619 33.4439 39.6516C33.4439 38.9584 33.0491 38.2816 32.4639 37.9722C31.9065 37.6775 31.5136 37.6559 30.9521 37.8894C30.4474 38.0993 23.0283 45.4565 22.7172 46.0558C22.4642 46.543 22.4468 47.1319 22.6713 47.6051C22.762 47.7963 24.5955 49.7067 26.7456 51.8506C30.0455 55.1409 30.7256 55.7692 31.1092 55.8814C31.9767 56.1351 32.8269 55.7695 33.2102 54.9777C33.4111 54.5628 33.4439 54.3009 33.4439 53.1119V51.7288L33.9087 51.6075C37.3829 50.7013 40.8903 48.9272 43.4517 46.7804C46.8079 43.9676 49.2919 40.4765 50.7542 36.5172C51.3812 34.8196 51.3881 34.8623 50.6029 35.5756C49.4439 36.6284 48.3409 37.0641 46.834 37.0641C45.7122 37.0641 44.7426 36.7792 43.8728 36.1941C43.5209 35.9573 42.6185 35.1458 41.8674 34.3904C41.1163 33.6352 40.4736 33.0172 40.4391 33.0172C40.4046 33.0172 40.2159 33.3637 40.0196 33.7871Z" fill="#00BEF2"/>
</svg>
