<svg width="14" height="14" viewBox="0 0 14 14" fill="none" xmlns="http://www.w3.org/2000/svg">
<path d="M6.39125 0.699951C3.25329 0.699951 0.700195 3.25304 0.700195 6.391C0.700195 9.52914 3.25329 12.0821 6.39125 12.0821C9.52938 12.0821 12.0823 9.52914 12.0823 6.391C12.0823 3.25304 9.52938 0.699951 6.39125 0.699951ZM6.39125 11.0314C3.83255 11.0314 1.75085 8.94972 1.75085 6.39103C1.75085 3.83233 3.83255 1.75061 6.39125 1.75061C8.94994 1.75061 11.0316 3.83231 11.0316 6.391C11.0316 8.94969 8.94994 11.0314 6.39125 11.0314Z" fill="#363636" fill-opacity="0.8"/>
<path d="M13.4687 12.7264L10.4568 9.71447C10.2516 9.50924 9.91921 9.50924 9.71398 9.71447C9.50875 9.91952 9.50875 10.2522 9.71398 10.4573L12.7259 13.4692C12.8285 13.5718 12.9628 13.6231 13.0973 13.6231C13.2316 13.6231 13.3661 13.5718 13.4687 13.4692C13.6739 13.2641 13.6739 12.9314 13.4687 12.7264Z" fill="#363636" fill-opacity="0.8"/>
</svg>
