<svg width="14" height="10" viewBox="0 0 14 10" fill="none" xmlns="http://www.w3.org/2000/svg">
<path d="M7.67783 9.07967C8.03308 9.07967 8.17833 8.84284 8.17425 8.54592C8.15617 7.42767 8.59075 6.82567 9.37533 7.61025C10.2433 8.47825 10.423 9.07967 11.4771 9.07967H13.3438C13.8151 9.07967 14.0006 8.928 14.0006 8.69C14.0006 8.18659 13.1717 7.29817 12.4693 6.646C11.4858 5.73309 11.4397 5.7115 12.2867 4.6125C13.3373 3.24809 14.7117 1.49984 13.496 1.49984H11.1737C10.7234 1.49984 10.6908 1.75359 10.5303 2.13159C9.94992 3.50067 8.84683 5.274 8.428 5.00275C7.98992 4.71984 8.19058 3.59925 8.22383 1.93384C8.23258 1.494 8.23025 1.19242 7.55825 1.03609C7.19133 0.951504 6.83433 0.916504 6.503 0.916504C5.17708 0.916504 4.26242 1.47242 4.78217 1.56925C5.69858 1.74017 5.6105 3.72292 5.397 4.57925C5.02483 6.07025 3.626 3.39859 3.04325 2.068C2.90267 1.74834 2.8595 1.49984 2.35783 1.49984H0.459083C0.172083 1.49984 0 1.59317 0 1.80084C0 2.152 1.72667 5.72084 3.37517 7.5C4.98283 9.23542 6.57183 9.07967 7.67783 9.07967Z" fill="white"/>
</svg>
